<svg height="100" viewBox="0 0 100 100" width="100" xmlns="http://www.w3.org/2000/svg" xmlns:xlink="http://www.w3.org/1999/xlink"><linearGradient id="a" gradientUnits="objectBoundingBox" x1="-1.069" x2="-1.069" y1="2.525" y2="2.53"><stop offset="0" stop-color="#edbc46"/><stop offset=".27" stop-color="#eda44c"/><stop offset=".61" stop-color="#c48031"/><stop offset=".8" stop-color="#d89d3b"/><stop offset="1" stop-color="#ffed95"/></linearGradient><linearGradient id="b" x1="-1.138" x2="-1.133" xlink:href="#a" y1="2.629" y2="2.629"/><radialGradient id="c" cx=".501" cy=".502" gradientTransform="matrix(1 -.002 -.002 -1 .006 5.472)" gradientUnits="objectBoundingBox" r=".499"><stop offset="0" stop-color="#7d1416"/><stop offset=".09" stop-color="#981819"/><stop offset=".26" stop-color="#c61f1f"/><stop offset=".39" stop-color="#e22323"/><stop offset=".46" stop-color="#ed2524"/><stop offset=".87" stop-color="#ec1e24"/><stop offset=".89" stop-color="#db1c22"/><stop offset=".94" stop-color="#a41619"/><stop offset=".98" stop-color="#811214"/><stop offset="1" stop-color="#741112"/></radialGradient><radialGradient id="d" cx=".5" cy=".507" gradientTransform="matrix(.006 -1 -1 -.006 1.578 1.588)" gradientUnits="objectBoundingBox" r=".5"><stop offset="0" stop-color="#5e0000"/><stop offset=".61" stop-color="#5e0000"/><stop offset=".87" stop-color="#5e0000"/><stop offset="1" stop-color="#be1e2d"/></radialGradient><linearGradient id="e" gradientUnits="objectBoundingBox" x1="-1.625" x2="-1.618" y1="4.274" y2="4.276"><stop offset="0" stop-color="#4d1211"/><stop offset=".02" stop-color="#521312"/><stop offset=".04" stop-color="#601414"/><stop offset=".06" stop-color="#781718"/><stop offset=".08" stop-color="#991b1d"/><stop offset=".11" stop-color="#c32024"/><stop offset=".12" stop-color="#d82327"/><stop offset=".29" stop-color="#ae524f"/><stop offset=".43" stop-color="#912829"/><stop offset=".5" stop-color="#851719"/><stop offset=".78" stop-color="#d52427"/></linearGradient><linearGradient id="f" gradientUnits="objectBoundingBox" x1="-1.625" x2="-1.618" y1="4.278" y2="4.279"><stop offset="0" stop-color="#1c1f33"/><stop offset=".04" stop-color="#1e2238"/><stop offset=".08" stop-color="#242946"/><stop offset=".12" stop-color="#2b3156"/><stop offset=".29" stop-color="#2c3e8d"/><stop offset=".42" stop-color="#2b3567"/><stop offset=".5" stop-color="#2b3156"/><stop offset=".7" stop-color="#1c1f33"/></linearGradient><linearGradient id="g" gradientUnits="objectBoundingBox" x1="-8.312" x2="-8.311" y1="3.914" y2="3.914"><stop offset="0" stop-color="#9f1d21"/><stop offset=".12" stop-color="#a21e21"/><stop offset=".29" stop-color="#994845"/><stop offset=".6" stop-color="#7f2222"/><stop offset=".78" stop-color="#731112"/><stop offset=".85" stop-color="#761213"/><stop offset=".9" stop-color="#811517"/><stop offset=".96" stop-color="#931a1c"/><stop offset=".99" stop-color="#a21e21"/></linearGradient><g><circle cx="50" cy="50" fill="url(#a)" r="50"/><path d="m99.873 52.311a47.563 47.563 0 1 1 -13.929-33.636 47.565 47.565 0 0 1 13.929 33.636z" fill="url(#b)" transform="translate(-2.312 -2.31)"/><circle cx="45.246" cy="45.246" fill="url(#c)" r="45.246" transform="translate(4.751 4.755)"/><circle cx="39.682" cy="39.682" fill="url(#d)" r="39.682" transform="translate(10.995 9.973)"/><g fill="#231f20" opacity=".75" transform="translate(15.331 24.672)"><path d="m35.015 58.841s3.133-5.436 16.226-7.179c13.19-1.754 22.374 4.287 38.169 1.887 5.569-.846 9.718-1.795 10.769-5.087l9.3 41.092a31.394 31.394 0 0 1 -20.879 7.554c-13.19 0-25.872-7.026-44.554 5.067z" transform="translate(-32.39 -48.283)"/><path d="m34.935 58.486s3.133-5.436 16.226-7.179c13.184-1.749 22.374 4.293 38.164 1.893 5.574-.846 9.744-1.8 10.769-5.087l9.3 41.087a31.389 31.389 0 0 1 -20.877 7.554c-13.185 0-25.872-7.021-44.554 5.067z" transform="translate(-32.351 -48.112)"/><path d="m42.7 117.069-10.543-52.492s-.318-.513-1.349-.282-.908.841-.908.841l10.062 52.282c0 .2.482.426 1.631.241a1.623 1.623 0 0 0 1.107-.59z" transform="translate(-29.896 -55.967)"/><path d="m40.615 111.51c.662-.154 1.205-.185 1.256-.062l-9.04-43.448c-.092-.164-.605-.185-1.195-.036s-1.087.431-1.026.621l8.831 43.5c-.031-.129.497-.416 1.174-.575z" transform="translate(-30.241 -57.736)"/><path d="m107.845 73.032c-3.421-3.077-6.779-3.59-12.19-3.59h-9.861l-4.949 27.846h12.128c6.441 0 10.021-1.79 13.364-5.128a15.274 15.274 0 0 0 4.574-10.979c-.02-3.375-.861-6.201-3.066-8.149zm-15.231 20.184 2.41-8.272h-5.324l3.236-9.7 7.072-.077-2.256 6.154 3.759.077z" transform="translate(-54.717 -58.504)"/></g><path d="m29.915 53.741s3.138-5.431 16.231-7.179c13.184-1.754 22.374 4.287 38.164 1.887 5.569-.846 9.744-1.795 10.769-5.087l9.318 41.1a31.378 31.378 0 0 1 -20.877 7.556c-13.185 0-25.877-7.046-44.559 5.062z" fill="url(#e)" transform="translate(-14.575 -21.126)"/><path d="m29.835 53.391s3.138-5.436 16.226-7.179c13.189-1.754 22.374 4.288 38.169 1.888 5.57-.847 9.743-1.8 10.77-5.088l9.3 41.088a31.394 31.394 0 0 1 -20.882 7.554c-13.19 0-25.851-7.021-44.523 5.072z" fill="url(#f)" transform="translate(-14.536 -20.955)"/><path d="m27.067 59.48s-.323-.513-1.354-.277-.9.836-.9.836l11.087 55.413c0 .2.477.431 1.631.241a1.631 1.631 0 0 0 1.108-.585z" fill="url(#g)" transform="translate(-12.085 -28.813)"/><path d="m35.525 106.418c.667-.154 1.21-.185 1.256-.062l-9.036-43.446c-.087-.169-.6-.185-1.19-.041s-1.087.431-1.026.621l8.821 43.5c-.025-.126.503-.413 1.175-.572z" fill="#2b3462" transform="translate(-12.436 -30.581)"/><path d="m102.811 67.942c-3.421-3.077-6.785-3.59-12.195-3.59h-9.887l-4.954 27.848h12.092c6.446 0 10.026-1.79 13.364-5.128a15.284 15.284 0 0 0 4.574-10.979c.001-3.382-.835-6.208-2.994-8.151zm-15.231 20.184 2.405-8.272h-5.364l3.236-9.7 7.067-.082-2.256 6.154 3.764.072z" fill="#fff" transform="translate(-36.917 -31.351)"/></g></svg>