<svg xmlns="http://www.w3.org/2000/svg" xmlns:xlink="http://www.w3.org/1999/xlink" width="100" height="100" viewBox="0 0 100 100">
  <defs>
    <linearGradient id="linear-gradient" x1="-1.069" y1="2.525" x2="-1.069" y2="2.53" gradientUnits="objectBoundingBox">
      <stop offset="0" stop-color="#edbc46"/>
      <stop offset="0.27" stop-color="#eda44c"/>
      <stop offset="0.61" stop-color="#c48031"/>
      <stop offset="0.8" stop-color="#d89d3b"/>
      <stop offset="1" stop-color="#ffed95"/>
    </linearGradient>
    <linearGradient id="linear-gradient-2" x1="-1.138" y1="2.629" x2="-1.133" y2="2.629" xlink:href="#linear-gradient"/>
    <radialGradient id="radial-gradient" cx="0.49" cy="0.508" r="0.499" gradientTransform="matrix(1, -0.002, -0.002, -1, 0.006, 5.472)" gradientUnits="objectBoundingBox">
      <stop offset="0" stop-color="#7d1416"/>
      <stop offset="0.09" stop-color="#981819"/>
      <stop offset="0.26" stop-color="#c61f1f"/>
      <stop offset="0.39" stop-color="#e22323"/>
      <stop offset="0.46" stop-color="#ed2524"/>
      <stop offset="0.87" stop-color="#ec1e24"/>
      <stop offset="0.89" stop-color="#db1c22"/>
      <stop offset="0.94" stop-color="#a41619"/>
      <stop offset="0.98" stop-color="#811214"/>
      <stop offset="1" stop-color="#741112"/>
    </radialGradient>
    <radialGradient id="radial-gradient-2" cx="0.5" cy="0.508" r="0.5" gradientTransform="matrix(0.006, -1, -1, -0.006, 1.578, 1.588)" gradientUnits="objectBoundingBox">
      <stop offset="0" stop-color="#5e0000"/>
      <stop offset="0.61" stop-color="#5e0000"/>
      <stop offset="0.87" stop-color="#5e0000"/>
      <stop offset="1" stop-color="#be1e2d"/>
    </radialGradient>
    <linearGradient id="linear-gradient-3" x1="-1.625" y1="4.274" x2="-1.618" y2="4.276" gradientUnits="objectBoundingBox">
      <stop offset="0" stop-color="#4d1211"/>
      <stop offset="0.02" stop-color="#521312"/>
      <stop offset="0.04" stop-color="#601414"/>
      <stop offset="0.06" stop-color="#781718"/>
      <stop offset="0.08" stop-color="#991b1d"/>
      <stop offset="0.11" stop-color="#c32024"/>
      <stop offset="0.12" stop-color="#d82327"/>
      <stop offset="0.29" stop-color="#ae524f"/>
      <stop offset="0.43" stop-color="#912829"/>
      <stop offset="0.5" stop-color="#851719"/>
      <stop offset="0.78" stop-color="#d52427"/>
    </linearGradient>
    <linearGradient id="linear-gradient-4" x1="-1.625" y1="4.278" x2="-1.618" y2="4.279" gradientUnits="objectBoundingBox">
      <stop offset="0" stop-color="#ed306e"/>
      <stop offset="0.02" stop-color="#ed3571"/>
      <stop offset="0.04" stop-color="#ee437a"/>
      <stop offset="0.06" stop-color="#f05b89"/>
      <stop offset="0.08" stop-color="#f27c9f"/>
      <stop offset="0.1" stop-color="#f5a6b9"/>
      <stop offset="0.12" stop-color="#f7c1cb"/>
      <stop offset="0.29" stop-color="#f79fb1"/>
      <stop offset="0.43" stop-color="#f17393"/>
      <stop offset="0.5" stop-color="#ef6287"/>
      <stop offset="0.7" stop-color="#ed306e"/>
    </linearGradient>
    <linearGradient id="linear-gradient-5" x1="-8.312" y1="3.916" x2="-8.311" y2="3.916" gradientUnits="objectBoundingBox">
      <stop offset="0" stop-color="#9f1d21"/>
      <stop offset="0.12" stop-color="#a21e21"/>
      <stop offset="0.29" stop-color="#994845"/>
      <stop offset="0.6" stop-color="#7f2222"/>
      <stop offset="0.78" stop-color="#731112"/>
      <stop offset="0.85" stop-color="#761213"/>
      <stop offset="0.9" stop-color="#811517"/>
      <stop offset="0.96" stop-color="#931a1c"/>
      <stop offset="0.99" stop-color="#a21e21"/>
    </linearGradient>
  </defs>
  <g id="effective-coaching-path" transform="translate(50 50)">
    <g id="PathwaysPaths" transform="translate(-50 -50)">
      <g id="PathwaysPaths-Copy">
        <g id="EffectiveCoachingPath">
          <g id="Effective-Coaching-Path-2" data-name="Effective-Coaching-Path">
            <circle id="Oval" cx="50" cy="50" r="50" fill="url(#linear-gradient)"/>
            <path id="Shape" d="M99.873,52.311A47.563,47.563,0,1,1,85.944,18.675,47.565,47.565,0,0,1,99.873,52.311Z" transform="translate(-2.312 -2.31)" fill="url(#linear-gradient-2)"/>
            <circle id="Oval-2" data-name="Oval" cx="45.246" cy="45.246" r="45.246" transform="translate(4.751 4.755)" fill="url(#radial-gradient)"/>
            <circle id="Oval-3" data-name="Oval" cx="39.682" cy="39.682" r="39.682" transform="translate(10.995 9.973)" fill="url(#radial-gradient-2)"/>
            <g id="Group" transform="translate(12.72 22.057)">
              <g id="Shape-2" data-name="Shape" transform="translate(2.611 2.615)" opacity="0.75">
                <path id="Path_73139" data-name="Path 73139" d="M35.015,58.841s3.133-5.436,16.226-7.179c13.19-1.754,22.374,4.287,38.169,1.887,5.569-.846,9.718-1.795,10.769-5.087l9.3,41.092A31.394,31.394,0,0,1,88.6,97.108c-13.19,0-25.872-7.026-44.554,5.067Z" transform="translate(-32.39 -48.283)" fill="#231f20"/>
                <path id="Path_73140" data-name="Path 73140" d="M34.935,58.486s3.133-5.436,16.226-7.179C64.345,49.558,73.535,55.6,89.325,53.2c5.574-.846,9.744-1.8,10.769-5.087l9.3,41.087a31.389,31.389,0,0,1-20.877,7.554c-13.185,0-25.872-7.021-44.554,5.067Z" transform="translate(-32.351 -48.112)" fill="#231f20"/>
                <path id="Path_73141" data-name="Path 73141" d="M42.978,116.919,32.157,64.577s-.318-.513-1.349-.282-.908.841-.908.841l10.338,52.127c0,.2.482.431,1.631.241A1.631,1.631,0,0,0,42.978,116.919Z" transform="translate(-29.896 -55.967)" fill="#231f20"/>
                <path id="Path_73142" data-name="Path 73142" d="M40.615,111.51c.662-.154,1.205-.185,1.256-.062L32.831,68h0c-.092-.164-.605-.185-1.195-.036s-1.087.431-1.026.621l8.831,43.5C39.41,111.956,39.938,111.669,40.615,111.51Z" transform="translate(-30.241 -57.736)" fill="#231f20"/>
                <path id="Path_73143" data-name="Path 73143" d="M116.28,129.572s-1.472.99-2.267.723-2.226-1.344-2.369-2.087-.051-.882.046-.964.226-.318-.205-.246a.756.756,0,0,1-.579-.205l-.246.379a1.524,1.524,0,0,1,0,.205.724.724,0,0,1-.185.344h0a4.751,4.751,0,0,1,.036.513c0,.344,0,.513-.077.579s-.323-.041-.323-.041-.277.549-.374.754a.714.714,0,0,1-.513.405c-.19,0-.236-.154-.313-.108a.515.515,0,0,1-.226.036,5.131,5.131,0,0,1,.785,2.1,9.067,9.067,0,0,1,0,1.538c2.441.282,4.821.651,7.179.964A32.335,32.335,0,0,1,116.28,129.572Z" transform="translate(-68.28 -86.443)" fill="#231f20"/>
                <path id="Path_73144" data-name="Path 73144" d="M113.2,120.5h0l.062.1a1.091,1.091,0,0,0,.108.185h0a1,1,0,0,0,.077.092,1.676,1.676,0,0,1,.205.277.236.236,0,0,1,0,.246.623.623,0,0,0-.062.379,1.2,1.2,0,0,1-.118.672.837.837,0,0,1,.051.2,5.416,5.416,0,0,1,1.026-.159,20.726,20.726,0,0,1,4.072-.179l-.118-2.051a13.354,13.354,0,0,1-3.113,1.1c-1.282.221-1.349.262-2.19-1.026a.326.326,0,0,0,0,.169Z" transform="translate(-70.477 -83.262)" fill="#231f20"/>
                <path id="Path_73145" data-name="Path 73145" d="M112.586,119.672h.113c-.031-.051-.056-.087-.092-.138l-.046-.072a.824.824,0,0,0,0,.174S112.561,119.667,112.586,119.672Z" transform="translate(-70.166 -82.872)" fill="#231f20"/>
                <path id="Path_73146" data-name="Path 73146" d="M69.01,134.093h0c-.072-.092-1.19-3.149-1.287-3.421a4.7,4.7,0,0,0-.513.605c-.041.1-.128.123-.226.149h-.067a.3.3,0,0,0-.118.072.515.515,0,0,1-.169.108.191.191,0,0,1-.185,0,.338.338,0,0,1-.051.138,2.752,2.752,0,0,1,.256.38,1.5,1.5,0,0,1,.1.231.57.57,0,0,0,.1.2.375.375,0,0,0,.179.087.583.583,0,0,1,.2.077.266.266,0,0,1,.174.2l.036.108a1.169,1.169,0,0,0,.19.3l.046.041.041.026h0c.077.041.267.138.415.231l.082.051.067.051c.062.056.149.128.231.19a.186.186,0,0,0,.046.036l.041.036h0l.036.026h0l.036.026h.333Z" transform="translate(-47.678 -88.334)" fill="#231f20"/>
                <path id="Path_73147" data-name="Path 73147" d="M127.42,101.78l-.215-.338a7.276,7.276,0,0,1-.169-2.477c1.026-.513,1.082-1.538,1.421-2.667s-.144-6.323-.179-7.805a27.677,27.677,0,0,0-.867-6.344c-.672-2.564-3.769-4.528-4.615-5.349a39.078,39.078,0,0,1-2.908-3.872c-.344-.482.062-2.051.621-3.59a7.211,7.211,0,0,0-.39-5.369,5.966,5.966,0,0,0-3.313-2.564c-.918-.441-5.082-.1-6.538,1.056s-.2,2.656-.236,2.708c-1.251,1.815-.513,2.979-.513,3.59s-.682,1.492-.744,2.349,1.1.067,1.092.338a.672.672,0,0,0,.313.636,2.19,2.19,0,0,1,.477.795c-.287.051,0,.631-.067,1.538s.728,1.144,2.005,1.205,1.436.513,1.508,1.087a1.216,1.216,0,0,1-.349,1.205,18.506,18.506,0,0,0-1.877,1.979c-.585.723-1.395,3.482-1.779,3.908s-.41.954-.99,1.241a2.464,2.464,0,0,0-1.267,1.077c-.2.456-.821-.031-1.19-.564s-.513-.882-.949-1.426a13.564,13.564,0,0,1-.938-2.369,2.563,2.563,0,0,1,.256-2.256.867.867,0,0,0-.308-1.195l.59-.236c.959,0,1.738-.569,1.667-1.5a1.584,1.584,0,0,0-.641-1.262,1.618,1.618,0,0,0-2.231.574c-.179.292-.369.118-.369.118a1.25,1.25,0,0,0-1.185-.513c-.477.092-.144.774-.144.774a.979.979,0,0,0-1.19.636.625.625,0,0,0-.692.59s-.036-.159-.426.067-.051,1.092-.051,1.092-2.564,1.774-3.226,2.087-.569.667-.964.877-.615.436-.354.949.549.369,1.026.19a1.532,1.532,0,0,1,.754-.215,25.338,25.338,0,0,0,3.379-1.877,2.176,2.176,0,0,0,.333.831A20.552,20.552,0,0,0,99.5,84.021c-.062.3,1.892,3.041,3.395,5.185a4.981,4.981,0,0,1,1.262.672,2.079,2.079,0,0,1,0,1.087l.031-.092-.031.19h0l.046.072c.036.051.062.087.092.138h0a.148.148,0,0,1,.133.056.307.307,0,0,1,.046.113.35.35,0,0,1,0,.118h0c.841,1.272.908,1.231,2.19,1.026a13.354,13.354,0,0,0,3.113-1.1l.118,2.051a20.726,20.726,0,0,0-4.072.179,5.416,5.416,0,0,0-1.026.159.737.737,0,0,1-.031.287,5.03,5.03,0,0,1-.369.667.756.756,0,0,0,.579.205c.431-.072.3.159.205.246s-.19.221-.046.964,1.574,1.821,2.369,2.087,2.267-.723,2.267-.723a28.641,28.641,0,0,0,.369,4.9,58.982,58.982,0,0,0,7.862.636A33.1,33.1,0,0,0,127.42,101.78Z" transform="translate(-61.8 -54.498)" fill="#231f20"/>
                <path id="Path_73148" data-name="Path 73148" d="M86.568,119.486a5.131,5.131,0,0,0-.785-2.1.515.515,0,0,0,.226-.036c.077-.046.123.118.313.108a.714.714,0,0,0,.513-.405c.1-.205.374-.754.374-.754s.241.128.323.041.087-.236.077-.579a4.752,4.752,0,0,0-.036-.513h0a.724.724,0,0,0,.185-.344,1.524,1.524,0,0,0,0-.205l.246-.379a.482.482,0,0,1-.185-.559.834.834,0,0,1,.585-.395.837.837,0,0,0-.051-.2,1.2,1.2,0,0,0,.118-.672.623.623,0,0,1,.062-.379.236.236,0,0,0,0-.246,1.676,1.676,0,0,0-.205-.277,1.006,1.006,0,0,1-.077-.092h0a1.091,1.091,0,0,1-.108-.185l-.062-.1h0a.331.331,0,0,1,0-.149c-.056-.092-.123-.19-.19-.292h-.113c-.026,0-.041,0-.046-.036a.825.825,0,0,1,0-.174c-.313-.472-.79-1.159-1.328-1.923-.969-.431-2.118-.877-2.179-.892a1.835,1.835,0,0,1-.579-.174.778.778,0,0,0-.615-.159,1.586,1.586,0,0,1-.544,0,1.32,1.32,0,0,0,.133-.405c.062-.282,0-.328,0-.328a.416.416,0,0,0,.354-.436c0-.405.128-.79-.031-.877a.4.4,0,0,0-.149-.067h0a4.315,4.315,0,0,0-.1-1.369c-.646-1.472-3.687-1.1-3.779.569a2.435,2.435,0,0,0,.205,1.328s-.159.041-.031.513a1.392,1.392,0,0,0,.374.692c.062.051.221-.041.221-.041a2.154,2.154,0,0,0,.133.41.745.745,0,0,1,.077.287h0v.031a.141.141,0,0,1,0,.036.214.214,0,0,0,0,.051.973.973,0,0,1-.2.318c-.144.138-.282.256-.308.282s-.195-.041-.256.056-.051.036-.1.041c-.226-.451-.482-.805-.7-.81a3.177,3.177,0,0,1-.979-.272.621.621,0,0,0-.205-.892c-.564-.354-.872-.482-.713-1.026a2.819,2.819,0,0,0-.262-1.667c-.21-.692-.831-2.831-2.282-2.667h0a2.051,2.051,0,0,0-1.646,1.846c-.082.821-.236.779-.179,1.226s-.072.938-.072,1.656a2.791,2.791,0,0,1-.313,1.662,1.136,1.136,0,0,0-.195.862,2.4,2.4,0,0,0-.918.39.258.258,0,0,0-.1-.036h0a4.314,4.314,0,0,0-.1-1.369c-.646-1.472-3.687-1.1-3.779.569a2.435,2.435,0,0,0,.205,1.328s-.159.041-.031.513a1.392,1.392,0,0,0,.374.692c.062.051.221-.041.221-.041a2.154,2.154,0,0,0,.133.41.745.745,0,0,1,.077.287h0v.067a.214.214,0,0,1,0,.051.878.878,0,0,1-.195.318c-.144.138-.282.256-.308.282s-.195-.041-.256.056-.087.041-.159.046a.473.473,0,0,0-.3.1,2.93,2.93,0,0,1-.6.236,4.485,4.485,0,0,0-1.185.513h0a8.732,8.732,0,0,0-.99,1.174,9.693,9.693,0,0,1-.826.99,2.249,2.249,0,0,0-.467.718,2.97,2.97,0,0,1-.39.487c-.251.328-.123.349-.051.338a.671.671,0,0,0-.159.513h0a.248.248,0,0,0,.041.154.868.868,0,0,1,.062.205,4.21,4.21,0,0,0,.513,1.1,2.223,2.223,0,0,1,.185.262,1.718,1.718,0,0,0,.554.564h0l.431.3a3.5,3.5,0,0,0,.862.513l.092.041.128.087a9.021,9.021,0,0,1,.733.631.189.189,0,0,0,.067.082.1.1,0,0,0,.087,0h0a1.458,1.458,0,0,0,.3.21,1.929,1.929,0,0,1,.513.344,1.252,1.252,0,0,0,.59.338c.128,0,.174-.164.174-.164l.159.046a6.916,6.916,0,0,1-.036.862c7.179-2.472,13.5-2.308,19.436-1.621A8.99,8.99,0,0,0,86.568,119.486Zm-19.856.246h-.3l-.036-.026h0l-.036-.026h0l-.041-.036a.186.186,0,0,1-.046-.036c-.082-.062-.169-.133-.231-.19l-.067-.051-.082-.051c-.149-.092-.338-.19-.415-.231h0l-.041-.026-.046-.041a1.169,1.169,0,0,1-.19-.3l-.036-.108a.266.266,0,0,0-.174-.2c-.077-.036-.144-.056-.2-.077a.375.375,0,0,1-.179-.087.57.57,0,0,1-.1-.2,1.5,1.5,0,0,0-.1-.231,2.75,2.75,0,0,0-.256-.379.343.343,0,0,0,.021-.2.191.191,0,0,0,.185,0,.515.515,0,0,0,.169-.108.3.3,0,0,1,.118-.072h.067c.1-.026.185-.046.226-.149a4.7,4.7,0,0,1,.513-.605c.1.272,1.215,3.328,1.287,3.421h0Z" transform="translate(-45.379 -73.958)" fill="#231f20"/>
                <path id="Path_73149" data-name="Path 73149" d="M111.318,117.7h0l.031-.19-.031.092a2.08,2.08,0,0,0,0-1.087,4.993,4.993,0,0,0-1.313-.713c.513.764,1.026,1.451,1.328,1.923Z" transform="translate(-68.924 -81.089)" fill="#231f20"/>
                <path id="Path_73150" data-name="Path 73150" d="M113.035,120.158a.351.351,0,0,0,0-.118.307.307,0,0,0-.046-.113.148.148,0,0,0-.133-.056h0c.067.1.133.2.19.292Z" transform="translate(-70.312 -83.071)" fill="#231f20"/>
                <path id="Path_73151" data-name="Path 73151" d="M112.659,125.327a.482.482,0,0,0,.185.559,5.028,5.028,0,0,0,.369-.667.737.737,0,0,0,.031-.287.834.834,0,0,0-.585.395Z" transform="translate(-70.203 -85.537)" fill="#231f20"/>
              </g>
              <path id="Shape-3" data-name="Shape" d="M29.915,53.741s3.138-5.431,16.231-7.179C59.33,44.808,68.52,50.849,84.31,48.449c5.569-.846,9.744-1.795,10.769-5.087l9.318,41.1A31.378,31.378,0,0,1,83.52,92.018c-13.185,0-25.877-7.046-44.559,5.062Z" transform="translate(-27.295 -43.183)" fill="url(#linear-gradient-3)"/>
              <path id="Shape-4" data-name="Shape" d="M29.835,53.391s3.138-5.436,16.226-7.179C59.25,44.458,68.435,50.5,84.23,48.1,89.8,47.253,93.973,46.3,95,43.012L104.3,84.1a31.394,31.394,0,0,1-20.882,7.554c-13.19,0-25.851-7.021-44.523,5.072Z" transform="translate(-27.256 -43.012)" fill="url(#linear-gradient-4)"/>
              <path id="Shape-5" data-name="Shape" d="M27.067,59.48s-.323-.513-1.354-.277-.9.836-.9.836L35.9,115.424c0,.2.477.431,1.631.241a1.618,1.618,0,0,0,1.108-.605Z" transform="translate(-24.805 -50.87)" fill="url(#linear-gradient-5)"/>
              <path id="Shape-6" data-name="Shape" d="M35.525,106.418c.667-.154,1.21-.185,1.256-.062L27.745,62.91h0c-.087-.169-.6-.185-1.19-.041s-1.087.431-1.026.621l8.821,43.5C34.325,106.864,34.853,106.577,35.525,106.418Z" transform="translate(-25.156 -52.638)" fill="#f27097"/>
              <path id="Shape-7" data-name="Shape" d="M111.22,124.471s-1.477.995-2.267.728-2.226-1.349-2.369-2.087-.051-.882.046-.969.221-.313-.21-.246a.71.71,0,0,1-.574-.205c-.123.195-.231.354-.246.385s0,.067,0,.2a.672.672,0,0,1-.179.344h0c0,.046.026.226.036.513s0,.513-.082.579-.318-.036-.318-.036-.277.544-.374.749a.74.74,0,0,1-.513.41c-.19,0-.236-.159-.318-.108a.515.515,0,0,1-.226.036,5.126,5.126,0,0,1,.79,2.1,9.879,9.879,0,0,1,0,1.538c2.446.282,4.826.651,7.179.964A27.723,27.723,0,0,1,111.22,124.471Z" transform="translate(-63.205 -81.343)" fill="#231f20"/>
              <path id="Shape-8" data-name="Shape" d="M108.1,115.413h0l.056.1a1.554,1.554,0,0,0,.108.179h0c0,.031.051.062.077.092a1.374,1.374,0,0,1,.205.277.236.236,0,0,1,0,.251.62.62,0,0,0-.067.379,1.224,1.224,0,0,1-.113.672.651.651,0,0,1,.046.195,5.584,5.584,0,0,1,1.026-.154,20.779,20.779,0,0,1,4.072-.185l-.123-2.051a13.522,13.522,0,0,1-3.108,1.1c-1.287.215-1.354.262-2.19-1.026a.23.23,0,0,0,.01.169Z" transform="translate(-65.376 -78.167)" fill="#231f20"/>
              <path id="Shape-9" data-name="Shape" d="M107.467,114.572h.113a1.366,1.366,0,0,1-.092-.144.483.483,0,0,1-.046-.067,1.1,1.1,0,0,0,0,.174.072.072,0,0,0,.026.036Z" transform="translate(-65.062 -77.772)" fill="#231f20"/>
              <path id="Shape-10" data-name="Shape" d="M63.91,128.993h0c-.072-.092-1.19-3.149-1.287-3.421a5.022,5.022,0,0,0-.513.605c-.041.108-.133.128-.226.149h-.067a.3.3,0,0,0-.123.077.463.463,0,0,1-.169.108.176.176,0,0,1-.179,0,.518.518,0,0,1-.051.138,3.353,3.353,0,0,1,.251.379,1.975,1.975,0,0,1,.1.231.642.642,0,0,0,.1.205.442.442,0,0,0,.185.087.911.911,0,0,1,.2.077.245.245,0,0,1,.169.2.739.739,0,0,0,.041.108,1.127,1.127,0,0,0,.19.3.31.31,0,0,0,.041.041l.041.026h0c.072.036.262.133.41.226l.082.056.067.051.231.19.046.036.041.031h0l.031.026h0l.036.026h.272Z" transform="translate(-42.582 -83.234)" fill="#231f20"/>
              <path id="Shape-11" data-name="Shape" d="M122.325,96.689l-.215-.333a7.276,7.276,0,0,1-.169-2.477c1.026-.513,1.082-1.538,1.415-2.672s-.144-6.318-.174-7.8a27.65,27.65,0,0,0-.867-6.344c-.672-2.564-3.769-4.528-4.615-5.349a40.052,40.052,0,0,1-2.913-3.872c-.349-.482.067-2.051.621-3.59a7.148,7.148,0,0,0-.4-5.364,5.926,5.926,0,0,0-3.313-2.564c-.923-.441-5.082-.1-6.538,1.026s-.2,2.656-.236,2.713c-1.246,1.815-.513,2.974-.513,3.59s-.692,1.477-.754,2.318,1.092.067,1.092.338a.646.646,0,0,0,.313.631,2.2,2.2,0,0,1,.472.795c-.282.051,0,.631-.062,1.538s.728,1.144,2.005,1.21,1.436.513,1.5,1.087a1.211,1.211,0,0,1-.344,1.2,19.664,19.664,0,0,0-1.862,2.015c-.585.718-1.39,3.477-1.774,3.908s-.41.954-.995,1.241a2.469,2.469,0,0,0-1.262,1.072c-.2.462-.821-.026-1.195-.564s-.513-.877-.949-1.421a13.547,13.547,0,0,1-.933-2.369,2.564,2.564,0,0,1,.251-2.262.867.867,0,0,0-.3-1.195l.585-.231c.959,0,1.744-.574,1.667-1.5a1.605,1.605,0,0,0-.641-1.292,1.629,1.629,0,0,0-2.231.574c-.179.287-.364.118-.364.118a1.277,1.277,0,0,0-1.185-.513c-.482.092-.144.779-.144.779a.989.989,0,0,0-1.195.631.626.626,0,0,0-.687.59s-.036-.159-.426.072-.051,1.092-.051,1.092-2.564,1.774-3.226,2.087-.574.667-.964.877-.615.436-.359.949.554.369,1.026.185a1.638,1.638,0,0,1,.754-.215,25.377,25.377,0,0,0,3.379-1.872,2.275,2.275,0,0,0,.333.831A20.171,20.171,0,0,0,94.4,78.889c-.056.292,1.892,3.041,3.4,5.179a5.039,5.039,0,0,1,1.313.718,2.134,2.134,0,0,1,0,1.087l.026-.092-.031.185V86h0a.483.483,0,0,0,.046.067,1.367,1.367,0,0,0,.092.144h0a.138.138,0,0,1,.133.051.21.21,0,0,1,.046.113.454.454,0,0,1,0,.118h0c.836,1.272.9,1.226,2.19,1.026a13.522,13.522,0,0,0,3.108-1.1l.123,2.051a20.778,20.778,0,0,0-4.072.185,5.585,5.585,0,0,0-1.026.154.6.6,0,0,1-.031.292,4.193,4.193,0,0,1-.364.662.71.71,0,0,0,.574.205c.431-.067.308.164.21.246s-.19.226-.046.969,1.574,1.821,2.369,2.087,2.267-.728,2.267-.728a28.143,28.143,0,0,0,.369,4.9,59.732,59.732,0,0,0,7.795.621A33.1,33.1,0,0,0,122.325,96.689Z" transform="translate(-56.704 -49.407)" fill="#231f20"/>
              <path id="Shape-12" data-name="Shape" d="M81.648,114.309a5.126,5.126,0,0,0-.79-2.1.515.515,0,0,0,.226-.036c.082-.051.128.118.318.108a.74.74,0,0,0,.513-.41c.1-.205.374-.749.374-.749s.236.123.318.036.092-.231.082-.579a4.436,4.436,0,0,0-.036-.513h0a.672.672,0,0,0,.179-.344v-.2c0-.015.123-.19.246-.385a.482.482,0,0,1-.19-.554.864.864,0,0,1,.585-.4.651.651,0,0,0-.046-.195,1.224,1.224,0,0,0,.113-.672.62.62,0,0,1,.067-.379.236.236,0,0,0,0-.251,1.374,1.374,0,0,0-.205-.277c0-.031-.056-.062-.077-.092h0a1.554,1.554,0,0,1-.108-.179l-.056-.1h0a.231.231,0,0,1,0-.149l-.19-.292h-.108a.073.073,0,0,1-.051-.031,1.1,1.1,0,0,1,0-.174c-.313-.472-.79-1.159-1.328-1.928-.969-.426-2.123-.877-2.179-.892a1.794,1.794,0,0,1-.544-.205.758.758,0,0,0-.615-.154,1.758,1.758,0,0,1-.549,0,1.225,1.225,0,0,0,.138-.405c.062-.287,0-.333,0-.333a.416.416,0,0,0,.359-.431c0-.405.128-.79-.031-.882a.352.352,0,0,0-.149-.062h0a4.2,4.2,0,0,0-.108-1.369c-.641-1.472-3.682-1.092-3.779.569a2.421,2.421,0,0,0,.205,1.328s-.154.046,0,.513a1.421,1.421,0,0,0,.374.692c.062.051.215-.046.215-.046a2.283,2.283,0,0,0,.138.415.721.721,0,0,1,.077.282h0v.041a.429.429,0,0,1,0,.051.987.987,0,0,1-.195.313l-.308.282c-.036,0-.195-.036-.256.056a.129.129,0,0,1-.1.046c-.226-.451-.482-.805-.7-.81a3.088,3.088,0,0,1-.974-.277.616.616,0,0,0-.205-.887c-.564-.354-.872-.482-.713-1.056a2.74,2.74,0,0,0-.267-1.662c-.215-.692-.826-2.831-2.277-2.672h0A2.051,2.051,0,0,0,67.4,97.75c-.082.821-.236.779-.185,1.221s-.067.938-.072,1.662a2.785,2.785,0,0,1-.308,1.656,1.137,1.137,0,0,0-.2.867,2.4,2.4,0,0,0-.918.39.21.21,0,0,0-.1-.036h0a4.2,4.2,0,0,0-.108-1.369c-.646-1.472-3.687-1.092-3.779.569a2.421,2.421,0,0,0,.205,1.328s-.154.046,0,.513a1.421,1.421,0,0,0,.374.692c.062.051.215-.046.215-.046a2.283,2.283,0,0,0,.138.415.721.721,0,0,1,.077.282h0v.041a.426.426,0,0,1,0,.051,1.031,1.031,0,0,1-.2.313c-.144.138-.277.262-.308.282s-.195-.036-.251.056-.087.046-.159.051a.51.51,0,0,0-.308.1,2.651,2.651,0,0,1-.595.241,4.8,4.8,0,0,0-1.19.513h0a10.509,10.509,0,0,0-.99,1.174,10.083,10.083,0,0,1-.821.995,2,2,0,0,0-.467.718,3.147,3.147,0,0,1-.3.544c-.251.328-.123.349-.051.338a.665.665,0,0,0-.159.513h0a1.317,1.317,0,0,0,.036.159q.031.092.062.2a4.344,4.344,0,0,0,.513,1.1c.072.092.128.174.185.256a1.712,1.712,0,0,0,.369.615h0c.128.082.282.19.431.3a3.883,3.883,0,0,0,.867.513.34.34,0,0,1,.087.036l.133.087a8.91,8.91,0,0,1,.733.636.144.144,0,0,0,.067.077.088.088,0,0,0,.087,0h0a1.208,1.208,0,0,0,.3.215,2.107,2.107,0,0,1,.513.338,1.217,1.217,0,0,0,.585.338c.133,0,.174-.159.174-.159l.159.046-.031.862c7.179-2.472,13.492-2.313,19.431-1.621a9.868,9.868,0,0,0,.01-1.513Zm-19.862.241h-.272l-.036-.026h0l-.031-.026h0l-.041-.031-.046-.036-.231-.19-.067-.051-.082-.056c-.149-.092-.338-.19-.41-.226h0l-.041-.026a.31.31,0,0,1-.041-.041,1.126,1.126,0,0,1-.19-.3.738.738,0,0,1-.041-.108.245.245,0,0,0-.169-.2.911.911,0,0,0-.2-.077.442.442,0,0,1-.185-.087.642.642,0,0,1-.1-.205,1.975,1.975,0,0,0-.1-.231,3.352,3.352,0,0,0-.251-.379.518.518,0,0,0,.051-.138.176.176,0,0,0,.179,0,.463.463,0,0,0,.169-.108.3.3,0,0,1,.123-.077h.067a.228.228,0,0,0,.226-.149,5.022,5.022,0,0,1,.513-.605c.1.272,1.215,3.328,1.287,3.421h0Z" transform="translate(-40.459 -68.776)" fill="#231f20"/>
              <path id="Shape-13" data-name="Shape" d="M106.253,112.54v-.031l.031-.185-.026.092a2.134,2.134,0,0,0,0-1.087,5.039,5.039,0,0,0-1.313-.718c.513.769,1.026,1.456,1.328,1.928Z" transform="translate(-63.848 -75.945)" fill="#231f20"/>
              <path id="Shape-14" data-name="Shape" d="M107.944,115.062a.454.454,0,0,0,0-.118.21.21,0,0,0-.046-.113.138.138,0,0,0-.133-.051h0l.19.292Z" transform="translate(-65.221 -77.975)" fill="#231f20"/>
              <path id="Shape-15" data-name="Shape" d="M107.561,120.232a.482.482,0,0,0,.19.554,4.193,4.193,0,0,0,.364-.662.6.6,0,0,0,.031-.292.864.864,0,0,0-.585.4Z" transform="translate(-65.11 -80.437)" fill="#231f20"/>
            </g>
          </g>
        </g>
      </g>
    </g>
  </g>
</svg>
