<svg xmlns="http://www.w3.org/2000/svg" xmlns:xlink="http://www.w3.org/1999/xlink" width="100" height="100" viewBox="0 0 100 100">
  <defs>
    <linearGradient id="linear-gradient" x1="-1.069" y1="2.525" x2="-1.069" y2="2.53" gradientUnits="objectBoundingBox">
      <stop offset="0" stop-color="#edbc46"/>
      <stop offset="0.27" stop-color="#eda44c"/>
      <stop offset="0.61" stop-color="#c48031"/>
      <stop offset="0.8" stop-color="#d89d3b"/>
      <stop offset="1" stop-color="#ffed95"/>
    </linearGradient>
    <linearGradient id="linear-gradient-2" x1="-1.138" y1="2.629" x2="-1.133" y2="2.629" xlink:href="#linear-gradient"/>
    <radialGradient id="radial-gradient" cx="0.496" cy="0.505" r="0.499" gradientTransform="matrix(1, 0, 0, -1, 0, 5.472)" gradientUnits="objectBoundingBox">
      <stop offset="0" stop-color="#7d1416"/>
      <stop offset="0.09" stop-color="#981819"/>
      <stop offset="0.26" stop-color="#c61f1f"/>
      <stop offset="0.39" stop-color="#e22323"/>
      <stop offset="0.46" stop-color="#ed2524"/>
      <stop offset="0.87" stop-color="#ec1e24"/>
      <stop offset="0.89" stop-color="#db1c22"/>
      <stop offset="0.94" stop-color="#a41619"/>
      <stop offset="0.98" stop-color="#811214"/>
      <stop offset="1" stop-color="#741112"/>
    </radialGradient>
    <radialGradient id="radial-gradient-2" cx="0.5" cy="0.525" r="0.5" gradientTransform="matrix(0.006, -1, -1, -0.006, 1.578, 1.588)" gradientUnits="objectBoundingBox">
      <stop offset="0" stop-color="#5e0000"/>
      <stop offset="0.61" stop-color="#5e0000"/>
      <stop offset="0.87" stop-color="#5e0000"/>
      <stop offset="1" stop-color="#be1e2d"/>
    </radialGradient>
    <linearGradient id="linear-gradient-3" x1="-1.625" y1="4.274" x2="-1.618" y2="4.276" gradientUnits="objectBoundingBox">
      <stop offset="0" stop-color="#4d1211"/>
      <stop offset="0.02" stop-color="#521312"/>
      <stop offset="0.04" stop-color="#601414"/>
      <stop offset="0.06" stop-color="#781718"/>
      <stop offset="0.08" stop-color="#991b1d"/>
      <stop offset="0.11" stop-color="#c32024"/>
      <stop offset="0.12" stop-color="#d82327"/>
      <stop offset="0.29" stop-color="#ae524f"/>
      <stop offset="0.43" stop-color="#912829"/>
      <stop offset="0.5" stop-color="#851719"/>
      <stop offset="0.78" stop-color="#d52427"/>
    </linearGradient>
    <linearGradient id="linear-gradient-4" x1="-1.625" y1="4.278" x2="-1.62" y2="4.279" gradientUnits="objectBoundingBox">
      <stop offset="0" stop-color="#ff7b12"/>
      <stop offset="0.03" stop-color="#ff8011"/>
      <stop offset="0.06" stop-color="#ff8e0f"/>
      <stop offset="0.08" stop-color="#ffa60c"/>
      <stop offset="0.12" stop-color="#ffc607"/>
      <stop offset="0.12" stop-color="#ffc807"/>
      <stop offset="0.29" stop-color="#ffc807"/>
      <stop offset="0.31" stop-color="#ffc007"/>
      <stop offset="0.44" stop-color="#ff9209"/>
      <stop offset="0.5" stop-color="#ff810a"/>
      <stop offset="1" stop-color="#fe5b0a"/>
    </linearGradient>
    <linearGradient id="linear-gradient-5" x1="-8.458" y1="3.952" x2="-8.458" y2="3.952" gradientUnits="objectBoundingBox">
      <stop offset="0" stop-color="#9f1d21"/>
      <stop offset="0.12" stop-color="#a21e21"/>
      <stop offset="0.29" stop-color="#994845"/>
      <stop offset="0.6" stop-color="#7f2222"/>
      <stop offset="0.78" stop-color="#731112"/>
      <stop offset="0.85" stop-color="#761213"/>
      <stop offset="0.9" stop-color="#811517"/>
      <stop offset="0.96" stop-color="#931a1c"/>
      <stop offset="0.99" stop-color="#a21e21"/>
    </linearGradient>
  </defs>
  <g id="engaging-humor-path" transform="translate(50 50)">
    <g id="PathwaysPaths" transform="translate(-50 -50)">
      <g id="PathwaysPaths-Copy">
        <g id="EngagingHumorPath">
          <g id="Group_5154" data-name="Group 5154">
            <circle id="Oval" cx="50" cy="50" r="50" fill="url(#linear-gradient)"/>
            <path id="Shape" d="M99.873,52.311A47.563,47.563,0,1,1,85.944,18.675,47.565,47.565,0,0,1,99.873,52.311Z" transform="translate(-2.312 -2.31)" fill="url(#linear-gradient-2)"/>
            <circle id="Oval-2" data-name="Oval" cx="45.246" cy="45.246" r="45.246" transform="translate(4.643 4.862)" fill="url(#radial-gradient)"/>
            <circle id="Oval-3" data-name="Oval" cx="39.682" cy="39.682" r="39.682" transform="translate(10.995 9.973)" fill="url(#radial-gradient-2)"/>
            <g id="Group" transform="translate(12.72 22.057)">
              <g id="Shape-2" data-name="Shape" transform="translate(2.611 2.615)" opacity="0.75">
                <path id="Path_73152" data-name="Path 73152" d="M35.015,58.841s3.133-5.436,16.226-7.179c13.19-1.754,22.374,4.287,38.169,1.887,5.569-.846,9.718-1.795,10.769-5.087l9.3,41.092A31.394,31.394,0,0,1,88.6,97.108c-13.19,0-25.872-7.026-44.554,5.067Z" transform="translate(-32.39 -48.283)" fill="#231f20"/>
                <path id="Path_73153" data-name="Path 73153" d="M34.935,58.486s3.133-5.436,16.226-7.179C64.345,49.558,73.535,55.6,89.325,53.2c5.574-.846,9.744-1.8,10.769-5.087l9.3,41.087a31.389,31.389,0,0,1-20.877,7.554c-13.185,0-25.872-7.021-44.554,5.067Z" transform="translate(-32.351 -48.112)" fill="#231f20"/>
                <path id="Path_73154" data-name="Path 73154" d="M42.981,116.657,32.157,64.577s-.318-.513-1.349-.282-.908.841-.908.841l10.342,51.87c0,.2.482.426,1.631.241A1.62,1.62,0,0,0,42.981,116.657Z" transform="translate(-29.896 -55.967)" fill="#231f20"/>
                <path id="Path_73155" data-name="Path 73155" d="M40.615,111.51c.662-.154,1.205-.185,1.256-.062L32.831,68h0c-.092-.164-.605-.185-1.195-.036s-1.087.431-1.026.621l8.831,43.5C39.41,111.956,39.938,111.669,40.615,111.51Z" transform="translate(-30.241 -57.736)" fill="#231f20"/>
                <path id="Path_73156" data-name="Path 73156" d="M107.2,71.629c-1.026-.133-7.39-1.154-7.841-1.2s-.867-.087-1.3-.149c-1.764-.236-3.544-.446-5.292-.774-.579-.113-1.159-.236-1.733-.374-.815-.2-1.626-.41-2.431-.636s-1.61-.456-2.415-.692L83.8,67.1v.108a.685.685,0,0,1-.082.446l-.133.682s-.154.692-.19,1.026a9.342,9.342,0,0,1-.149.99A9.879,9.879,0,0,1,81.6,74.1l-.128.179a3.547,3.547,0,0,1-.3.359,2.65,2.65,0,0,1-1.026.728.6.6,0,0,1-.267,0,.75.75,0,0,1-.451-.349,3.447,3.447,0,0,1-.4-.846c-.267-.738-.472-1.5-.779-2.5.415.251.749.451,1.026.6a1.982,1.982,0,0,0,.851.308.517.517,0,0,0,.292-.072,1.164,1.164,0,0,0,.374-.426,8.425,8.425,0,0,0,.405-.826l.164-.374a10.584,10.584,0,0,0,.713-2.462l.128-.8c-.041-.287.133-.456.072-.749h0a.087.087,0,0,0,.072-.046l.036-.169-1.026-.313-.262-.072-.477-.128c-.215-.051-.431-.113-.636-.179a3.674,3.674,0,0,1-.626-.262,1.579,1.579,0,0,1-.467-.385,20.677,20.677,0,0,0-3.544-3.292c-.513-.395-1.026-.785-1.538-1.19-.251-.2-.513-.4-.749-.61-.441-.379-.872-.769-1.308-1.159s-.862-.779-1.3-1.159c-.123-.1-.236-.19-.349-.272a3.148,3.148,0,0,0-.318-.2,1.731,1.731,0,0,0-.528-.21,1.02,1.02,0,0,0-.513.046,1.22,1.22,0,0,0-.441.292,1.725,1.725,0,0,0,.067,2.41,5.236,5.236,0,0,0,.513.564c.179.174.369.344.559.513s.513.4.744.59.513.385.733.595h0a1.361,1.361,0,0,1,.149.154.8.8,0,0,1,.256.544.422.422,0,0,1-.179.313,1.424,1.424,0,0,1-.456.195,16.5,16.5,0,0,1-3.354.482c-1.538.072-3.128.113-4.7.159l-2.344.082c-.785,0-1.538.062-2.349.108a1.029,1.029,0,0,0-.21,0,2.4,2.4,0,0,0-.656.256,2.116,2.116,0,0,0-.379.277,1.363,1.363,0,0,0-.144.159.766.766,0,0,0-.1.164h0a.515.515,0,0,0,0,.292,4.112,4.112,0,0,0,.374.836,4.717,4.717,0,0,1,.205.441c-.323.164-.821.221-1.226.405a1.056,1.056,0,0,0-.687,1.149.483.483,0,0,0,.159.287,3.628,3.628,0,0,0,.59.431l.246.149a5.207,5.207,0,0,1,.477.328,5.856,5.856,0,0,0,.036.764.892.892,0,0,0,0,.128.514.514,0,0,0,.092.195.459.459,0,0,0,.159.133,1.03,1.03,0,0,0,.251.082h.164l.421.036h0l.564.031c.359,0,.718.041,1.082.067l1.077.077c0,.149-.036.287-.041.41a1.713,1.713,0,0,0,.056.631c.138.431.513.641,1.328.815a9.447,9.447,0,0,0,2.051.221,10.539,10.539,0,0,0,1.067-.036l1.538-.082c.513,0,1.026-.046,1.538-.036h.077c.564,0,1.128.031,1.687.051,1.687.072,3.369.179,5.056.272a.327.327,0,0,1,.164.056l.154.087c-.241,2.344-.113,3.867.415,4.913a3.373,3.373,0,0,0,.554.785,4.063,4.063,0,0,0,1.21.846,12.252,12.252,0,0,0,2.344.764q-1.677.046-3.359.067l-3.359.036h-.856a6.787,6.787,0,0,0-1.338,0,6.281,6.281,0,0,0-1.246.277,7.085,7.085,0,0,0-1.513.7c-.174.108-.349.221-.513.344A9.879,9.879,0,0,0,66.268,83.1c-.082.082-.164.159-.241.241a5.424,5.424,0,0,0-.426.513,6.366,6.366,0,0,0-.836,1.713,7.587,7.587,0,0,0-.308,3.995l3.954,1.364a9.462,9.462,0,0,1-2.472,3.21,5.359,5.359,0,0,1-.723.436c-.144.072-.287.149-.446.21a2.309,2.309,0,0,1-.287-.456,26.036,26.036,0,0,1-1.026-5.344,13.226,13.226,0,0,1,0-1.626,12,12,0,0,1,.19-1.641,5.84,5.84,0,0,1,.3-1.026,3.87,3.87,0,0,1,.841-1.328,3.581,3.581,0,0,1,1.421-.872.5.5,0,0,0,.113-.062.975.975,0,0,0,.118-.092c.082-.072.174-.159.3-.256a3.361,3.361,0,0,1-.395-.041.718.718,0,0,0-.256,0h0l-4.431,1.123L57.221,84.27l-1.231.308c-.226.056-.456.1-.687.149s-.467.082-.7.118l-.81.113-.595.067c-.559.062-1.123.113-1.687.149s-1.123.072-1.687.1a5.787,5.787,0,0,1-1.862-.067,17.31,17.31,0,0,1-2.9-1.179,2.37,2.37,0,0,1-.323-.195,3.41,3.41,0,0,1-.431-.385,3.146,3.146,0,0,1-.236-.287,1.816,1.816,0,0,1-.118-.169c-.379-.636-.585-1.246-.933-1.9s-.636-1.195-.979-1.851l-1.482-3.421,4.708,23.236a2.322,2.322,0,0,0,1.538.677q1.467,0,2.954-.108c2.436-.185,4.867-.431,7.3-.7l2.426-.267c1.415-.159,2.826-.344,4.236-.513s2.821-.369,4.236-.538a1.664,1.664,0,0,0,.431-.108,1.062,1.062,0,0,0,.636-.9c.067-.456.138-.913.2-1.364s.123-.913.169-1.369.072-.795.1-1.2.046-.821.072-1.246c1.185.451,2.154,1.133,3.118,1.128,2.323,0,4.451,1.713,6.846.692a.142.142,0,0,1,.092,0c.215.072.436.133.656.19a27.833,27.833,0,0,1,3.323.774,4.894,4.894,0,0,1,1.221.667,2.016,2.016,0,0,0,.9.282,1.071,1.071,0,0,0,.338,0,.863.863,0,0,0,.7-.585.826.826,0,0,0-.087-.656c0-.046-.051-.082-.072-.128a5.493,5.493,0,0,0-.446-.662,4.747,4.747,0,0,0-.641-.682c-.682-.579-1.41-1.1-2.128-1.636-.236-.179-.477-.359-.708-.544q-3.123-2.452-6.221-4.933c-.385-.308-.738-.656-1.108-.99l.138-.267,1.077-.046c.359,0,.723-.036,1.077-.067.677-.067,1.369-.108,2.051-.226.221-.041.441-.092.656-.154a2.129,2.129,0,0,0,.39-.159,2.806,2.806,0,0,0,.7-.549,2.559,2.559,0,0,0,.256-.333.788.788,0,0,0,.1-.313v-.185a3.69,3.69,0,0,0-.036-.615,1.832,1.832,0,0,1,0-.446c2.677.426,5.426.836,8.169,1.308,1.708.292,3.405.641,5.128.964q.852.158,1.708.308c.605.1,1.21.215,1.821.333l.913.128c.605.113,1.215.221,1.821.313s8.169,1.338,9.087,1.446Z" transform="translate(-35.094 -52.542)" fill="#231f20"/>
              </g>
              <path id="Shape-3" data-name="Shape" d="M29.915,53.741s3.138-5.431,16.231-7.179C59.33,44.808,68.52,50.849,84.31,48.449c5.569-.846,9.744-1.795,10.769-5.087l9.318,41.1A31.378,31.378,0,0,1,83.52,92.018c-13.185,0-25.877-7.046-44.559,5.062Z" transform="translate(-27.295 -43.183)" fill="url(#linear-gradient-3)"/>
              <path id="Shape-4" data-name="Shape" d="M29.835,53.391s3.138-5.436,16.226-7.179C59.25,44.458,68.435,50.5,84.23,48.1,89.8,47.253,93.973,46.3,95,43.012L104.3,84.1a31.394,31.394,0,0,1-20.882,7.554c-13.19,0-25.851-7.021-44.523,5.072Z" transform="translate(-27.256 -43.012)" fill="url(#linear-gradient-4)"/>
              <g id="Group-31" transform="translate(12.149 9.995)">
                <path id="Shape-5" data-name="Shape" d="M103.117,85.391a.521.521,0,0,1-.523-.268.49.49,0,0,1,.079-.566,2.51,2.51,0,0,1,.227-.229,7.027,7.027,0,0,1,5.511-1.987l.384-2.8a.515.515,0,0,1,.434-.437,10.472,10.472,0,0,0,3.677-1.242c-2.553-5.584-2.07-12.757-1.853-14.854-5.412-.666-10.843-.735-13.416.169l-.177.994a43.051,43.051,0,0,0-.828,12.469c.67,6.081,3.273,10.472,7.728,13.075a8.593,8.593,0,0,0,2.957.994l.719-5.316A19.494,19.494,0,0,0,103.117,85.391Zm-1.883-15.36a.5.5,0,0,1,.256-.457.538.538,0,0,1,.532,0l.217.129a6.343,6.343,0,0,0,4.732.606l.217-.059a.53.53,0,0,1,.523.119.49.49,0,0,1,.128.507,3.055,3.055,0,0,1-3.066,1.987,4.275,4.275,0,0,1-.513,0,3.184,3.184,0,0,1-3.026-2.831Z" transform="translate(-71.88 -62.501)" fill="#231f20"/>
                <path id="Shape-6" data-name="Shape" d="M124.24,78.12a.486.486,0,0,1-.109.575,9.433,9.433,0,0,1-4.157,1.655l-.337,2.468a7.064,7.064,0,0,1,4.4,3.241l.178.317a.5.5,0,0,1-.07.565.536.536,0,0,1-.387.159.582.582,0,0,1-.189,0,22.561,22.561,0,0,0-4.346-1.179l-.724,5.263a8.569,8.569,0,0,0,2.738-.3c4.961-1.368,8.671-4.955,10.973-10.7a43.92,43.92,0,0,0,2.61-12.259,7.268,7.268,0,0,1,.089-.912c-2.282-1.526-7.332-2.765-12.6-3.508C122.106,65.6,121.64,72.828,124.24,78.12Zm.377-6.373a.518.518,0,0,1,.536,0l.218.129h0a6.435,6.435,0,0,0,4.763.6l.218-.069a.537.537,0,0,1,.526.119.486.486,0,0,1,.129.506,3.065,3.065,0,0,1-3.085,1.982,4.557,4.557,0,0,1-.516,0,3.2,3.2,0,0,1-3.046-2.785.485.485,0,0,1,.258-.486Z" transform="translate(-82.598 -62.989)" fill="#231f20"/>
                <path id="Shape-7" data-name="Shape" d="M62.648,98.684a9.345,9.345,0,0,1-4.7-2.872.5.5,0,0,1-.059-.584.528.528,0,0,1,.559-.218,16.909,16.909,0,0,0,5.319.268l-.412-2.971a9.292,9.292,0,0,1-4.122-1.644.489.489,0,0,1-.118-.565c2.542-5.308,2.042-12.517,1.826-14.6-5.2.752-10.217,2.05-12.445,3.535,0,.258.059.565.1.921a44,44,0,0,0,2.679,12.25c2.316,5.734,5.987,9.3,10.924,10.685a8.369,8.369,0,0,0,2.709.287l-.6-4.248h-.117A5.881,5.881,0,0,1,62.648,98.684ZM53.373,86.395a1.509,1.509,0,0,0-.206.138.545.545,0,0,1-.3.089.515.515,0,0,1-.511-.515,3.419,3.419,0,0,1,6.576-.882.487.487,0,0,1-.137.505.535.535,0,0,1-.53.109l-.216-.069A5.706,5.706,0,0,0,53.373,86.395Z" transform="translate(-48.495 -68.835)" fill="#231f20"/>
                <path id="Shape-8" data-name="Shape" d="M70.5,88.936a10.356,10.356,0,0,0,3.693,1.218.5.5,0,0,1,.434.426l.484,3.309a16.967,16.967,0,0,0,5.471-1.744.542.542,0,0,1,.6.07.5.5,0,0,1,.109.584,9.289,9.289,0,0,1-3.772,3.963,6.067,6.067,0,0,1-1.887.713l.6,4.231a8.761,8.761,0,0,0,2.9-1.061c4.454-2.625,7.031-7.024,7.653-13.088a42.866,42.866,0,0,0-.9-12.424c-.069-.387-.138-.713-.188-.991-2.577-.892-8.018-.793-13.44-.089C72.48,76.2,73.013,83.348,70.5,88.936Zm8.888-8.917a3.218,3.218,0,0,1,3.624,2.1.486.486,0,0,1-.138.505.542.542,0,0,1-.533.109l-.217-.069a5.819,5.819,0,0,0-4.7.624h0l-.207.138a.551.551,0,0,1-.306.089.519.519,0,0,1-.237-.059.476.476,0,0,1-.276-.446A3.265,3.265,0,0,1,79.333,80Z" transform="translate(-59.213 -67.86)" fill="#231f20"/>
              </g>
              <path id="Shape-9" data-name="Shape" d="M26.947,59.322s-.2-.37-1.234-.134-.9.836-.9.836l10.837,54.855c-.513.2.477.431,1.631.241a1.633,1.633,0,0,0,1.108-.585Z" transform="translate(-24.805 -50.854)" fill="url(#linear-gradient-5)"/>
              <path id="Shape-10" data-name="Shape" d="M35.525,106.418c.667-.154,1.21-.185,1.256-.062L27.745,62.91h0c-.087-.169-.6-.185-1.19-.041s-1.087.431-1.026.621l8.821,43.5C34.325,106.864,34.853,106.577,35.525,106.418Z" transform="translate(-25.156 -52.638)" fill="#f57723"/>
            </g>
          </g>
        </g>
      </g>
    </g>
  </g>
</svg>
