<svg xmlns="http://www.w3.org/2000/svg" xmlns:xlink="http://www.w3.org/1999/xlink" width="100" height="100" viewBox="0 0 100 100">
  <defs>
    <linearGradient id="linear-gradient" x1="-1.072" y1="2.523" x2="-1.072" y2="2.528" gradientUnits="objectBoundingBox">
      <stop offset="0" stop-color="#edbc46"/>
      <stop offset="0.27" stop-color="#eda44c"/>
      <stop offset="0.61" stop-color="#c48031"/>
      <stop offset="0.8" stop-color="#d89d3b"/>
      <stop offset="1" stop-color="#ffed95"/>
    </linearGradient>
    <linearGradient id="linear-gradient-2" x1="-1.141" y1="2.626" x2="-1.135" y2="2.626" xlink:href="#linear-gradient"/>
    <radialGradient id="radial-gradient" cx="0.488" cy="0.507" r="0.499" gradientTransform="matrix(1, 0, 0, -1, 0, 5.467)" gradientUnits="objectBoundingBox">
      <stop offset="0" stop-color="#7d1416"/>
      <stop offset="0.09" stop-color="#981819"/>
      <stop offset="0.26" stop-color="#c61f1f"/>
      <stop offset="0.39" stop-color="#e22323"/>
      <stop offset="0.46" stop-color="#ed2524"/>
      <stop offset="0.87" stop-color="#ec1e24"/>
      <stop offset="0.89" stop-color="#db1c22"/>
      <stop offset="0.94" stop-color="#a41619"/>
      <stop offset="0.98" stop-color="#811214"/>
      <stop offset="1" stop-color="#741112"/>
    </radialGradient>
    <radialGradient id="radial-gradient-2" cx="0.5" cy="0.513" r="0.5" gradientTransform="matrix(0.006, -1, -1, -0.006, 1.572, 1.582)" gradientUnits="objectBoundingBox">
      <stop offset="0" stop-color="#5e0000"/>
      <stop offset="0.61" stop-color="#5e0000"/>
      <stop offset="0.87" stop-color="#5e0000"/>
      <stop offset="1" stop-color="#be1e2d"/>
    </radialGradient>
    <linearGradient id="linear-gradient-3" x1="-1.629" y1="4.27" x2="-1.622" y2="4.272" gradientUnits="objectBoundingBox">
      <stop offset="0" stop-color="#4d1211"/>
      <stop offset="0.02" stop-color="#521312"/>
      <stop offset="0.04" stop-color="#601414"/>
      <stop offset="0.06" stop-color="#781718"/>
      <stop offset="0.08" stop-color="#991b1d"/>
      <stop offset="0.11" stop-color="#c32024"/>
      <stop offset="0.12" stop-color="#d82327"/>
      <stop offset="0.29" stop-color="#ae524f"/>
      <stop offset="0.43" stop-color="#912829"/>
      <stop offset="0.5" stop-color="#851719"/>
      <stop offset="0.78" stop-color="#d52427"/>
    </linearGradient>
    <linearGradient id="linear-gradient-4" x1="-1.628" y1="4.274" x2="-1.621" y2="4.275" gradientUnits="objectBoundingBox">
      <stop offset="0" stop-color="#006d92"/>
      <stop offset="0.04" stop-color="#007295"/>
      <stop offset="0.07" stop-color="#00809f"/>
      <stop offset="0.11" stop-color="#0098af"/>
      <stop offset="0.12" stop-color="#0099b0"/>
      <stop offset="0.29" stop-color="#6ac9c8"/>
      <stop offset="0.37" stop-color="#3fb5be"/>
      <stop offset="0.46" stop-color="#11a1b4"/>
      <stop offset="0.5" stop-color="#0099b0"/>
      <stop offset="0.7" stop-color="#006d92"/>
    </linearGradient>
    <linearGradient id="linear-gradient-5" x1="-8.414" y1="3.895" x2="-8.413" y2="3.895" gradientUnits="objectBoundingBox">
      <stop offset="0" stop-color="#9f1d21"/>
      <stop offset="0.12" stop-color="#a21e21"/>
      <stop offset="0.29" stop-color="#994845"/>
      <stop offset="0.6" stop-color="#7f2222"/>
      <stop offset="0.78" stop-color="#731112"/>
      <stop offset="0.85" stop-color="#761213"/>
      <stop offset="0.9" stop-color="#811517"/>
      <stop offset="0.96" stop-color="#931a1c"/>
      <stop offset="0.99" stop-color="#a21e21"/>
    </linearGradient>
  </defs>
  <g id="innovative-planning-path" transform="translate(50 50)">
    <g id="PathwaysPaths" transform="translate(-50 -50)">
      <g id="PathwaysPaths-Copy">
        <g id="InnovativePlanningPath">
          <g id="Innovative-Planning-Path-2" data-name="Innovative-Planning-Path">
            <circle id="Oval" cx="50" cy="50" r="50" fill="url(#linear-gradient)"/>
            <path id="Shape" d="M99.871,52.305A47.559,47.559,0,1,1,85.942,18.672,47.564,47.564,0,0,1,99.871,52.305Z" transform="translate(-2.31 -2.31)" fill="url(#linear-gradient-2)"/>
            <circle id="Oval-2" data-name="Oval" cx="45.246" cy="45.246" r="45.246" transform="translate(4.643 4.862)" fill="url(#radial-gradient)"/>
            <circle id="Oval-3" data-name="Oval" cx="39.682" cy="39.682" r="39.682" transform="translate(10.991 9.975)" fill="url(#radial-gradient-2)"/>
            <g id="Group" transform="translate(12.72 22.052)">
              <g id="Shape-2" data-name="Shape" transform="translate(2.611 2.605)" opacity="0.75">
                <path id="Path_73157" data-name="Path 73157" d="M34.994,58.83S38.127,53.4,51.22,51.651c13.19-1.754,22.374,4.287,38.169,1.887,5.569-.846,9.718-1.795,10.769-5.087l9.3,41.087A31.384,31.384,0,0,1,88.579,97.1c-13.19,0-25.872-7.026-44.554,5.062Z" transform="translate(-32.379 -48.261)" fill="#231f20"/>
                <path id="Path_73158" data-name="Path 73158" d="M34.934,58.471s3.133-5.436,16.226-7.179c13.185-1.749,22.374,4.292,38.164,1.877,5.574-.846,9.744-1.795,10.769-5.087l9.3,41.092a31.238,31.238,0,0,1-20.856,7.585c-13.185,0-25.877-7.041-44.554,5.051Z" transform="translate(-32.35 -48.081)" fill="#231f20"/>
                <path id="Path_73159" data-name="Path 73159" d="M32.156,64.569s-.318-.513-1.349-.277-.908.846-.908.846L39.579,117.9c0,.2.367.19,1.516,0,.774-.128,1.118-.349,1.118-.549Z" transform="translate(-29.895 -55.948)" fill="#231f20"/>
                <path id="Path_73160" data-name="Path 73160" d="M40.639,111.524c.662-.154,1.205-.185,1.256-.062L32.88,68h0c-.092-.164-.605-.185-1.195-.041s-1.087.436-1.026.621l8.862,43.5C39.433,111.955,39.962,111.667,40.639,111.524Z" transform="translate(-30.265 -57.719)" fill="#231f20"/>
                <path id="Path_73161" data-name="Path 73161" d="M99.492,71.891h-.718v.569h.651a3.807,3.807,0,0,0,.067-.569Z" transform="translate(-63.451 -59.681)" fill="#231f20"/>
                <path id="Path_73162" data-name="Path 73162" d="M98.774,74.391a1.286,1.286,0,0,0,.569-.8h-.569Z" transform="translate(-63.451 -60.509)" fill="#231f20"/>
                <path id="Path_73163" data-name="Path 73163" d="M99.425,70.191h-.651v.559h.718a3.587,3.587,0,0,0-.067-.559Z" transform="translate(-63.451 -58.853)" fill="#231f20"/>
                <path id="Path_73164" data-name="Path 73164" d="M99.924,74.263a1.868,1.868,0,0,0,.8-.672h-.513A2.279,2.279,0,0,1,99.924,74.263Z" transform="translate(-64.012 -60.509)" fill="#231f20"/>
                <path id="Path_73165" data-name="Path 73165" d="M100.664,72.47h.59a2.082,2.082,0,0,0,.138-.559h-.667A4.877,4.877,0,0,1,100.664,72.47Z" transform="translate(-64.372 -59.69)" fill="#231f20"/>
                <path id="Path_73166" data-name="Path 73166" d="M98.774,68V68.8h.569A1.253,1.253,0,0,0,98.774,68Z" transform="translate(-63.451 -57.786)" fill="#231f20"/>
                <path id="Path_73167" data-name="Path 73167" d="M99.924,68.261a2.261,2.261,0,0,1,.3.672h.513a1.865,1.865,0,0,0-.815-.672Z" transform="translate(-64.012 -57.912)" fill="#231f20"/>
                <path id="Path_73168" data-name="Path 73168" d="M100.726,70.75h.667a2,2,0,0,0-.138-.559h-.59a4.634,4.634,0,0,1,.062.559Z" transform="translate(-64.372 -58.853)" fill="#231f20"/>
                <path id="Path_73169" data-name="Path 73169" d="M95.572,70.191h-.59a1.964,1.964,0,0,0-.138.559h.672a3.715,3.715,0,0,1,.056-.559Z" transform="translate(-61.537 -58.853)" fill="#231f20"/>
                <path id="Path_73170" data-name="Path 73170" d="M95.516,71.891h-.672a2.041,2.041,0,0,0,.138.569h.59a3.858,3.858,0,0,1-.056-.569Z" transform="translate(-61.537 -59.681)" fill="#231f20"/>
                <path id="Path_73171" data-name="Path 73171" d="M96.234,68.261a1.855,1.855,0,0,0-.8.672h.513A2.241,2.241,0,0,1,96.234,68.261Z" transform="translate(-61.824 -57.912)" fill="#231f20"/>
                <path id="Path_73172" data-name="Path 73172" d="M95.444,73.591a1.861,1.861,0,0,0,.795.672,2.242,2.242,0,0,1-.3-.672Z" transform="translate(-61.829 -60.509)" fill="#231f20"/>
                <path id="Path_73173" data-name="Path 73173" d="M97.618,74.391v-.8h-.574a1.266,1.266,0,0,0,.574.8Z" transform="translate(-62.609 -60.509)" fill="#231f20"/>
                <path id="Path_73174" data-name="Path 73174" d="M97.044,68.806h.574V68A1.233,1.233,0,0,0,97.044,68.806Z" transform="translate(-62.609 -57.786)" fill="#231f20"/>
                <path id="Path_73175" data-name="Path 73175" d="M95.793,61.181a12.307,12.307,0,0,0-11.359,9.426H95.793Zm-4.164,7.508A2.175,2.175,0,1,1,93.8,66.514a2.175,2.175,0,0,1-2.174,2.174Z" transform="translate(-56.465 -54.463)" fill="#231f20"/>
                <path id="Path_73176" data-name="Path 73176" d="M96.826,72.46h.656v-.569h-.718a3.666,3.666,0,0,0,.062.569Z" transform="translate(-62.472 -59.681)" fill="#231f20"/>
                <path id="Path_73177" data-name="Path 73177" d="M96.764,70.75h.718v-.559h-.656A3.524,3.524,0,0,0,96.764,70.75Z" transform="translate(-62.472 -58.853)" fill="#231f20"/>
                <path id="Path_73178" data-name="Path 73178" d="M95.487,81.611H83.928A12.178,12.178,0,0,0,87.3,91.867H95.5Zm-7.215,6.805h-.954V85.657h.954Zm1.344,0h-.954v-1.99h.954Zm1.344,0H90v-3.2h.954Zm1.338,0h-.949v-4.2H92.3Z" transform="translate(-56.159 -64.416)" fill="#231f20"/>
                <path id="Path_73179" data-name="Path 73179" d="M94.691,112.157a.943.943,0,0,0,.944.938h4.046v-9.374H92.414a11,11,0,0,1,2.277,6.667Zm.826-6.308a.466.466,0,0,1,.467-.467h2.051a.467.467,0,0,1,.467.467V108.7a.467.467,0,0,1-.467.467H95.983a.467.467,0,0,1-.467-.467Z" transform="translate(-60.353 -75.188)" fill="#231f20"/>
                <path id="Path_73180" data-name="Path 73180" d="M99.267,110.728h2.051a.118.118,0,0,0,.118-.118v-2.846a.112.112,0,0,0-.118-.113H99.267a.112.112,0,0,0-.113.113v2.846a.112.112,0,0,0,.113.118Zm.195-2.682h1.2v.354h-1.2Zm0,.646h1.662v.349H99.482Zm0,.641h1.662v.354H99.482Z" transform="translate(-63.636 -77.102)" fill="#231f20"/>
                <path id="Path_73181" data-name="Path 73181" d="M108.644,61.181v9.426h11.369a12.225,12.225,0,0,0-11.369-9.426Zm7.108,4.933a.569.569,0,1,1-.564.569.569.569,0,0,1,.564-.569Zm-2.395-.862a.866.866,0,1,1-.806.411A.866.866,0,0,1,113.357,65.253Zm-2.4.862a.569.569,0,1,1-.569.569A.569.569,0,0,1,110.957,66.114Zm-.9,1.641a.441.441,0,0,1,.441-.436h.923a.436.436,0,0,1,.436.436Zm1.933,0a.667.667,0,0,1,.667-.667h1.4a.667.667,0,0,1,.667.667Zm2.867,0a.435.435,0,0,1,.441-.436h.918a.436.436,0,0,1,.441.436Z" transform="translate(-68.26 -54.463)" fill="#231f20"/>
                <path id="Path_73182" data-name="Path 73182" d="M108.644,113.09h4.046a.944.944,0,0,0,.944-.944V110.46a11.177,11.177,0,0,1,2.292-6.749h-7.282Zm1.626-6.154a.61.61,0,0,1,.256.062.964.964,0,0,1,1.923.108.482.482,0,1,1,0,.964H110.27a.569.569,0,1,1,0-1.133Z" transform="translate(-68.26 -75.183)" fill="#231f20"/>
                <path id="Path_73183" data-name="Path 73183" d="M116.762,91.832a.129.129,0,0,1-.1.051.128.128,0,0,1-.1-.051L116,91.191l-1.164,1.344a.469.469,0,0,0,.251.077h3.149a.516.516,0,0,0,.256-.077l-1.169-1.344Z" transform="translate(-71.276 -69.083)" fill="#231f20"/>
                <path id="Path_73184" data-name="Path 73184" d="M119.994,89.5l1.169,1.349a.445.445,0,0,0,.046-.2V88.356a.464.464,0,0,0-.046-.205Z" transform="translate(-73.789 -67.602)" fill="#231f20"/>
                <path id="Path_73185" data-name="Path 73185" d="M120.208,81.611H108.644V91.9h8.205l.036-.041a12.178,12.178,0,0,0,3.446-8.508,12.016,12.016,0,0,0-.123-1.738Zm-4.236,5.841a.754.754,0,0,1-.754.754H112.07a.755.755,0,0,1-.754-.754V85.17a.755.755,0,0,1,.754-.759h3.149a.754.754,0,0,1,.754.759Z" transform="translate(-68.26 -64.416)" fill="#231f20"/>
                <path id="Path_73186" data-name="Path 73186" d="M118.52,87.683a.509.509,0,0,0-.256-.072h-3.149a.462.462,0,0,0-.251.072l1.826,2.108Z" transform="translate(-71.29 -67.339)" fill="#231f20"/>
                <path id="Path_73187" data-name="Path 73187" d="M114.435,88.151a.529.529,0,0,0-.041.205v2.282a.508.508,0,0,0,.041.2l1.169-1.349Z" transform="translate(-71.061 -67.602)" fill="#231f20"/>
                <path id="Path_73188" data-name="Path 73188" d="M107.06,123.141H97.665a.831.831,0,1,0,0,1.662h9.395a.831.831,0,0,0,0-1.662Z" transform="translate(-62.506 -84.649)" fill="#231f20"/>
                <path id="Path_73189" data-name="Path 73189" d="M107.06,127.511H97.665a.831.831,0,1,0,0,1.662h9.395a.831.831,0,0,0,0-1.662Z" transform="translate(-62.506 -86.778)" fill="#231f20"/>
                <path id="Path_73190" data-name="Path 73190" d="M106.814,131.881h-6.379a.831.831,0,1,0,0,1.662h6.379a.831.831,0,1,0,0-1.662Z" transform="translate(-63.856 -88.907)" fill="#231f20"/>
              </g>
              <path id="Shape-3" data-name="Shape" d="M29.914,53.75s3.118-5.436,16.231-7.174c13.185-1.749,22.374,4.3,38.169,1.892,5.569-.846,9.744-1.8,10.769-5.087l9.3,41.087A31.389,31.389,0,0,1,83.5,92.022c-13.185,0-25.856-7.021-44.544,5.067Z" transform="translate(-27.294 -43.186)" fill="url(#linear-gradient-3)"/>
              <path id="Shape-4" data-name="Shape" d="M29.834,53.38S32.972,47.95,46.06,46.2c13.19-1.754,22.374,4.287,38.169,1.887C89.8,47.242,93.972,46.293,95,43l9.3,41.087a31.384,31.384,0,0,1-20.882,7.559c-13.19,0-25.872-7.026-44.554,5.062Z" transform="translate(-27.255 -43.001)" fill="url(#linear-gradient-4)"/>
              <path id="Shape-5" data-name="Shape" d="M27.066,59.476s-.323-.513-1.354-.282-.9.841-.9.841l10.936,55.629c0,.2.477.431,1.631.241.774-.128,1.113-.349,1.113-.549Q38.49,115.342,27.066,59.476Z" transform="translate(-24.804 -50.861)" fill="url(#linear-gradient-5)"/>
              <path id="Shape-6" data-name="Shape" d="M35.509,106.4c.667-.154,1.21-.19,1.256-.067L27.744,62.872h0c-.087-.164-.6-.185-1.19-.036s-1.087.431-1.026.621l8.821,43.518C34.324,106.846,34.852,106.554,35.509,106.4Z" transform="translate(-25.155 -52.615)" fill="#006d92"/>
              <path id="Shape-7" data-name="Shape" d="M94.392,66.791h-.718v.559h.677A3.142,3.142,0,0,0,94.392,66.791Z" transform="translate(-58.356 -54.591)" fill="#fff"/>
              <path id="Shape-8" data-name="Shape" d="M93.674,69.291a1.27,1.27,0,0,0,.574-.8h-.574Z" transform="translate(-58.356 -55.419)" fill="#fff"/>
              <path id="Shape-9" data-name="Shape" d="M94.351,65.091h-.677v.559h.718a3.188,3.188,0,0,0-.041-.559Z" transform="translate(-58.356 -53.763)" fill="#fff"/>
              <path id="Shape-10" data-name="Shape" d="M94.824,69.168a1.857,1.857,0,0,0,.805-.677h-.513A2.321,2.321,0,0,1,94.824,69.168Z" transform="translate(-58.916 -55.419)" fill="#fff"/>
              <path id="Shape-11" data-name="Shape" d="M95.564,67.35h.595a1.867,1.867,0,0,0,.138-.559h-.667A3.257,3.257,0,0,1,95.564,67.35Z" transform="translate(-59.277 -54.591)" fill="#fff"/>
              <path id="Shape-12" data-name="Shape" d="M93.674,62.921v.8h.574A1.267,1.267,0,0,0,93.674,62.921Z" transform="translate(-58.356 -52.706)" fill="#fff"/>
              <path id="Shape-13" data-name="Shape" d="M94.824,63.161a2.363,2.363,0,0,1,.308.677h.513a1.855,1.855,0,0,0-.821-.677Z" transform="translate(-58.916 -52.823)" fill="#fff"/>
              <path id="Shape-14" data-name="Shape" d="M95.626,65.65H96.3a1.87,1.87,0,0,0-.133-.559h-.6A3.3,3.3,0,0,1,95.626,65.65Z" transform="translate(-59.277 -53.763)" fill="#fff"/>
              <path id="Shape-15" data-name="Shape" d="M90.468,65.091h-.605a1.712,1.712,0,0,0-.138.559h.667A4.664,4.664,0,0,1,90.468,65.091Z" transform="translate(-56.432 -53.763)" fill="#fff"/>
              <path id="Shape-16" data-name="Shape" d="M90.421,66.791h-.667a1.706,1.706,0,0,0,.123.559h.59A4.651,4.651,0,0,1,90.421,66.791Z" transform="translate(-56.446 -54.591)" fill="#fff"/>
              <path id="Shape-17" data-name="Shape" d="M91.149,63.161a1.87,1.87,0,0,0-.805.677h.513A2.329,2.329,0,0,1,91.149,63.161Z" transform="translate(-56.734 -52.823)" fill="#fff"/>
              <path id="Shape-18" data-name="Shape" d="M90.344,68.491a1.877,1.877,0,0,0,.805.677,2.282,2.282,0,0,1-.308-.677Z" transform="translate(-56.734 -55.419)" fill="#fff"/>
              <path id="Shape-19" data-name="Shape" d="M92.543,69.291v-.8h-.549a1.246,1.246,0,0,0,.549.8Z" transform="translate(-57.538 -55.419)" fill="#fff"/>
              <path id="Shape-20" data-name="Shape" d="M91.994,63.721h.569v-.8a1.244,1.244,0,0,0-.569.8Z" transform="translate(-57.538 -52.706)" fill="#fff"/>
              <path id="Shape-21" data-name="Shape" d="M90.7,56.091a12.307,12.307,0,0,0-11.359,9.421H90.7ZM86.539,63.6a2.175,2.175,0,1,1,2.174-2.174A2.175,2.175,0,0,1,86.539,63.6Z" transform="translate(-51.375 -49.378)" fill="#fff"/>
              <path id="Shape-22" data-name="Shape" d="M91.731,67.35h.651v-.559h-.718A3.6,3.6,0,0,0,91.731,67.35Z" transform="translate(-57.377 -54.591)" fill="#fff"/>
              <path id="Shape-23" data-name="Shape" d="M91.664,65.65h.718v-.559h-.651a3.648,3.648,0,0,0-.067.559Z" transform="translate(-57.377 -53.763)" fill="#fff"/>
              <path id="Shape-24" data-name="Shape" d="M90.416,76.521H78.878a12.168,12.168,0,0,0,3.374,10.256h8.205Zm-7.221,6.8h-.954V80.562H83.2Zm1.344,0h-.954V81.347h.933Zm1.344,0h-.954V80.126h.954Zm1.344,0h-.954v-4.2h.954Z" transform="translate(-51.088 -59.331)" fill="#fff"/>
              <path id="Shape-25" data-name="Shape" d="M89.6,107.067a.943.943,0,0,0,.944.944h4.046V98.631H87.314A10.958,10.958,0,0,1,89.6,105.3Zm.826-6.308a.466.466,0,0,1,.467-.467H92.94a.467.467,0,0,1,.467.467v2.846a.467.467,0,0,1-.467.467H90.888a.467.467,0,0,1-.467-.467Z" transform="translate(-55.258 -70.103)" fill="#fff"/>
              <path id="Shape-26" data-name="Shape" d="M94.172,105.633h2.051a.113.113,0,0,0,.113-.113v-2.846a.113.113,0,0,0-.113-.113H94.172a.114.114,0,0,0-.084.031.112.112,0,0,0-.034.082v2.846a.112.112,0,0,0,.034.082.116.116,0,0,0,.084.031Zm.195-2.677h1.195v.344H94.367Zm0,.641h1.641v.354H94.367Zm0,.646h1.641v.349H94.367Z" transform="translate(-58.541 -72.017)" fill="#fff"/>
              <path id="Shape-27" data-name="Shape" d="M103.544,56.091v9.421h11.369A12.206,12.206,0,0,0,103.544,56.091Zm7.113,4.933a.569.569,0,1,1-.4.167.569.569,0,0,1,.4-.167Zm-2.4-.877a.862.862,0,1,1-.862.862A.862.862,0,0,1,108.257,60.147Zm-2.4.862a.562.562,0,1,0,0,.015Zm-.9,1.7a.434.434,0,0,1,.441-.441h.938a.435.435,0,0,1,.441.441Zm1.933,0a.667.667,0,0,1,.667-.667h1.4a.667.667,0,0,1,.667.667Zm2.867,0a.435.435,0,0,1,.436-.441h.923a.441.441,0,0,1,.441.441Z" transform="translate(-63.165 -49.378)" fill="#fff"/>
              <path id="Shape-28" data-name="Shape" d="M103.544,108.01h4.046a.945.945,0,0,0,.949-.944v-1.692a11.156,11.156,0,0,1,2.287-6.744h-7.282Zm1.626-6.154a.547.547,0,0,1,.262.062.964.964,0,0,1,1.923.108.482.482,0,0,1,0,.964H105.17a.569.569,0,0,1,0-1.133Z" transform="translate(-63.165 -70.103)" fill="#fff"/>
              <path id="Shape-29" data-name="Shape" d="M111.658,86.742a.14.14,0,0,1-.1.046.129.129,0,0,1-.1-.046l-.569-.641-1.169,1.344a.516.516,0,0,0,.256.072h3.144a.477.477,0,0,0,.256-.072L112.217,86.1Z" transform="translate(-66.17 -63.998)" fill="#fff"/>
              <path id="Shape-30" data-name="Shape" d="M114.994,84.41l1.169,1.344a.526.526,0,0,0,.041-.2V83.261a.524.524,0,0,0-.041-.2Z" transform="translate(-68.743 -62.517)" fill="#fff"/>
              <path id="Shape-31" data-name="Shape" d="M115.113,76.521H103.544V86.777h8.205a.388.388,0,0,0,.041-.041,12.157,12.157,0,0,0,3.462-8.518,12.7,12.7,0,0,0-.138-1.7Zm-4.236,5.846a.759.759,0,0,1-.759.759h-3.144a.755.755,0,0,1-.754-.759V80.075a.754.754,0,0,1,.754-.744h3.144a.755.755,0,0,1,.759.754Z" transform="translate(-63.165 -59.331)" fill="#fff"/>
              <path id="Shape-32" data-name="Shape" d="M113.39,82.588a.467.467,0,0,0-.256-.077H109.99a.5.5,0,0,0-.256.077l1.831,2.108Z" transform="translate(-66.18 -62.249)" fill="#fff"/>
              <path id="Shape-33" data-name="Shape" d="M109.34,83.061a.429.429,0,0,0-.046.2v2.292a.418.418,0,0,0,.046.2L110.5,84.41Z" transform="translate(-65.966 -62.517)" fill="#fff"/>
              <path id="Shape-34" data-name="Shape" d="M101.97,118.051H92.575a.831.831,0,1,0,0,1.662h9.395a.831.831,0,1,0,0-1.662Z" transform="translate(-57.416 -79.564)" fill="#fff"/>
              <path id="Shape-35" data-name="Shape" d="M101.97,122.421H92.575a.831.831,0,0,0,0,1.662h9.395a.831.831,0,0,0,0-1.662Z" transform="translate(-57.416 -81.693)" fill="#fff"/>
              <path id="Shape-36" data-name="Shape" d="M101.719,126.791H95.335a.831.831,0,1,0,0,1.662h6.385a.831.831,0,0,0,0-1.662Z" transform="translate(-58.76 -83.822)" fill="#fff"/>
            </g>
          </g>
        </g>
      </g>
    </g>
  </g>
</svg>
