<svg xmlns="http://www.w3.org/2000/svg" xmlns:xlink="http://www.w3.org/1999/xlink" width="100" height="100" viewBox="0 0 100 100">
  <defs>
    <linearGradient id="linear-gradient" x1="-1.069" y1="2.525" x2="-1.069" y2="2.53" gradientUnits="objectBoundingBox">
      <stop offset="0" stop-color="#edbc46"/>
      <stop offset="0.27" stop-color="#eda44c"/>
      <stop offset="0.61" stop-color="#c48031"/>
      <stop offset="0.8" stop-color="#d89d3b"/>
      <stop offset="1" stop-color="#ffed95"/>
    </linearGradient>
    <linearGradient id="linear-gradient-2" x1="-1.138" y1="2.629" x2="-1.133" y2="2.629" xlink:href="#linear-gradient"/>
    <radialGradient id="radial-gradient" cx="0.494" cy="0.507" r="0.499" gradientTransform="matrix(1, -0.002, -0.002, -1, 0.006, 5.472)" gradientUnits="objectBoundingBox">
      <stop offset="0" stop-color="#7d1416"/>
      <stop offset="0.09" stop-color="#981819"/>
      <stop offset="0.26" stop-color="#c61f1f"/>
      <stop offset="0.39" stop-color="#e22323"/>
      <stop offset="0.46" stop-color="#ed2524"/>
      <stop offset="0.87" stop-color="#ec1e24"/>
      <stop offset="0.89" stop-color="#db1c22"/>
      <stop offset="0.94" stop-color="#a41619"/>
      <stop offset="0.98" stop-color="#811214"/>
      <stop offset="1" stop-color="#741112"/>
    </radialGradient>
    <radialGradient id="radial-gradient-2" cx="0.5" cy="0.511" r="0.5" gradientTransform="matrix(0.006, -1, -1, -0.006, 1.578, 1.588)" gradientUnits="objectBoundingBox">
      <stop offset="0" stop-color="#5e0000"/>
      <stop offset="0.61" stop-color="#5e0000"/>
      <stop offset="0.87" stop-color="#5e0000"/>
      <stop offset="1" stop-color="#be1e2d"/>
    </radialGradient>
    <linearGradient id="linear-gradient-3" x1="-1.625" y1="4.274" x2="-1.618" y2="4.276" gradientUnits="objectBoundingBox">
      <stop offset="0" stop-color="#4d1211"/>
      <stop offset="0.02" stop-color="#521312"/>
      <stop offset="0.04" stop-color="#601414"/>
      <stop offset="0.06" stop-color="#781718"/>
      <stop offset="0.08" stop-color="#991b1d"/>
      <stop offset="0.11" stop-color="#c32024"/>
      <stop offset="0.12" stop-color="#d82327"/>
      <stop offset="0.29" stop-color="#ae524f"/>
      <stop offset="0.43" stop-color="#912829"/>
      <stop offset="0.5" stop-color="#851719"/>
      <stop offset="0.78" stop-color="#d52427"/>
    </linearGradient>
    <linearGradient id="linear-gradient-4" x1="-1.625" y1="4.278" x2="-1.618" y2="4.279" gradientUnits="objectBoundingBox">
      <stop offset="0" stop-color="#150958"/>
      <stop offset="0.03" stop-color="#190e5d"/>
      <stop offset="0.05" stop-color="#251c6a"/>
      <stop offset="0.08" stop-color="#383480"/>
      <stop offset="0.11" stop-color="#53549f"/>
      <stop offset="0.12" stop-color="#5d60aa"/>
      <stop offset="0.29" stop-color="#9e9dcd"/>
      <stop offset="0.29" stop-color="#9c9bcc"/>
      <stop offset="0.43" stop-color="#6e70b3"/>
      <stop offset="0.5" stop-color="#5d60aa"/>
      <stop offset="0.7" stop-color="#2e3192"/>
    </linearGradient>
    <linearGradient id="linear-gradient-5" x1="-8.41" y1="3.952" x2="-8.41" y2="3.952" gradientUnits="objectBoundingBox">
      <stop offset="0" stop-color="#9f1d21"/>
      <stop offset="0.12" stop-color="#a21e21"/>
      <stop offset="0.29" stop-color="#994845"/>
      <stop offset="0.6" stop-color="#7f2222"/>
      <stop offset="0.78" stop-color="#731112"/>
      <stop offset="0.85" stop-color="#761213"/>
      <stop offset="0.9" stop-color="#811517"/>
      <stop offset="0.96" stop-color="#931a1c"/>
      <stop offset="0.99" stop-color="#a21e21"/>
    </linearGradient>
  </defs>
  <g id="leadership-development-path" transform="translate(50 50)">
    <g id="PathwaysPaths" transform="translate(-50 -50)">
      <g id="PathwaysPaths-Copy">
        <g id="LeadershipDevelopmentPath">
          <g id="Leadership-Development-Path-2" data-name="Leadership-Development-Path">
            <circle id="Oval" cx="50" cy="50" r="50" fill="url(#linear-gradient)"/>
            <path id="Shape" d="M99.873,52.311A47.563,47.563,0,1,1,85.944,18.675,47.565,47.565,0,0,1,99.873,52.311Z" transform="translate(-2.312 -2.31)" fill="url(#linear-gradient-2)"/>
            <circle id="Oval-2" data-name="Oval" cx="45.246" cy="45.246" r="45.246" transform="translate(4.751 4.755)" fill="url(#radial-gradient)"/>
            <circle id="Oval-3" data-name="Oval" cx="39.682" cy="39.682" r="39.682" transform="translate(10.995 9.973)" fill="url(#radial-gradient-2)"/>
            <g id="Group" transform="translate(12.72 22.057)">
              <g id="Shape-2" data-name="Shape" transform="translate(2.611 2.615)" opacity="0.75">
                <path id="Path_73191" data-name="Path 73191" d="M35.015,58.841s3.133-5.436,16.226-7.179c13.19-1.754,22.374,4.287,38.169,1.887,5.569-.846,9.718-1.795,10.769-5.087l9.3,41.092A31.394,31.394,0,0,1,88.6,97.108c-13.19,0-25.872-7.026-44.554,5.067Z" transform="translate(-32.39 -48.283)" fill="#231f20"/>
                <path id="Path_73192" data-name="Path 73192" d="M34.935,58.486s3.133-5.436,16.226-7.179C64.345,49.558,73.535,55.6,89.325,53.2c5.574-.846,9.744-1.8,10.769-5.087l9.3,41.087a31.389,31.389,0,0,1-20.877,7.554c-13.185,0-25.872-7.021-44.554,5.067Z" transform="translate(-32.351 -48.112)" fill="#231f20"/>
                <path id="Path_73193" data-name="Path 73193" d="M32.157,64.577s-.318-.513-1.349-.282-.908.841-.908.841l10.315,51.832a2.009,2.009,0,0,0,1.631.241,1.631,1.631,0,0,0,1.108-.585Z" transform="translate(-29.896 -55.967)" fill="#231f20"/>
                <path id="Path_73194" data-name="Path 73194" d="M40.615,111.51c.662-.154,1.205-.185,1.256-.062L32.831,68h0c-.092-.164-.605-.185-1.195-.036s-1.087.431-1.026.621l8.831,43.5C39.41,111.956,39.938,111.669,40.615,111.51Z" transform="translate(-30.241 -57.736)" fill="#231f20"/>
                <path id="Path_73195" data-name="Path 73195" d="M72.9,74.231a3.445,3.445,0,0,1-.072.687,2.583,2.583,0,0,0-.215.81,3.828,3.828,0,0,1-.277.821c-.062.133,0,.236-.144.277s-.267.359-.318.513-.164.123-.164.338-.092.446-.067.559.031.277-.036.138-.144-.1-.169-.241,0-.256-.056-.164-.133.077-.19.185-.051.113,0,.267.21.277.1.359-.144.185-.226.082,0-.149-.077-.1-.185.1-.241-.036-.092-.246-.144-.364-.149.036-.195.272-.174.236-.221.308a1.143,1.143,0,0,0-.108.369v.236a.21.21,0,0,0,.082.19c-.077,0-.108,0-.108.118a3.048,3.048,0,0,0,.687,1.477c.262.421.364.759.1.805a9.366,9.366,0,0,1-1.164-1.467c-.513-.615-.821-.979-1.026-.928-.395.108-1.1-.595-1.672-.974l.282.031a.186.186,0,0,0,.169-.077c.056-.082.138-.154.062-.174s-.087-.092-.118-.051,0,.062-.087.092-.1.062-.174.056-.051-.036-.113-.1a1.234,1.234,0,0,0-.328-.221c-.133-.067-.179-.072-.236-.133s-.082,0-.154-.113a.927.927,0,0,1-.113-.231,6.373,6.373,0,0,0-.159-.636c-.036-.123-.051-.051-.128-.251a2.2,2.2,0,0,1-.123-.369c-.036-.144-.113-.179-.1-.354a2.853,2.853,0,0,0,0-.3c0-.092,0-.036.041-.1s0,0,.056.062.067.1.092.1,0-.056,0-.169v-.205c0-.113.092-.159,0-.133s-.062,0-.154.062-.067.036-.123.133a1.536,1.536,0,0,0-.1.19c-.051.123-.179.2-.046-.031a5.34,5.34,0,0,1,.333-.513.976.976,0,0,0,.164-.287.391.391,0,0,0,0-.287,1.073,1.073,0,0,1-.1-.759c.108-.308.215-.379.215-.554a1.289,1.289,0,0,1,.338-.672,4.983,4.983,0,0,0,.4-.513,1.6,1.6,0,0,1,.41-.349c.164-.067.251-.19.513-.3a7.761,7.761,0,0,1,.81-.3c.144-.031.2-.118.379-.138l.436-.051a.512.512,0,0,1,.467.149,2.274,2.274,0,0,1,.231.185l.169.062c.221.031.513-.1.677,0a3.841,3.841,0,0,1,.754.513c.282.272.128.21.338.431s.323.19.385.313a1.842,1.842,0,0,0,.226.467c.123.144.144,0,.226.313A1.447,1.447,0,0,1,72.9,74.231Z" transform="translate(-47.174 -59.318)" fill="#231f20"/>
                <path id="Path_73196" data-name="Path 73196" d="M133.781,113.316c-.128.338-.256.595-.369.631-.385.118-.4.662.056.877s.267,1.9.477,2.128c.031.036.051.036.067,0,.087-.138-.051-1.226.149-2.051a14.785,14.785,0,0,0,.21-3.738A20.079,20.079,0,0,1,133.781,113.316Z" transform="translate(-80.187 -78.829)" fill="#231f20"/>
                <path id="Path_73197" data-name="Path 73197" d="M162.668,117.266a2.512,2.512,0,0,1,.431-1.456c.328-.585.7-1.087.513-1.369-.256-.431-.441-.451-.656-.764a4.194,4.194,0,0,1-.482-1.174C162.586,113.892,162.247,115.948,162.668,117.266Z" transform="translate(-94.474 -79.481)" fill="#231f20"/>
                <path id="Path_73198" data-name="Path 73198" d="M145.828,82.49a7.706,7.706,0,0,0,1.538-1.769h0a3.494,3.494,0,0,1-.072-.564,6.541,6.541,0,0,1,.185-1.646.865.865,0,0,1,.333-.067c.236,0,.308-1.221.338-1.508a15.336,15.336,0,0,0,.179-1.738c0-.723-.513-2.051-.9-2.01s-.344-.887-.667-.677-.785-.333-1.138-.6c-.431-.513-.379.318-.933.108s-.554.513-1.092.559-.3.656-.836.79.062.979-.282,1.733,0,1.41-.128,1.877a1.537,1.537,0,0,0,.072,1.318c.262.513.451,2.221.913,2.231.205,0,0,.277-.108.415.282.313.436.513,1.026,1.144S144.935,83.167,145.828,82.49Z" transform="translate(-84.628 -59.623)" fill="#231f20"/>
                <path id="Path_73199" data-name="Path 73199" d="M144.311,115.7a8.01,8.01,0,0,1,.287-2.051c.108.272.472-.513.774-.779a2.182,2.182,0,0,0,.441-1.026,2.547,2.547,0,0,1,.605-.046h.077c.415,0,.477-.282.728-.708s1.913-3.441,2.615-4.677a4.708,4.708,0,0,0-.385-4.523,47.9,47.9,0,0,1-3.138-7.918,2.329,2.329,0,0,0-1.113-1.569,4.569,4.569,0,0,0-1.318-.436,25.208,25.208,0,0,1-3.246-1.236l-.056-.082a.494.494,0,0,0,0,.123c-.062.995-.036,4.4.108,6.667s-.087,3.538.4,5.369a19.4,19.4,0,0,0,1.174,3.954c.564,1.077.923,1.867.923,1.867a31.561,31.561,0,0,0-3.282,0c-.579.036-1.323.113-2.077.19-.215,1.062-.544.995-.923,1.569-.462.687-.513.713-1.056,0a3.079,3.079,0,0,1-.672-1.323,2.793,2.793,0,0,1-.641-.026,5.392,5.392,0,0,1-1.077-.364,27.11,27.11,0,0,0,1.026-3.59,28.007,28.007,0,0,0,.554-6.974c-.159-2.533-.369-4.938.041-6.267.149-.477.256-.831.333-1.092h.036a9.017,9.017,0,0,1-3.5,1.3,6.664,6.664,0,0,0-1.626.482.771.771,0,0,0-.513.733,10.691,10.691,0,0,1-.759,2.744,25.737,25.737,0,0,0-.574,2.564c-.277,1.026-.467,2.728-.7,3.677s-.215,2.856-.395,3.949,1.026,2.933,1.569,3.831.785,2.405.969,2.149.354.174.205.964-.113,1.333.256.969.974-.9.974-.9a2.681,2.681,0,0,1,.144,1.513,19.347,19.347,0,0,0-.241,2.672c.774.041,1.538.067,2.328.067A33.034,33.034,0,0,0,144.311,115.7Zm1.067-13.846a4.2,4.2,0,0,0,.472,1.159c.215.313.4.333.656.764.174.282-.195.785-.513,1.369a2.512,2.512,0,0,0-.431,1.456C145.152,105.3,145.491,103.247,145.378,101.857Zm-14.046,3.077c-.2.815-.062,1.9-.149,2.051h-.067c-.21-.231,0-1.913-.477-2.128s-.441-.759-.056-.877c.113-.036.241-.292.369-.631a20.154,20.154,0,0,0,.59-2.128,14.768,14.768,0,0,1-.19,3.713Z" transform="translate(-77.378 -68.837)" fill="#231f20"/>
                <path id="Path_73200" data-name="Path 73200" d="M143.648,89.712h0c-.154.169-.405.456-.513.569a4.029,4.029,0,0,0,.513-.569Z" transform="translate(-85.064 -68.379)" fill="#231f20"/>
                <path id="Path_73201" data-name="Path 73201" d="M152.335,89.552l.415.564v-.005Z" transform="translate(-89.546 -68.301)" fill="#231f20"/>
                <path id="Path_73202" data-name="Path 73202" d="M145.961,102.254a25.559,25.559,0,0,0,0-5.61c-.246-.723-.436-1.1-.374-1.426s.513-.636.513-.636a2.133,2.133,0,0,0-.831-.821l-.872.979s.513.128.374.513a52.439,52.439,0,0,0-1.092,5.677c-.446,3.005-.985,8.251-1.123,9a1.771,1.771,0,0,0,0,.662c.656,0,1.662-.128,2.651-.231.041-.215.082-.467.113-.79C145.509,107.68,145.8,103.921,145.961,102.254Z" transform="translate(-84.766 -70.352)" fill="#231f20"/>
                <path id="Path_73203" data-name="Path 73203" d="M143.247,127.7c.549.728.595.7,1.056,0,.379-.574.708-.513.923-1.569-.99.1-1.995.21-2.651.231A3.079,3.079,0,0,0,143.247,127.7Z" transform="translate(-84.791 -86.122)" fill="#231f20"/>
                <path id="Path_73204" data-name="Path 73204" d="M72.588,73.2a1.842,1.842,0,0,1-.226-.467c-.062-.123-.179-.1-.385-.313s-.056-.159-.338-.431a3.841,3.841,0,0,0-.754-.513c-.174-.113-.456,0-.677,0l-.185-.062a2.274,2.274,0,0,0-.231-.185.512.512,0,0,0-.467-.149l-.436.051c-.179,0-.21.082-.379.138s-.6.2-.862.3a5.64,5.64,0,0,0-.513.3,1.6,1.6,0,0,0-.41.349c-.108.1-.256.369-.4.513a1.289,1.289,0,0,0-.338.672c0,.174-.108.246-.215.554a1.073,1.073,0,0,0,.1.759.391.391,0,0,1,0,.287.975.975,0,0,1-.164.287c-.1.149-.205.3-.333.513s0,.154.046.031a1.536,1.536,0,0,1,.1-.19c.056-.1.031-.041.123-.133s.051-.031.154-.062,0,.026,0,.133v.374c0,.01-.041-.031-.092-.1s.041-.185-.056-.062,0,0-.041.1,0,.128,0,.3.067.21.1.354a2.2,2.2,0,0,0,.123.369c.077.2.092.144.128.251s.138.564.159.636a.926.926,0,0,0,.113.231c.072.113.1.051.154.113s.1.067.236.133a1.233,1.233,0,0,1,.328.221c.062.067.041.1.113.1a.206.206,0,0,0,.174-.056c.077-.056.051-.056.087-.092s.041.031.118.051,0,.092-.062.174a.186.186,0,0,1-.169.077l-.282-.031c.569.379,1.277,1.082,1.672.974.19-.051.513.313,1.026.928.549.7,1.026,1.487,1.164,1.467.262-.046.164-.385-.1-.805A3,3,0,0,1,70,79.822c0-.118.031-.144.108-.118a.21.21,0,0,1-.087-.205v-.236a1.142,1.142,0,0,1,.108-.369c.046-.072.169-.077.221-.308s.144-.395.195-.272.087.221.144.364.154.087.241.036,0,0,.077.1.113,0,.226-.082-.046-.205-.1-.359-.046-.154,0-.267.128-.1.19-.185.031,0,.056.164.1.1.169.241.062,0,.036-.138.072-.344.067-.559.118-.21.164-.338a1.226,1.226,0,0,1,.318-.513c.123-.062.082-.144.144-.277a3.828,3.828,0,0,0,.277-.821,2.585,2.585,0,0,1,.246-.795c.1-.185.036-.415.072-.687a1.449,1.449,0,0,0-.082-.7C72.711,73.222,72.69,73.345,72.588,73.2Z" transform="translate(-47.152 -59.299)" fill="#231f20"/>
                <path id="Path_73205" data-name="Path 73205" d="M73.61,105.113c0-.574.615-.205.513-.779,0-.579-.779-3.472-.779-4.051,0-.99-.769-1.538-.3-1.646a8.441,8.441,0,0,1,1.651,0c1.8-.513,1.313-2.333,1.067-3.154-.41-.774-2.415-2.9-2.564-3.518,0-.662-.985-1.687-.979-2.292,0-.882-2.092-1.221-2.467-1.477a4.971,4.971,0,0,0-.805-.379,4.631,4.631,0,0,0,1.128.513c.585.179,1.656.662,1.3.662s-1.451.262-1.538.985c-.046.564,1.723,3.964,1.292,3.277-.195-.308-.692-1.282-.974-1.79-.436-.769-1.456-1.446-2.051-2.246-.431-.605-.6-.605-1.708,0-.262.138-.308-.467-.605-.759-.554-.559-1.128-.862-1.364-1.174-.082.221-.262.441-.764.513a1.687,1.687,0,0,0-1.431,1.513c0,.795.569,2.631.569,3.482,0,.559-.369,1.185.574,1.718a2.147,2.147,0,0,1,.615,1.349c0,1.123.785,1.364.9,1.964.164.841-.328,1.99-.328,3.682a24.243,24.243,0,0,0-.405,6.062c-.041.754,1.856,6.5,2.051,8.718a38.031,38.031,0,0,1,6.554-1.841,16.835,16.835,0,0,0,.256-1.774A60.688,60.688,0,0,0,73.61,105.113Z" transform="translate(-45.646 -67.195)" fill="#231f20"/>
                <path id="Path_73206" data-name="Path 73206" d="M111.541,102.282h0Z" transform="translate(-69.649 -74.503)" fill="#231f20"/>
                <path id="Path_73207" data-name="Path 73207" d="M103.585,99.277v0Z" transform="translate(-65.796 -73.036)" fill="#231f20"/>
                <path id="Path_73208" data-name="Path 73208" d="M111.521,102.252Z" transform="translate(-69.64 -74.488)" fill="#231f20"/>
                <path id="Path_73209" data-name="Path 73209" d="M110.282,82.435c0-.631-.887-.759-1.487-1.538a3.588,3.588,0,0,1-1.21-2.518h-.067c.1-.79.3-2.236.3-2.256-.236-.415-.41-1.318,0-1.446,0,.164-.205.267.133.262.559-.959-.246-1.646-.656-2.364h.395c-.513-.949-1.159-1.928-.687-3.021,0,.1,0,.262.128.262-.133-1.826-1.538-4.5-2.672-5.226a2.427,2.427,0,0,0-.856-.4c-3.077-.754-4.354,1.923-5.374,4.159.41,1.359-.9,2.267-1.026,3.636.164.354.056.513.221.856-.723-.041-.513.467-1.087.185-.215.559.559.133.344.692-.651.036-.79.313-1.026.349-1.436,1.862.41,6.492,1.215,8.144.513,1.026,1.41,1.713,1.538,2.426.662,3.123-2.564,5.9-2.774,9.185-.164,2.892.482,5.79.9,8.718a68.447,68.447,0,0,1,8.287.677c1.205-4.205,2.564-8.241,2.082-13.728.421-.241.79,0,.887-.236a3.554,3.554,0,0,0,.667-2.344c-.056-.472-.39-.656-.349-1.1a4.656,4.656,0,0,0,1.913-.651A6.3,6.3,0,0,0,110.282,82.435Zm-6.051-6.749c-.318.759,0,1.538-.128,1.744-.769,0-.667-1.426-2.221-2.41-1.456-1.267-.513-1.713-1.205-1.713-.974,0-1.077,1.026-1.615,1.082-1.108-.128-.918-.328-.918-.513s1.267.631,1.744-1.272c.513,0,.446-.513.856-.051.154.174,1.538,2.3,2.051,2.3.128-.282-.446-1.585.159-1.585.364,0,.723.862,1.026,1.236S104.6,74.855,104.23,75.686Z" transform="translate(-61.672 -55.881)" fill="#231f20"/>
              </g>
              <path id="Shape-3" data-name="Shape" d="M29.915,53.741s3.138-5.431,16.231-7.179C59.33,44.808,68.52,50.849,84.31,48.449c5.569-.846,9.744-1.795,10.769-5.087l9.318,41.1A31.378,31.378,0,0,1,83.52,92.018c-13.185,0-25.877-7.046-44.559,5.062Z" transform="translate(-27.295 -43.183)" fill="url(#linear-gradient-3)"/>
              <path id="Shape-4" data-name="Shape" d="M29.835,53.391s3.138-5.436,16.226-7.179C59.25,44.458,68.435,50.5,84.23,48.1,89.8,47.253,93.973,46.3,95,43.012L104.3,84.1a31.394,31.394,0,0,1-20.882,7.554c-13.19,0-25.851-7.021-44.523,5.072Z" transform="translate(-27.256 -43.012)" fill="url(#linear-gradient-4)"/>
              <path id="Shape-5" data-name="Shape" d="M38.467,114.568,27.067,59.48s-.323-.513-1.354-.277-.9.836-.9.836l10.918,54.867c0,.2.477.426,1.631.241A1.637,1.637,0,0,0,38.467,114.568Z" transform="translate(-24.805 -50.87)" fill="url(#linear-gradient-5)"/>
              <path id="Shape-6" data-name="Shape" d="M35.525,106.418c.667-.154,1.21-.185,1.256-.062L27.745,62.91h0c-.087-.169-.6-.185-1.19-.041s-1.087.431-1.026.621l8.821,43.5C34.325,106.864,34.853,106.577,35.525,106.418Z" transform="translate(-25.156 -52.638)" fill="#4f4f9a"/>
              <path id="Shape-7" data-name="Shape" d="M67.745,69.131c-.036.277.031.513-.072.692a2.6,2.6,0,0,0-.241.805,3.381,3.381,0,0,1-.277.826c-.056.133,0,.231-.138.272s-.272.364-.318.513-.164.128-.164.344-.092.441-.067.559.031.272-.036.138-.149-.1-.174-.246,0-.251-.051-.164-.133.082-.19.19-.056.113,0,.267.205.277.1.354-.149.185-.226.087,0-.154-.082-.1-.179.108-.236-.036-.092-.241-.144-.364-.149.036-.2.272-.174.241-.215.313a.9.9,0,0,0-.108.364.678.678,0,0,1-.031.241.235.235,0,0,0,.082.19c-.072,0-.108,0-.108.118a3.038,3.038,0,0,0,.692,1.472c.262.415.359.764.1.805a9.715,9.715,0,0,1-1.169-1.462c-.554-.692-.815-.985-1.026-.933-.395.108-1.108-.59-1.672-.974l.282.031a.186.186,0,0,0,.164-.072c.062-.082.138-.154.067-.174s-.087-.092-.123-.056,0,.067-.082.1a.326.326,0,0,1-.179.051c-.067,0-.046-.031-.108-.1a1.424,1.424,0,0,0-.333-.226c-.128-.067-.174-.067-.231-.128s-.082,0-.159-.118a.73.73,0,0,1-.108-.231,6.1,6.1,0,0,0-.164-.631c-.036-.118-.051-.051-.128-.251a2.422,2.422,0,0,1-.123-.374c-.031-.138-.113-.179-.1-.354a2.855,2.855,0,0,0,0-.3c0-.092,0-.036.046-.092s0,0,.056.062.067.1.092.092,0-.056,0-.169a1.3,1.3,0,0,0,0-.2c0-.113.087-.164,0-.133s-.067-.026-.159.062-.067.036-.123.133a1.058,1.058,0,0,0-.1.19c-.051.123-.174.2-.046-.031a5.983,5.983,0,0,1,.338-.513,1.592,1.592,0,0,0,.164-.287c0-.072.031-.246,0-.287a1.057,1.057,0,0,1-.1-.759c.1-.308.21-.385.21-.554a1.266,1.266,0,0,1,.344-.672,5.6,5.6,0,0,0,.4-.513,1.44,1.44,0,0,1,.41-.349,5.552,5.552,0,0,1,.513-.3c.267-.1.7-.251.867-.308a1.333,1.333,0,0,1,.379-.133l.436-.051a.512.512,0,0,1,.462.144l.236.185a1.145,1.145,0,0,0,.164.062c.226.036.513-.1.677,0a3.565,3.565,0,0,1,.759.513c.282.277.123.21.333.431s.328.19.39.318a2,2,0,0,0,.221.467c.128.138.144,0,.231.313A1.427,1.427,0,0,1,67.745,69.131Z" transform="translate(-42.027 -54.218)" fill="#fff"/>
              <path id="Shape-8" data-name="Shape" d="M128.691,108.221c-.128.338-.256.59-.369.626-.385.123-.4.662.056.882s.262,1.9.477,2.128c.026.031.046.036.062,0,.092-.138-.051-1.221.154-2.051a14.87,14.87,0,0,0,.205-3.744,19.9,19.9,0,0,1-.585,2.159Z" transform="translate(-75.096 -73.729)" fill="#fff"/>
              <path id="Shape-9" data-name="Shape" d="M157.577,112.186a2.5,2.5,0,0,1,.431-1.462c.328-.585.692-1.082.513-1.369-.256-.426-.446-.451-.656-.764a4.09,4.09,0,0,1-.472-1.159C157.49,108.811,157.157,110.863,157.577,112.186Z" transform="translate(-89.382 -74.396)" fill="#fff"/>
              <path id="Shape-10" data-name="Shape" d="M140.724,77.4a7.956,7.956,0,0,0,1.538-1.769h0a3.128,3.128,0,0,1-.067-.569,6.478,6.478,0,0,1,.185-1.641.78.78,0,0,1,.328-.072c.241,0,.308-1.215.338-1.508a13.1,13.1,0,0,0,.179-1.738c0-.718-.513-2.051-.892-2.005s-.344-.892-.667-.682-.79-.333-1.144-.6c-.431-.513-.38.323-.928.113s-.559.513-1.1.559-.3.656-.831.79.062.974-.287,1.733,0,1.41-.128,1.872a1.538,1.538,0,0,0,.062,1.359c.267.513.456,2.215.918,2.231.205,0,0,.272-.113.415.287.308.441.513,1.026,1.138S139.837,78.068,140.724,77.4Z" transform="translate(-79.524 -54.524)" fill="#fff"/>
              <path id="Shape-11" data-name="Shape" d="M139.216,110.628a8.125,8.125,0,0,1,.282-2.051c.108.267.472-.513.779-.779a2.248,2.248,0,0,0,.436-1.026,2.815,2.815,0,0,1,.605-.041h.082c.415,0,.477-.277.723-.708s1.913-3.436,2.615-4.672a4.72,4.72,0,0,0-.379-4.523,48.843,48.843,0,0,1-3.144-7.918,2.3,2.3,0,0,0-1.108-1.569,4.643,4.643,0,0,0-1.318-.441,24.439,24.439,0,0,1-3.246-1.236l-.062-.082v.123c-.062.995-.031,4.405.113,6.667s-.092,3.538.395,5.369a19.461,19.461,0,0,0,1.179,3.954c.564,1.082.923,1.862.923,1.862s-1.621-.082-3.287,0c-.574.036-1.323.113-2.051.19-.21,1.062-.544,1.026-.923,1.569-.456.687-.513.718-1.026,0a3.217,3.217,0,0,1-.733-1.313,2.851,2.851,0,0,1-.641,0,5.743,5.743,0,0,1-1.077-.369,27.11,27.11,0,0,0,1.026-3.59,28,28,0,0,0,.559-6.979c-.159-2.533-.374-4.933.041-6.262.149-.477.256-.836.333-1.092h0l.031-.031h0a8.96,8.96,0,0,1-3.5,1.3,6.276,6.276,0,0,0-1.621.482c-.421.221-.513.456-.513.728a10.615,10.615,0,0,1-.764,2.749,23.705,23.705,0,0,0-.574,2.59c-.277,1.051-.467,2.728-.7,3.672s-.21,2.862-.39,3.954,1.026,2.928,1.538,3.826.79,2.405.969,2.149.354.174.21.969-.113,1.333.256.964.974-.892.974-.892a2.681,2.681,0,0,1,.144,1.513,19.124,19.124,0,0,0-.246,2.667c.774.046,1.538.072,2.328.072A33.068,33.068,0,0,0,139.216,110.628ZM140.3,96.782a4.09,4.09,0,0,0,.472,1.159c.21.313.4.338.656.764.169.287-.195.785-.513,1.369a2.5,2.5,0,0,0-.431,1.462c-.431-1.318-.1-3.369-.159-4.749Zm-14.046,3.077c-.205.815-.062,1.9-.154,2.051,0,.026-.036,0-.062,0-.215-.231,0-1.913-.477-2.128s-.441-.759-.056-.882c.113-.036.241-.287.369-.626a19.975,19.975,0,0,0,.585-2.133,14.867,14.867,0,0,1-.205,3.713Z" transform="translate(-72.283 -63.751)" fill="#fff"/>
              <path id="Shape-12" data-name="Shape" d="M138.558,84.622h0c-.159.169-.41.456-.513.569A4.692,4.692,0,0,0,138.558,84.622Z" transform="translate(-79.973 -63.284)" fill="#fff"/>
              <path id="Shape-13" data-name="Shape" d="M147.245,84.462l.41.559h0Z" transform="translate(-84.455 -63.205)" fill="#fff"/>
              <path id="Shape-14" data-name="Shape" d="M140.871,97.154a25.51,25.51,0,0,0,0-5.605,3.655,3.655,0,0,1-.379-1.426c.056-.318.513-.636.513-.636a2.174,2.174,0,0,0-.831-.826l-.867.985s.513.123.374.513a52.582,52.582,0,0,0-1.1,5.677c-.441,3.005-.985,8.251-1.118,8.995a1.821,1.821,0,0,0,0,.667c.662,0,1.662-.128,2.651-.236.046-.21.082-.467.118-.785C140.42,102.585,140.712,98.836,140.871,97.154Z" transform="translate(-79.676 -65.252)" fill="#fff"/>
              <path id="Shape-15" data-name="Shape" d="M138.128,122.611c.544.728.595.7,1.026,0,.379-.569.713-.513.923-1.569-.99.108-1.99.21-2.651.236a3.215,3.215,0,0,0,.7,1.333Z" transform="translate(-79.671 -81.027)" fill="#fff"/>
              <path id="Shape-16" data-name="Shape" d="M67.453,68.111a2,2,0,0,1-.221-.467c-.062-.128-.179-.1-.39-.318s-.051-.154-.333-.431a3.564,3.564,0,0,0-.759-.513c-.174-.118-.451,0-.677,0a1.145,1.145,0,0,1-.164-.062l-.236-.185a.512.512,0,0,0-.462-.144l-.436.051c-.185,0-.215.082-.379.133s-.6.205-.867.308a5.551,5.551,0,0,0-.513.3,1.44,1.44,0,0,0-.41.349c-.108.1-.256.369-.4.513a1.263,1.263,0,0,0-.349.656c0,.169-.108.246-.21.554a1.057,1.057,0,0,0,.1.759c.046.041.036.215,0,.287a1.592,1.592,0,0,1-.164.287,5.983,5.983,0,0,0-.338.513c-.128.231,0,.154.046.031a1.058,1.058,0,0,1,.1-.19c.056-.1.036-.046.123-.133s.051-.031.159-.062,0,0,0,.133a1.3,1.3,0,0,1,0,.2v.169a.313.313,0,0,1-.092-.092c-.046-.062.041-.185-.056-.062s0,0-.046.092,0,.128,0,.3.072.215.1.354a2.422,2.422,0,0,0,.123.374c.077.2.1.144.128.251s.138.559.164.631a.73.73,0,0,0,.108.231c.077.118.108.056.159.118s.1.062.231.128a1.424,1.424,0,0,1,.333.226c.062.067.041.092.108.1a.326.326,0,0,0,.179-.051c.082-.031.051-.056.082-.1s.046.031.123.056,0,.092-.067.174a.186.186,0,0,1-.164.072l-.282-.031c.564.385,1.277,1.082,1.672.974.19-.051.513.318,1.026.933s1.026,1.487,1.169,1.462c.256-.041.164-.379-.1-.805a3.036,3.036,0,0,1-.692-1.472c0-.118.036-.144.108-.118a.235.235,0,0,1-.082-.19.624.624,0,0,1,.031-.241.9.9,0,0,1,.108-.364c.041-.072.169-.077.215-.313s.149-.39.2-.272.087.226.144.364.154.092.236.036,0,0,.082.1.113,0,.226-.087-.046-.2-.1-.354-.051-.154,0-.267.128-.1.19-.19.031,0,.051.164.108.108.174.246.062,0,.036-.138.067-.344.067-.559.113-.21.164-.344.195-.451.318-.513.082-.138.138-.272a3.381,3.381,0,0,0,.277-.826,2.6,2.6,0,0,1,.241-.805c.1-.185.036-.415.072-.692a1.426,1.426,0,0,0-.077-.692C67.6,68.132,67.581,68.25,67.453,68.111Z" transform="translate(-42.042 -54.204)" fill="#fff"/>
              <path id="Shape-17" data-name="Shape" d="M68.539,100.023c0-.569.61-.205.513-.774,0-.585-.779-3.477-.779-4.051,0-.995-.769-1.564-.308-1.646a16.227,16.227,0,0,1,1.656,0c1.8-.513,1.308-2.333,1.067-3.149-.41-.779-2.415-2.908-2.564-3.518,0-.662-.985-1.687-.985-2.292,0-.887-2.087-1.226-2.462-1.477a4.733,4.733,0,0,0-.805-.385A4.448,4.448,0,0,0,65,83.243c.585.179,1.656.667,1.3.667s-1.456.262-1.538.979c-.051.569,1.723,3.969,1.292,3.282-.195-.313-.692-1.287-.979-1.795-.431-.769-1.451-1.441-2.026-2.246-.426-.6-.6-.6-1.708,0-.256.144-.3-.462-.6-.759-.554-.554-1.133-.856-1.364-1.169-.087.221-.262.436-.769.513a1.692,1.692,0,0,0-1.431,1.538c0,.795.574,2.631.574,3.477,0,.559-.369,1.19.569,1.718a2.19,2.19,0,0,1,.615,1.354c0,1.123.785,1.359.9,1.964.159.841-.328,1.99-.328,3.682a24.034,24.034,0,0,0-.41,6.056c-.036.759,1.862,6.508,2.051,8.718a37.312,37.312,0,0,1,6.559-1.841,17.11,17.11,0,0,0,.256-1.774A69.52,69.52,0,0,0,68.539,100.023Z" transform="translate(-40.575 -62.105)" fill="#fff"/>
              <path id="Shape-18" data-name="Shape" d="M106.456,97.182h0Z" transform="translate(-64.564 -69.403)" fill="#fff"/>
              <path id="Shape-19" data-name="Shape" d="M106.456,97.162Z" transform="translate(-64.564 -69.393)" fill="#fff"/>
              <path id="Shape-20" data-name="Shape" d="M105.176,77.346c0-.636-.887-.759-1.492-1.538a3.591,3.591,0,0,1-1.205-2.518h-.067c.1-.79.3-2.231.3-2.256-.241-.41-.41-1.313,0-1.446-.031.169-.205.272.133.267.559-.964-.246-1.646-.656-2.364h.374c-.513-.954-1.159-1.928-.692-3.021.031.1,0,.256.133.262-.133-1.826-1.538-4.5-2.677-5.226a2.443,2.443,0,0,0-.856-.405c-3.077-.749-4.354,1.928-5.369,4.159.405,1.364-.908,2.267-1.026,3.641.169.354.056.513.226.856-.728-.041-.513.467-1.092.185-.21.559.564.128.349.692-.651.031-.79.308-1.026.344-1.436,1.867.405,6.492,1.215,8.144.513,1.026,1.405,1.713,1.538,2.431.662,3.118-2.564,5.9-2.774,9.185-.164,2.892.477,5.79.9,8.718a69.524,69.524,0,0,1,8.282.682c1.205-4.205,2.564-8.246,2.082-13.728.426-.241.795,0,.887-.236a3.532,3.532,0,0,0,.667-2.349c-.056-.472-.39-.651-.344-1.1a4.669,4.669,0,0,0,1.913-.646A6.384,6.384,0,0,0,105.176,77.346ZM99.12,70.6c-.318.759,0,1.538-.123,1.738-.774,0-.667-1.426-2.221-2.405-1.456-1.272-.513-1.713-1.205-1.713-.974,0-1.077,1.026-1.615,1.077-1.113-.128-.918-.328-.918-.513s1.267.636,1.744-1.267c.513,0,.441-.513.851-.051.159.174,1.538,2.3,2.051,2.3.128-.287-.451-1.585.159-1.585.364,0,.723.856,1.026,1.236S99.484,69.762,99.12,70.6Z" transform="translate(-56.566 -50.787)" fill="#fff"/>
            </g>
          </g>
        </g>
      </g>
    </g>
  </g>
</svg>
