<svg xmlns="http://www.w3.org/2000/svg" xmlns:xlink="http://www.w3.org/1999/xlink" width="100" height="100" viewBox="0 0 100 100">
  <defs>
    <linearGradient id="linear-gradient" x1="-1.069" y1="2.525" x2="-1.069" y2="2.53" gradientUnits="objectBoundingBox">
      <stop offset="0" stop-color="#edbc46"/>
      <stop offset="0.27" stop-color="#eda44c"/>
      <stop offset="0.61" stop-color="#c48031"/>
      <stop offset="0.8" stop-color="#d89d3b"/>
      <stop offset="1" stop-color="#ffed95"/>
    </linearGradient>
    <linearGradient id="linear-gradient-2" x1="-1.138" y1="2.629" x2="-1.133" y2="2.629" xlink:href="#linear-gradient"/>
    <radialGradient id="radial-gradient" cx="0.506" cy="0.508" r="0.499" gradientTransform="matrix(1, -0.002, -0.002, -1, 0.006, 5.472)" gradientUnits="objectBoundingBox">
      <stop offset="0" stop-color="#7d1416"/>
      <stop offset="0.09" stop-color="#981819"/>
      <stop offset="0.26" stop-color="#c61f1f"/>
      <stop offset="0.39" stop-color="#e22323"/>
      <stop offset="0.46" stop-color="#ed2524"/>
      <stop offset="0.87" stop-color="#ec1e24"/>
      <stop offset="0.89" stop-color="#db1c22"/>
      <stop offset="0.94" stop-color="#a41619"/>
      <stop offset="0.98" stop-color="#811214"/>
      <stop offset="1" stop-color="#741112"/>
    </radialGradient>
    <radialGradient id="radial-gradient-2" cx="0.5" cy="0.501" r="0.5" gradientTransform="matrix(0.006, -1, -1, -0.006, 1.578, 1.588)" gradientUnits="objectBoundingBox">
      <stop offset="0" stop-color="#5e0000"/>
      <stop offset="0.61" stop-color="#5e0000"/>
      <stop offset="0.87" stop-color="#5e0000"/>
      <stop offset="1" stop-color="#be1e2d"/>
    </radialGradient>
    <linearGradient id="linear-gradient-3" x1="-1.625" y1="4.274" x2="-1.618" y2="4.276" gradientUnits="objectBoundingBox">
      <stop offset="0" stop-color="#4d1211"/>
      <stop offset="0.02" stop-color="#521312"/>
      <stop offset="0.04" stop-color="#601414"/>
      <stop offset="0.06" stop-color="#781718"/>
      <stop offset="0.08" stop-color="#991b1d"/>
      <stop offset="0.11" stop-color="#c32024"/>
      <stop offset="0.12" stop-color="#d82327"/>
      <stop offset="0.29" stop-color="#ae524f"/>
      <stop offset="0.43" stop-color="#912829"/>
      <stop offset="0.5" stop-color="#851719"/>
      <stop offset="0.78" stop-color="#d52427"/>
    </linearGradient>
    <linearGradient id="linear-gradient-4" x1="-1.625" y1="4.278" x2="-1.618" y2="4.279" gradientUnits="objectBoundingBox">
      <stop offset="0" stop-color="#a70e13"/>
      <stop offset="0.03" stop-color="#ac0f14"/>
      <stop offset="0.06" stop-color="#ba1218"/>
      <stop offset="0.1" stop-color="#d2181e"/>
      <stop offset="0.12" stop-color="#e11b22"/>
      <stop offset="0.29" stop-color="#f26649"/>
      <stop offset="0.32" stop-color="#ef5a43"/>
      <stop offset="0.44" stop-color="#e52c2b"/>
      <stop offset="0.5" stop-color="#e11b22"/>
      <stop offset="0.7" stop-color="#e11b22"/>
      <stop offset="0.77" stop-color="#da1920"/>
      <stop offset="0.87" stop-color="#c6151b"/>
      <stop offset="0.99" stop-color="#a70e13"/>
    </linearGradient>
    <linearGradient id="linear-gradient-5" x1="-8.486" y1="3.999" x2="-8.486" y2="3.999" gradientUnits="objectBoundingBox">
      <stop offset="0" stop-color="#9f1d21"/>
      <stop offset="0.12" stop-color="#a21e21"/>
      <stop offset="0.29" stop-color="#994845"/>
      <stop offset="0.6" stop-color="#7f2222"/>
      <stop offset="0.78" stop-color="#731112"/>
      <stop offset="0.85" stop-color="#761213"/>
      <stop offset="0.9" stop-color="#811517"/>
      <stop offset="0.96" stop-color="#931a1c"/>
      <stop offset="0.99" stop-color="#a21e21"/>
    </linearGradient>
  </defs>
  <g id="motivational-strategies-path" transform="translate(50 50)">
    <g id="PathwaysPaths" transform="translate(-50 -50)">
      <g id="PathwaysPaths-Copy">
        <g id="MotivationalStrategiesPath">
          <g id="Motivational-Strategies-Path-2" data-name="Motivational-Strategies-Path">
            <circle id="Oval" cx="50" cy="50" r="50" fill="url(#linear-gradient)"/>
            <path id="Shape" d="M99.873,52.311A47.563,47.563,0,1,1,85.944,18.675,47.565,47.565,0,0,1,99.873,52.311Z" transform="translate(-2.312 -2.31)" fill="url(#linear-gradient-2)"/>
            <circle id="Oval-2" data-name="Oval" cx="45.246" cy="45.246" r="45.246" transform="translate(4.751 4.755)" fill="url(#radial-gradient)"/>
            <circle id="Oval-3" data-name="Oval" cx="39.682" cy="39.682" r="39.682" transform="translate(10.995 9.973)" fill="url(#radial-gradient-2)"/>
            <g id="Group" transform="translate(12.72 22.057)">
              <g id="Shape-2" data-name="Shape" transform="translate(2.611 2.615)" opacity="0.75">
                <path id="Path_73215" data-name="Path 73215" d="M35.015,58.841s3.133-5.436,16.226-7.179c13.19-1.754,22.374,4.287,38.169,1.887,5.569-.846,9.718-1.795,10.769-5.087l9.3,41.092A31.394,31.394,0,0,1,88.6,97.108c-13.19,0-25.872-7.026-44.554,5.067Z" transform="translate(-32.39 -48.283)" fill="#231f20"/>
                <path id="Path_73216" data-name="Path 73216" d="M34.935,58.486s3.133-5.436,16.226-7.179C64.345,49.558,73.535,55.6,89.325,53.2c5.574-.846,9.744-1.8,10.769-5.087l9.3,41.087a31.389,31.389,0,0,1-20.877,7.554c-13.185,0-25.872-7.021-44.554,5.067Z" transform="translate(-32.351 -48.112)" fill="#231f20"/>
                <path id="Path_73217" data-name="Path 73217" d="M42.551,115.756,32.157,64.577s-.318-.513-1.349-.282-.908.841-.908.841L39.813,116.1c0,.2.482.426,1.631.241Q42.557,115.767,42.551,115.756Z" transform="translate(-29.896 -55.967)" fill="#231f20"/>
                <path id="Path_73218" data-name="Path 73218" d="M40.615,111.51c.662-.154,1.205-.185,1.256-.062L32.831,68h0c-.092-.164-.605-.185-1.195-.036s-1.087.431-1.026.621l8.831,43.5C39.41,111.956,39.938,111.669,40.615,111.51Z" transform="translate(-30.241 -57.736)" fill="#231f20"/>
                <path id="Path_73219" data-name="Path 73219" d="M69.35,117.821c-.056,1.569-2.3,2.723-5.01,2.564s-4.867-1.538-4.815-3.1,2.3-2.723,5.01-2.564S69.406,116.251,69.35,117.821Z" transform="translate(-44.33 -80.554)" fill="none" stroke="#231f20" stroke-width="0.872"/>
                <path id="Path_73220" data-name="Path 73220" d="M99.977,124.9c-.072,2.128-3.118,3.692-6.8,3.5s-6.61-2.087-6.533-4.231,3.118-3.692,6.8-3.492S100.049,122.773,99.977,124.9Z" transform="translate(-57.542 -83.455)" fill="none" stroke="#231f20" stroke-width="0.872"/>
                <path id="Path_73221" data-name="Path 73221" d="M149.786,128.54c-.051,1.61-2.354,2.79-5.128,2.641s-4.99-1.574-4.933-3.179,2.354-2.79,5.128-2.641S149.862,126.934,149.786,128.54Z" transform="translate(-83.401 -85.74)" fill="none" stroke="#231f20" stroke-width="0.872"/>
                <path id="Path_73222" data-name="Path 73222" d="M128.44,111.04c-.062,1.728-2.538,3-5.533,2.841s-5.364-1.718-5.313-3.426,2.564-3.005,5.533-2.846S128.5,109.307,128.44,111.04Z" transform="translate(-72.62 -77.092)" fill="none" stroke="#231f20" stroke-width="0.872"/>
                <path id="Path_73223" data-name="Path 73223" d="M65.545,75.74l-1.026-.195h0l-.882-.267a1.661,1.661,0,0,1-.2-.123s.087.164-.046,0a.539.539,0,0,1-.031-.451c.092-.179.241-.569.241-.569a.954.954,0,0,0,.1-.938,2.151,2.151,0,0,0,0-.467.554.554,0,0,0,0-.092.554.554,0,0,1,0,.092,4.5,4.5,0,0,0-.046-.585h0c-.108-.785-1.456-.651-1.456-.651a.984.984,0,0,0-1.026.867h0a2.48,2.48,0,0,0,0,.61,3.081,3.081,0,0,0,.082.477c-.3.21.077.795.077.795-.031.164.236.513.236.513.092.1,0,.477,0,.477l-.185.077h-.067l-1.944.708s-.805,4.1-.954,5.774a15.347,15.347,0,0,0,0,3.077l.241-.092a.105.105,0,0,1,0,.036,4.187,4.187,0,0,0,.374,1.81c.077.087.6.513.6.513.1.1.118-.138.118-.138.092,0-.087-.344-.195-.431s-.118-.374-.149-.451a.731.731,0,0,1-.041-.313.154.154,0,0,1,.149-.149c.1,0,.195.4.195.4a.56.56,0,0,0,.3.333c.195,0-.164-.764-.164-.764a3.077,3.077,0,0,0-.477-1.062.442.442,0,0,1-.041-.062l.344-.128-.041-.349c.067-.862.774-4.3.774-4.3l-.272,4.3.21.036a13.747,13.747,0,0,0,.041,2.79c.077.749.374,2.528.374,2.528s.077,1.3.133,1.538.226-.077.123.821a13.506,13.506,0,0,0,.267,3.144,4.338,4.338,0,0,1,.133.672,5.884,5.884,0,0,0,.067.738.256.256,0,0,0,.1.072c.241.062-.072.579-.072.579a.815.815,0,0,0-.149.692c.179.385,1.164.236,1.164.236a.611.611,0,0,0,.374-.39c0-.087.21-.882.241-1.026a3.354,3.354,0,0,0,0-.431.255.255,0,0,1,.031-.154c.072-.1,0-.21.031-.405a5.391,5.391,0,0,0-.031-.882c-.046-.282-.179-1.733-.164-2.051a11.761,11.761,0,0,0-.108-1.508c-.046-.195-.149-.421,0-.585a1.618,1.618,0,0,0,.149-.672,20.987,20.987,0,0,0,.226-2.528c.21.031.631,1.026.569,1.179s0,.149.1.287.169.179.138.344-.062.313,0,.4a.4.4,0,0,1-.021.508c-.062.179.072.046.164.256s-.031.133-.138.405S63.3,92.9,63.3,92.9l-.092.179c-.087.179.585.9.585.9h0a3.078,3.078,0,0,1,.385.892c-.031.513.6.913.6.913.4.287.851-.179.851-.179.226-.477-.226-.687-.287-.969s-.169-.595-.231-.882a4.754,4.754,0,0,1,.277-.944,1.643,1.643,0,0,0,.164-.805,4.093,4.093,0,0,1,.421-1.179c.118-.154.077-.123.046-.272s-.092-.031.087-.241-.072-.236.062-.313.031-.21,0-.462.077-.333.164-.662-.133-.4-.149-.569-.046-.359-.092-.923-.092-1.421-.1-1.59a.721.721,0,0,1-.077-.605v-.1c-.1.041-.174-.251-.185-.318a2.029,2.029,0,0,1,0-.59,2.413,2.413,0,0,1,.082-.436c-.026-.154-.067-.436-.113-.667l-.031-.159a.747.747,0,0,1-.1.133l-.3-4.467s.513,2.5.6,3.077a5.676,5.676,0,0,1-.133,1.585,2.156,2.156,0,0,0,.277.287,1.169,1.169,0,0,1-.185.282v-.031h0a2.591,2.591,0,0,0-.062.344,2.122,2.122,0,0,0-.026.477,1.1,1.1,0,0,0,.051.287c0,.051.072.205.138.174v-.082a3.749,3.749,0,0,0,.087-.431c.313-.031-.087.667-.092.672a.73.73,0,0,0,0,.364.888.888,0,0,0,.082.19c.062.046.21-.087.21-.087.149.087.374-.195.374-.195.118.031.359-.374.359-.374l.072-.313a2.742,2.742,0,0,0-.164-.856s.123-2.364.174-3.077A38.331,38.331,0,0,0,65.545,75.74Z" transform="translate(-43.755 -59.499)" fill="#231f20"/>
                <path id="Path_73224" data-name="Path 73224" d="M96.9,78.939a5.6,5.6,0,0,0-.779-.3h0c-.082,0-.087-.087-.077-.149a.177.177,0,0,1,0-.062l.621-.815-.728-.841L94.545,77.8c-.215-.041.174-2.123.174-2.123a.589.589,0,0,0-.133-.405,3.25,3.25,0,0,0-.6-.59l-.123-.1-.215-.149c.169-.108.082-.451.082-.451a.241.241,0,0,1-.338.169c.149-.082-.046-.364-.046-.364-.3.451-.385-.082-.385-.082,1.179-1.138.513-3.077.513-3.077C92.53,68.657,91.5,69,91.5,69c-1.61-.062-1.867,2.338-1.974,2.421s-.041.646,0,.754a.961.961,0,0,1,.087.662c-.087.344-.513.3-.513.3a.329.329,0,0,0,.082.323c-.149.041-.256-.149-.256-.149-.108.277.195.6.195.6h-.108l.221.036-.221-.036-.113.036a11.337,11.337,0,0,0-1.241.41c-.426.19-.338,2.251-.338,2.251.19.749-.39,8.251-.39,8.251l.39.046a.177.177,0,0,0-.036.062,1.425,1.425,0,0,0,.118.667,4.072,4.072,0,0,1,.513.513.893.893,0,0,0,.749.323c.277,0-.149-.256-.149-.256.3,0,0-.364,0-.364l.041-.451c.277-.087-.067-.236-.067-.236a.948.948,0,0,0-.128-.344h0l.082-.1a22.577,22.577,0,0,1,.313-5.779c.236.3-.128,3.559-.128,3.559a1.885,1.885,0,0,0,.174,1.256v.031a9.585,9.585,0,0,0,.569,3.99c.436,1.508.954,2.913.954,2.913a1.743,1.743,0,0,0,.062.579c-.277.795.841,4.226.969,4.821a3.475,3.475,0,0,1-.323,1.61h0c-.431.226-.559,1.636-.559,1.636.149.215.728.128.728.128.174,1.538,1.328,1.482,1.328,1.482.4-.431.159-1.338-.031-1.862-.087-.236-.159-.39-.159-.39h.215a1.608,1.608,0,0,1,.082-1.118.26.26,0,0,0,0-.056,1.941,1.941,0,0,0-.169-1.21.608.608,0,0,1,0-.215,6.31,6.31,0,0,1,.251-.918,19.229,19.229,0,0,0,.431-4.333,6.179,6.179,0,0,1,.108-1.113,10.908,10.908,0,0,0,.626-2.431l.041-.062.6-.174h0a6.363,6.363,0,0,1-.118-1.738,4.752,4.752,0,0,0-.041-1.738v-.067h0l.19-.3c.236-.472-.836-2.379-.836-2.379l.344-.344c.082.451,1.287,1.026,1.287,1.026.738-.256.585-1.846.585-2.021h0a1.15,1.15,0,0,0,.277-.579h.041l.585.164C96.991,79.128,96.9,78.939,96.9,78.939Zm-4.81-3.262-.031-.031Zm.256.236-.046-.046ZM91.463,73.6l-.077-.072Zm0-3.251h0Zm-1.605,3.81.082.036Zm1.467-3.692h0Zm-1.615,3.651a1.139,1.139,0,0,0-.19-.062,1.139,1.139,0,0,1,.19.062Zm-.246-.077L89.3,74Z" transform="translate(-57.684 -58.277)" fill="#231f20"/>
                <path id="Path_73225" data-name="Path 73225" d="M126.1,76.534a9.311,9.311,0,0,1-.246-2.256,3.589,3.589,0,0,0-.344-1.785c-.246-.282-.123-.513-.123-.908V70.18c0-.113.159-1.538-.282-1.744-.169-.087-.277-.154-.349-.2a.656.656,0,0,1-.133-.123s.072-.477-.159-.513-.185-.077-.138-.3a.573.573,0,0,0-.062-.513c-.1-.108.062-.123.062-.221a.988.988,0,0,0-.205-.431s.328-.713.082-.7c0,0,.41-.677.087-.826a.512.512,0,0,1-.133-.231s-.359-1.221-1.882-.631a1.891,1.891,0,0,0-.692,1.256s-.256-.051.077.949a2.658,2.658,0,0,0-.369.846s0,.41-.164.544-.123.185-.133.272-.149.405-.256.415h-.051a1.026,1.026,0,0,0-1.056,1.026,16.3,16.3,0,0,0,.046,2.051,3.5,3.5,0,0,1-.272,1.492,5.138,5.138,0,0,0-.328,1.944,4.517,4.517,0,0,1-.333,1.836c-.256.3-.544.615-.513.826a2.9,2.9,0,0,0,.062.564.638.638,0,0,0,.379.072s.195.051.236,0l.036-.062s.185-.185.072-.149,0-.221,0-.308.456-.59.359-.933.195-.754.415-1.308a10.167,10.167,0,0,0,.713-2.692,2.472,2.472,0,0,1,.056-.605h0v-.062a2.673,2.673,0,0,0,.123-.749,2.094,2.094,0,0,1,.149,1.4c-.174.672-.554,1.713-.744,2.564a1.9,1.9,0,0,1-.056.3,6.455,6.455,0,0,0,.262,3.036,9.007,9.007,0,0,1,.415,1.492c.082.379.144.718.21.923,0,0,.036.826.1,1.169a6.006,6.006,0,0,0,.195,2.564s.272.826.359,1.226a.815.815,0,0,1,0,.2,3.008,3.008,0,0,1-.087.544,1.977,1.977,0,0,0-.308,1.092,1.169,1.169,0,0,1,.1.615c-.062.272-.287,1.277.467,1.267h0s0,.923.441,1.026.959.1.985-.385-.108-.872-.072-1.256a3.971,3.971,0,0,0-.236-1.621,1.323,1.323,0,0,1-.138-.574,3.99,3.99,0,0,1,.031-1.262,10.694,10.694,0,0,0,.7-3.138,1.54,1.54,0,0,1,.236-1.3,6.27,6.27,0,0,0,.282-.759h0c.256-.774.549-1.8.549-1.8a5.075,5.075,0,0,0,.513-3.077.48.48,0,0,0-.041-.236c-.041-.077-.159-.185-.159-.272a3.929,3.929,0,0,0-.056-.554,2.94,2.94,0,0,0,.087.292,9.319,9.319,0,0,1,.564,2.051s0,.626.282.862c0,0,.123.185.087.256s-.149-.087-.026.149c0,0-.133.149.036.195,0,0,.333.262.395.1l.246-.138s.1-.564.113-.626v-.062A4.652,4.652,0,0,0,126.1,76.534Zm-3.021-9.195a.2.2,0,0,0,.185.031.144.144,0,0,1-.185-.031Zm-.933,13.821v.513c-.005-.179,0-.338,0-.513Zm.036,3.867v-.292c-.005.1,0,.195,0,.292Zm-.031-4.1a7.3,7.3,0,0,1,.026-.754c-.01.236-.021.487-.026.738Zm.026,3.328v-.328c-.005.092-.005.2,0,.313Zm0-.923v-.513a3.143,3.143,0,0,0-.015.5Zm0-.862V82a2.2,2.2,0,0,0-.031.456Zm.031,3.113v.241a.793.793,0,0,1-.031-.256Zm-.262,3.2v-.128c.005.021-.026.067-.031.113Zm.113-.749a.439.439,0,0,1,0-.082.393.393,0,0,0-.031.067Zm.067-.677v-.082c0-.031-.026.041-.031.067Zm.051-.713a.828.828,0,0,1,0-.113v.113Z" transform="translate(-72.931 -55.652)" fill="#231f20"/>
                <path id="Path_73226" data-name="Path 73226" d="M146.98,87.531v-.046a.711.711,0,0,0-.226-.323V86.88c.185-.036.164-.59.138-.9a.443.443,0,0,0,0-.1.184.184,0,0,0-.226-.154,4.69,4.69,0,0,0-1.251-.6s-.056.036-.082-.067c0-.012,0-.024,0-.036a5.775,5.775,0,0,1,.221-.949c.026-.118-.164-.338-.251-.431l.21-.631h-.185l-.036.1a.159.159,0,0,0-.046-.046.9.9,0,0,1,.072-.215c.056-.154.123-.323.123-.323a1.113,1.113,0,0,0-.308-1.221,1.538,1.538,0,0,0-1.651-.241c-.805.185-.733,1.436-.733,1.436-.205,0,0,.856,0,1.026a4.536,4.536,0,0,0,.144.579,2.9,2.9,0,0,0,.205.487,1,1,0,0,0,.138.21h0a.441.441,0,0,1-.067-.072,1.553,1.553,0,0,1-.185-.323,3.891,3.891,0,0,1-.251-.831.139.139,0,0,0,0-.046,3.443,3.443,0,0,0,.041.513l-.195.138-.595.426h-.067a6.17,6.17,0,0,0-1.831.482h-.195c-.3-.046-.446.713-.662,1.641s-.323,1.733-.585,2.487a12.684,12.684,0,0,0-.359,2.918c0,.513-.123,1.985-.123,1.985s.1-.031.133,0h0a.251.251,0,0,1,0,.205.2.2,0,0,0,.067.231,3.667,3.667,0,0,1,.344.513c.21.159.554-.092.554-.092v.056a2.324,2.324,0,0,0,0,.292.084.084,0,0,1,0,.036.768.768,0,0,1,.026.1.513.513,0,0,0,.451.431.606.606,0,0,0,.267-.036V96.1a5.827,5.827,0,0,1,.092,1.026,4.77,4.77,0,0,0,.251,1.421c.1.313.231.436.174.667a10,10,0,0,0,.092,1.7c.046.462.1,1.026.179,1.482a5.808,5.808,0,0,1,0,1.595.745.745,0,0,0-.046.4c0,.195.195.241.323.446a2.361,2.361,0,0,1,.179.333s.046,0,0,.062a.106.106,0,0,0,0,.036c-.046.123-.118.431-.118.431a1.052,1.052,0,0,0-.082.513c.046.3.836.277.836.277.7,0,.631-.231.631-.231.072-.159-.056-.513-.082-.641a1.827,1.827,0,0,1,0-.374v-.1c0-.1.092-.169.113-.272s.221-.379.231-.482-.3-.513-.3-.513-.026.138,0-.046.031-2.615,0-3.031a9.257,9.257,0,0,1,.138-1.882,2.4,2.4,0,0,0,.159-.764,11.147,11.147,0,0,1,.185-1.277c.046.149.195,1.149.272,1.538a11.062,11.062,0,0,1-.031,1.749c0,.4-.1,1.821-.164,2.374s-.159,1.651-.205,1.754a6.369,6.369,0,0,0-.128.805,12.137,12.137,0,0,0,.072,1.538c.056.174.128.369.128.369l.041-.056.036.046a.128.128,0,0,1,0,.1,1.926,1.926,0,0,0-.113.677c-.082.026,0,.164,0,.164a3.869,3.869,0,0,0,1.538-.062c.1-.113,0-.133,0-.133.082-.092-.159-.738-.159-.738l.031-.185a.288.288,0,0,0,0-.051c.051-.21.231-.646.282-.933s-.205-.344-.041-.677a11.1,11.1,0,0,0,.446-1.615,7.138,7.138,0,0,0,.031-1.185,8.61,8.61,0,0,0,.036-1.436c-.036-.41-.113,0-.046-.354s-.046-.446,0-.769-.046-.277,0-.379,0-.159.046-.379a3.066,3.066,0,0,1,.1-.364c.046-.159,0-.195.026-.277a2.021,2.021,0,0,0,.077-.513c0-.221.128-.462.159-.713s-.041-.195.082-.369,0-.308.056-.456a.964.964,0,0,0-.031-.415.544.544,0,0,1,.113-.159h0l.62-.364a.224.224,0,0,1,0-.159s-.215-5.913-.215-5.985h0a6.07,6.07,0,0,1,.513.41c.3.082.333,0,.333,0,.6-.056.677-.9.677-.9C147.657,88.2,146.98,87.531,146.98,87.531Zm-2.641-2.451h0Zm.082,0a.307.307,0,0,0,.072-.031.337.337,0,0,1-.072-.015Zm.785-2.877-.179-.041Zm-.513-.092h0Zm.164,0h0Zm-.677-.026h0Zm.144,0h0Zm-.282.051a.247.247,0,0,0-.062,0,.254.254,0,0,1,.056-.026Zm-.128.036h0Zm-.118.051h0Zm-.113.056h0Zm-.1.067h0Zm-.1.077h0Zm-.087.082h0s-.01-.021-.005-.026Zm2.323,6.621V89.1a1.127,1.127,0,0,1,.277.154Z" transform="translate(-82.642 -64.101)" fill="#231f20"/>
                <line id="Line_149" data-name="Line 149" x2="6.046" y2="1.503" transform="translate(22.974 39.523)" fill="none" stroke="#231f20" stroke-width="0.872"/>
                <line id="Line_150" data-name="Line 150" y1="4.436" x2="4.492" transform="translate(41.153 34.979)" fill="none" stroke="#231f20" stroke-width="0.872"/>
                <line id="Line_151" data-name="Line 151" x2="4.61" y2="4.046" transform="translate(52.615 36.349)" fill="none" stroke="#231f20" stroke-width="0.872"/>
                <line id="Line_152" data-name="Line 152" y1="7.118" x2="10.092" transform="translate(22.933 27.805)" fill="none" stroke="#231f20" stroke-width="0.872"/>
                <line id="Line_153" data-name="Line 153" x1="13.154" y1="4.226" transform="translate(32.733 27.369)" fill="none" stroke="#231f20" stroke-width="0.872"/>
              </g>
              <path id="Shape-3" data-name="Shape" d="M29.915,53.741s3.138-5.431,16.231-7.179C59.33,44.808,68.52,50.849,84.31,48.449c5.569-.846,9.744-1.795,10.769-5.087l9.318,41.1A31.378,31.378,0,0,1,83.52,92.018c-13.185,0-25.877-7.046-44.559,5.062Z" transform="translate(-27.295 -43.183)" fill="url(#linear-gradient-3)"/>
              <path id="Shape-4" data-name="Shape" d="M29.835,53.391s3.138-5.436,16.226-7.179C59.25,44.458,68.435,50.5,84.23,48.1,89.8,47.253,93.973,46.3,95,43.012L104.3,84.1a31.394,31.394,0,0,1-20.882,7.554c-13.19,0-25.851-7.021-44.523,5.072Z" transform="translate(-27.256 -43.012)" fill="url(#linear-gradient-4)"/>
              <path id="Shape-5" data-name="Shape" d="M27.067,59.48s-.323-.513-1.354-.277-.9.836-.9.836L35.6,114.244c0,.2.477.431,1.631.241a1.631,1.631,0,0,0,1.108-.585Z" transform="translate(-24.805 -50.87)" fill="url(#linear-gradient-5)"/>
              <path id="Shape-6" data-name="Shape" d="M35.525,106.418c.667-.154,1.21-.185,1.256-.062L27.745,62.91h0c-.087-.169-.6-.185-1.19-.041s-1.087.431-1.026.621l8.821,43.5C34.325,106.864,34.853,106.577,35.525,106.418Z" transform="translate(-25.156 -52.638)" fill="#9c131d"/>
              <path id="Shape-7" data-name="Shape" d="M64.26,112.755c-.056,1.538-2.3,2.718-5.015,2.564s-4.867-1.538-4.81-3.077,2.3-2.723,5.01-2.564S64.311,111.186,64.26,112.755Z" transform="translate(-39.239 -75.484)" fill="none" stroke="#fff" stroke-width="0.872"/>
              <path id="Shape-8" data-name="Shape" d="M94.887,119.822c-.077,2.128-3.123,3.692-6.8,3.492s-6.605-2.082-6.533-4.21,3.118-3.692,6.8-3.5S94.959,117.694,94.887,119.822Z" transform="translate(-52.451 -78.371)" fill="none" stroke="#fff" stroke-width="0.872"/>
              <path id="Shape-9" data-name="Shape" d="M144.7,123.47c-.056,1.605-2.354,2.79-5.128,2.641s-4.99-1.574-4.933-3.179,2.354-2.79,5.128-2.641S144.752,121.854,144.7,123.47Z" transform="translate(-78.311 -80.654)" fill="none" stroke="#fff" stroke-width="0.872"/>
              <path id="Shape-10" data-name="Shape" d="M123.345,105.932c-.062,1.733-2.538,3.005-5.533,2.846s-5.374-1.672-5.318-3.431,2.564-3,5.538-2.856S123.4,104.2,123.345,105.932Z" transform="translate(-67.525 -71.984)" fill="none" stroke="#fff" stroke-width="0.872"/>
              <path id="Shape-11" data-name="Shape" d="M60.432,70.645l-1.026-.195h0l-.887-.267c-.1-.056-.195-.128-.195-.128s.087.164-.046,0a.513.513,0,0,1-.031-.446c.087-.179.241-.569.241-.569a.964.964,0,0,0,.1-.944,1.879,1.879,0,0,0,0-.462.773.773,0,0,0,0-.1.773.773,0,0,1,0,.1,4.5,4.5,0,0,0-.046-.585h0c-.113-.79-1.482-.656-1.482-.656a.994.994,0,0,0-1.026.872h0a2.215,2.215,0,0,0,0,.605,3.074,3.074,0,0,0,.082.482c-.3.21.072.79.072.79-.026.169.241.513.241.513.092.108,0,.482,0,.482l-.19.077h0l-.062.031h0l-1.949.7s-.774,4.072-.949,5.754a15.919,15.919,0,0,0,0,3.1l.246-.092a.063.063,0,0,0,0,.031,3.594,3.594,0,0,0,.133,1.154,3.485,3.485,0,0,0,.241.656c.077.092.6.513.6.513.1.108.118-.133.118-.133.092,0-.092-.344-.195-.436s-.118-.374-.149-.446a.764.764,0,0,1-.046-.318.164.164,0,0,1,.149-.149c.108,0,.195.405.195.405a.556.556,0,0,0,.318.328c.195,0-.164-.764-.164-.764a3.151,3.151,0,0,0-.482-1.062.211.211,0,0,1-.036-.056l.344-.133-.046-.349c.067-.856.774-4.3.774-4.3l-.272,4.3.21.041a14.2,14.2,0,0,0,.026,2.836c.072.749.374,2.528.374,2.528s.072,1.3.133,1.538.221-.072.118.826a13.663,13.663,0,0,0,.272,3.138,5.3,5.3,0,0,1,.133.687,5.192,5.192,0,0,0,.067.738.2.2,0,0,0,.1.067c.241.067-.077.585-.077.585a.824.824,0,0,0-.149.687c.179.39,1.169.241,1.169.241a.644.644,0,0,0,.374-.39c0-.092.21-.882.236-1.026a3.434,3.434,0,0,0,0-.436.353.353,0,0,1,.031-.149c.077-.108,0-.21.031-.405a4.45,4.45,0,0,0-.031-.882c-.041-.287-.179-1.738-.164-2.051a11.1,11.1,0,0,0-.1-1.538c-.046-.19-.149-.415,0-.579a1.635,1.635,0,0,0,.149-.677,21.868,21.868,0,0,0,.226-2.528c.21.031.626,1.026.569,1.185s0,.149.1.282.164.179.133.344a.632.632,0,0,0,0,.405.375.375,0,0,1,.031.39c-.062.179.077.046.164.256s-.031.133-.133.4-.795,2.292-.795,2.292l-.087.179c-.092.179.585.9.585.9h0a2.905,2.905,0,0,1,.385.892c-.026.513.6.913.6.913.405.282.851-.179.851-.179.226-.482-.221-.687-.282-.974s-.174-.59-.236-.882a4.512,4.512,0,0,1,.282-.944,1.638,1.638,0,0,0,.149-.805,4,4,0,0,1,.421-1.185c.118-.149.072-.118.041-.267s-.087-.031.092-.241-.077-.241.062-.313,0-.21,0-.467a2.107,2.107,0,0,1,.164-.656c.092-.328-.138-.405-.154-.569s-.041-.359-.087-.928-.092-1.421-.1-1.585a.738.738,0,0,1-.082-.61v-.1c-.1.041-.179-.246-.19-.313a2.31,2.31,0,0,1,0-.595,3.2,3.2,0,0,1,.077-.436,4.587,4.587,0,0,0-.108-.662.244.244,0,0,0-.036-.159.53.53,0,0,1-.092.128L60.15,73.43s.513,2.5.605,3.077a5.7,5.7,0,0,1-.133,1.585,2.994,2.994,0,0,0,.272.287,1.186,1.186,0,0,1-.179.282c0-.012,0-.024,0-.036h0a2.526,2.526,0,0,0-.067.344,2.9,2.9,0,0,0,0,.472,1.458,1.458,0,0,0,.056.292c0,.051.072.205.138.169v-.046a.14.14,0,0,0,0-.036,3.663,3.663,0,0,0,.087-.426c.313-.031-.082.667-.087.672a.612.612,0,0,0,0,.359.914.914,0,0,0,.082.195c.056.046.205-.092.205-.092.149.092.374-.195.374-.195.123.031.359-.369.359-.369l.077-.318a2.87,2.87,0,0,0-.164-.851s.118-2.364.174-3.077A35.878,35.878,0,0,0,60.432,70.645Zm-3.908-3.451v0Z" transform="translate(-38.642 -54.399)" fill="#fff"/>
              <path id="Shape-12" data-name="Shape" d="M91.809,73.839a5.6,5.6,0,0,0-.779-.3h0c-.082,0-.082-.087-.077-.149a.484.484,0,0,1,0-.067l.621-.815-.749-.836L89.43,72.7c-.215-.046.169-2.123.169-2.123a.578.578,0,0,0-.133-.405,2.984,2.984,0,0,0-.6-.595c-.041-.031-.082-.067-.123-.092l-.215-.154c.174-.108.087-.446.087-.446a.246.246,0,0,1-.344.169c.149-.087-.041-.364-.041-.364-.3.451-.39-.087-.39-.087,1.179-1.133.513-3.077.513-3.077-.944-1.969-1.974-1.626-1.974-1.626-1.605-.067-1.867,2.333-1.969,2.421s-.046.641,0,.749a.975.975,0,0,1,.1.687c-.082.344-.513.3-.513.3a.333.333,0,0,0,.087.318c-.149.046-.256-.149-.256-.149-.108.277.19.6.19.6l-.1.031.215.036-.215-.036-.118.031a11.252,11.252,0,0,0-1.236.41c-.431.195-.344,2.251-.344,2.251.195.754-.385,8.256-.385,8.256l.385.041a.153.153,0,0,0-.031.067,1.342,1.342,0,0,0,.118.662,4.363,4.363,0,0,1,.513.513.9.9,0,0,0,.754.323c.277,0-.154-.262-.154-.262.3,0,0-.364,0-.364l.046-.446c.277-.087-.067-.241-.067-.241a.921.921,0,0,0-.128-.338h0l.082-.1a22.649,22.649,0,0,1,.3-5.831c.236.3-.128,3.559-.128,3.559a1.927,1.927,0,0,0,.19,1.272h0a9.577,9.577,0,0,0,.564,3.995c.431,1.508.974,2.938.974,2.938a1.6,1.6,0,0,0,.062.574c-.277.795.836,4.226.964,4.826a3.52,3.52,0,0,1-.318,1.61c-.436.226-.559,1.641-.559,1.641.149.21.728.128.728.128.169,1.538,1.328,1.477,1.328,1.477.4-.426.159-1.333-.031-1.856-.087-.236-.164-.395-.164-.395h.215a1.6,1.6,0,0,1,.087-1.113v-.062a1.931,1.931,0,0,0-.164-1.205.585.585,0,0,1,0-.215,6.187,6.187,0,0,1,.256-.923,19.094,19.094,0,0,0,.426-4.328,6.18,6.18,0,0,1,.108-1.113,10.775,10.775,0,0,0,.626-2.446l.026-.046.6-.169h0a6.333,6.333,0,0,1-.113-1.738,4.838,4.838,0,0,0-.041-1.733v-.067h0l.19-.3c.236-.472-.836-2.374-.836-2.374l.344-.349c.087.451,1.287,1.026,1.287,1.026.713-.226.574-1.81.559-1.979h0a1.135,1.135,0,0,0,.277-.579h.036l.585.164C91.917,74.033,91.809,73.839,91.809,73.839Zm-4.815-3.256-.031-.031Zm.251.231-.051-.046ZM86.353,68.5l-.077-.072Zm-1.615.559.082.031Zm2.979.272h0v-.195a.618.618,0,0,0-.015.19Zm-3.1-.313-.19-.062Zm-.246-.077-.144-.041Z" transform="translate(-52.589 -53.177)" fill="#fff"/>
              <path id="Shape-13" data-name="Shape" d="M121.02,71.414a9.021,9.021,0,0,1-.246-2.251,3.661,3.661,0,0,0-.344-1.785c-.246-.282-.123-.544-.123-.913v-1.4c0-.108.164-1.538-.282-1.749a2.445,2.445,0,0,1-.349-.2c-.118-.082-.128-.118-.128-.118s.072-.482-.164-.544-.185-.072-.133-.292a.57.57,0,0,0-.062-.513c-.1-.1.062-.123.062-.226a1.026,1.026,0,0,0-.21-.431s.333-.713.087-.7c0,0,.405-.677.087-.826a.514.514,0,0,1-.138-.236s-.354-1.215-1.882-.626a1.891,1.891,0,0,0-.687,1.256s-.256-.051.072.944a2.778,2.778,0,0,0-.369.851s0,.405-.159.544-.123.185-.133.267-.149.41-.262.421H115.6a1.026,1.026,0,0,0-1.056,1.026,16.5,16.5,0,0,0,.051,2.051,3.689,3.689,0,0,1-.272,1.5,5.024,5.024,0,0,0-.333,1.944,4.485,4.485,0,0,1-.328,1.831c-.256.292-.544.615-.513.826a3.481,3.481,0,0,0,.062.569.7.7,0,0,0,.385.072s.195.046.231,0l.036-.056s.185-.19.077-.149,0-.226,0-.308.456-.59.354-.938.2-.749.421-1.3a10.349,10.349,0,0,0,.713-2.7,2.676,2.676,0,0,1,.051-.6h0a.247.247,0,0,0,0-.062,2.583,2.583,0,0,0,.128-.754,2.141,2.141,0,0,1,.149,1.405c-.179.672-.559,1.713-.744,2.564a1.736,1.736,0,0,1-.056.292,6.462,6.462,0,0,0,.256,3.041,8.894,8.894,0,0,1,.415,1.492c.082.379.149.713.21.918,0,0,.041.826.1,1.169a5.917,5.917,0,0,0,.195,2.564s.267.831.354,1.231a.473.473,0,0,1,.026.2c-.036.133,0,.456-.082.513a1.956,1.956,0,0,0-.308,1.1,1.154,1.154,0,0,1,.1.615c-.062.267-.292,1.277.467,1.267h0s0,.923.446,1.026.959.1.985-.379-.113-.872-.077-1.256a3.916,3.916,0,0,0-.231-1.626,1.3,1.3,0,0,1-.138-.574,3.855,3.855,0,0,1,0-1.256,10.9,10.9,0,0,0,.7-3.138,1.573,1.573,0,0,1,.236-1.308c.067-.138.169-.426.282-.754h0c.256-.779.549-1.8.549-1.8a5.075,5.075,0,0,0,.513-3.077.51.51,0,0,0-.041-.241c-.041-.082-.164-.179-.164-.272A3.341,3.341,0,0,0,119.7,69l.087.292a9.285,9.285,0,0,1,.569,2.051s0,.631.282.862c0,0,.123.185.087.262,0,0-.149-.087-.026.149,0,0-.138.144.036.195,0,0,.333.256.395.1l.246-.133.108-.631v-.062A4.628,4.628,0,0,0,121.02,71.414ZM118,62.224a.185.185,0,0,0,.185,0,.144.144,0,0,1-.185,0Zm-.933,13.846v.513c-.005-.2-.005-.369,0-.538Zm.031-.236V75.08c-.015.21-.021.462-.026.713Zm0,3.323v-.328c-.005.072-.005.159-.005.287Zm0-.923v-.513a2.731,2.731,0,0,0-.021.472Zm0-.862v-.467a1.385,1.385,0,0,0-.031.426Zm-.256,6.313v-.128c.01.005,0,.046-.005.087Zm.108-.744a.5.5,0,0,0,0-.087c0,.015,0,.031-.005.046Zm.072-.682v-.077c0-.026-.005.01-.005.036Zm.046-.713a.757.757,0,0,0,0-.108V81.5s-.005-.01-.005.005Z" transform="translate(-67.845 -50.532)" fill="#fff"/>
              <path id="Shape-14" data-name="Shape" d="M141.929,82.441a.172.172,0,0,0,0-.051.682.682,0,0,0-.221-.318v-.287c.185-.036.159-.585.138-.892a.488.488,0,0,0,0-.1.186.186,0,0,0-.077-.125.183.183,0,0,0-.144-.029,4.884,4.884,0,0,0-1.251-.595s-.056.036-.082-.067a.071.071,0,0,1,0-.036,5.461,5.461,0,0,1,.215-.954c.031-.113-.159-.333-.246-.431l.251-.626h-.185l-.036.092a.159.159,0,0,0-.046-.046,1.2,1.2,0,0,1,.067-.215c.056-.149.128-.323.128-.323a1.108,1.108,0,0,0-.308-1.215,1.538,1.538,0,0,0-1.651-.241c-.805.185-.738,1.436-.738,1.436-.2,0,0,.851,0,1.026a5.752,5.752,0,0,0,.144.585,3.624,3.624,0,0,0,.205.513.89.89,0,0,0,.144.205.044.044,0,0,0,0,.026h0a.908.908,0,0,1-.067-.067,1.827,1.827,0,0,1-.18-.323,3.681,3.681,0,0,1-.251-.831.139.139,0,0,1,0-.046,2.915,2.915,0,0,0,.041.513l-.195.138-.6.421h-.067a6.173,6.173,0,0,0-1.826.482H134.9c-.3-.046-.446.708-.667,1.636a24.268,24.268,0,0,1-.585,2.492,12.93,12.93,0,0,0-.354,2.913c0,.513-.128,1.985-.128,1.985s.108-.031.133.031h0a.273.273,0,0,1,0,.205.2.2,0,0,0,.072.231,4.218,4.218,0,0,1,.344.513c.205.159.549-.092.549-.092v.056a1.584,1.584,0,0,0,0,.287v.036a.51.51,0,0,0,.026.1c.092.328.282.421.446.436a.72.72,0,0,0,.272-.036v.159a5.973,5.973,0,0,1,.087,1.026,4.943,4.943,0,0,0,.256,1.426c.1.308.226.436.169.667a10.676,10.676,0,0,0,.092,1.7c.046.456.1,1.026.185,1.482a5.542,5.542,0,0,1,0,1.59.753.753,0,0,0-.041.405c0,.195.19.241.318.446a2.89,2.89,0,0,1,.185.333s.046-.026,0,.056v.041a4.134,4.134,0,0,0-.123.431,1.117,1.117,0,0,0-.082.513c.046.3.841.277.841.277.7,0,.631-.231.631-.231a1.442,1.442,0,0,0-.082-.641,1.524,1.524,0,0,1,0-.374v-.1c0-.1.092-.174.118-.277s.215-.379.226-.482-.3-.513-.3-.513v-.041c0-.179.036-2.621,0-3.031a9.972,9.972,0,0,1,.138-1.882,2.144,2.144,0,0,0,.159-.769,11.305,11.305,0,0,1,.185-1.272c.046.149.195,1.144.277,1.538a10.421,10.421,0,0,1-.036,1.744c0,.4-.1,1.826-.159,2.374s-.159,1.651-.205,1.759a5.615,5.615,0,0,0-.128.8,12.239,12.239,0,0,0,.067,1.538l.128.369.046-.062.036.046h0a.175.175,0,0,1,0,.1,1.914,1.914,0,0,0-.113.677c-.082,0,0,.159,0,.159a3.9,3.9,0,0,0,1.538-.056c.108-.113,0-.138,0-.138.082-.092-.159-.733-.159-.733l.036-.185a.213.213,0,0,1,0-.051c.056-.21.236-.651.287-.933s-.205-.349-.046-.677a10.373,10.373,0,0,0,.446-1.621,6.522,6.522,0,0,0,.036-1.179,9.2,9.2,0,0,0,.036-1.436c-.036-.415-.118,0-.046-.354s-.046-.451-.026-.769-.046-.277,0-.379,0-.159.041-.379a3,3,0,0,1,.108-.364c.046-.164-.026-.2,0-.277a2.024,2.024,0,0,0,.082-.513,6.449,6.449,0,0,1,.159-.708c.036-.251-.046-.195.082-.369s0-.308.056-.456a.919.919,0,0,0-.036-.415.632.632,0,0,1,.118-.159h0l.621-.359a.255.255,0,0,1,0-.159s-.272-5.99-.262-6.056h0a6.071,6.071,0,0,1,.513.41c.3.082.333-.026.333-.026.595-.056.677-.892.677-.892C142.606,83.1,141.929,82.441,141.929,82.441ZM139.2,79.985h0Zm.092,0h0Zm.082,0,.072-.031Zm.779-2.877-.179-.046Zm-.513-.1h0Zm.164,0h0Zm-.682,0h0Zm-.133.046h0Zm-.128.041h0Zm-.123.046a.182.182,0,0,1-.041,0,.164.164,0,0,0,.041-.041Zm-.108.062h0Zm-.108.067h0Zm-.092.072h0Zm2.241,6.738v-.031a.959.959,0,0,1,.277.154.553.553,0,0,0-.277-.19Z" transform="translate(-77.596 -59.006)" fill="#fff"/>
              <line id="Shape-15" data-name="Shape" x2="6.051" y2="1.503" transform="translate(22.969 39.528)" fill="none" stroke="#fff" stroke-width="0.872"/>
              <line id="Shape-16" data-name="Shape" y1="4.436" x2="4.497" transform="translate(41.149 34.984)" fill="none" stroke="#fff" stroke-width="0.872"/>
              <line id="Shape-17" data-name="Shape" x2="4.61" y2="4.046" transform="translate(52.61 36.354)" fill="none" stroke="#fff" stroke-width="0.872"/>
              <line id="Shape-18" data-name="Shape" y1="7.118" x2="10.087" transform="translate(22.933 27.81)" fill="none" stroke="#fff" stroke-width="0.872"/>
              <line id="Shape-19" data-name="Shape" x1="13.154" y1="4.226" transform="translate(32.733 27.374)" fill="none" stroke="#fff" stroke-width="0.872"/>
            </g>
          </g>
        </g>
      </g>
    </g>
  </g>
</svg>
