<svg xmlns="http://www.w3.org/2000/svg" viewBox="0 0 48 48"><path fill="#eceff1" d="M44,24c0,11-9,20-20,20S4,35,4,24S13,4,24,4S44,13,44,24z"/><path fill="#cfd8dc" d="M24,4c11,0,20,9,20,20s-9,20-20,20V4z"/><path fill="#ff3d00" d="M20,28l8-8l-14.5-7.9c-0.9-0.5-1.9,0.5-1.4,1.4L20,28z"/><path fill="#dd2c00" d="M24,24l4-4l-14.5-7.9c-0.4-0.3-0.9-0.1-1.2,0.2L24,24z"/><path fill="#fff" d="M28,20l-8,8l14.5,7.9c0.9,0.5,1.9-0.5,1.4-1.4L28,20z"/><path fill="#b0bec5" d="M24,24l-4,4l14.5,7.9c0.4,0.3,0.9,0.1,1.2-0.2L24,24z"/><path fill="#dd2c00" d="M24,20c-2.2,0-4,1.8-4,4c0,1.1,0.4,2.1,1.2,2.8l5.7-5.7C26.1,20.4,25.1,20,24,20z"/><path fill="#b0bec5" d="M24,28c2.2,0,4-1.8,4-4c0-1.1-0.4-2.1-1.2-2.8l-5.7,5.7C21.9,27.6,22.9,28,24,28z"/><path fill="#fff" d="M26,24c0,1.1-0.9,2-2,2s-2-0.9-2-2s0.9-2,2-2S26,22.9,26,24z"/><path fill="#455a64" d="M24,45C12.4,45,3,35.6,3,24C3,12.4,12.4,3,24,3c11.6,0,21,9.4,21,21C45,35.6,35.6,45,24,45z M24,5 C13.5,5,5,13.5,5,24s8.5,19,19,19s19-8.5,19-19S34.5,5,24,5z"/></svg>