<svg xmlns="http://www.w3.org/2000/svg" xmlns:xlink="http://www.w3.org/1999/xlink" width="100" height="100" viewBox="0 0 100 100">
  <defs>
    <linearGradient id="linear-gradient" x1="-1.069" y1="2.525" x2="-1.069" y2="2.53" gradientUnits="objectBoundingBox">
      <stop offset="0" stop-color="#edbc46"/>
      <stop offset="0.27" stop-color="#eda44c"/>
      <stop offset="0.61" stop-color="#c48031"/>
      <stop offset="0.8" stop-color="#d89d3b"/>
      <stop offset="1" stop-color="#ffed95"/>
    </linearGradient>
    <linearGradient id="linear-gradient-2" x1="-1.138" y1="2.629" x2="-1.133" y2="2.629" xlink:href="#linear-gradient"/>
    <radialGradient id="radial-gradient" cx="0.496" cy="0.505" r="0.499" gradientTransform="matrix(1, 0, 0, -1, 0, 5.472)" gradientUnits="objectBoundingBox">
      <stop offset="0" stop-color="#7d1416"/>
      <stop offset="0.09" stop-color="#981819"/>
      <stop offset="0.26" stop-color="#c61f1f"/>
      <stop offset="0.39" stop-color="#e22323"/>
      <stop offset="0.46" stop-color="#ed2524"/>
      <stop offset="0.87" stop-color="#ec1e24"/>
      <stop offset="0.89" stop-color="#db1c22"/>
      <stop offset="0.94" stop-color="#a41619"/>
      <stop offset="0.98" stop-color="#811214"/>
      <stop offset="1" stop-color="#741112"/>
    </radialGradient>
    <radialGradient id="radial-gradient-2" cx="0.5" cy="0.525" r="0.5" gradientTransform="matrix(0.006, -1, -1, -0.006, 1.578, 1.588)" gradientUnits="objectBoundingBox">
      <stop offset="0" stop-color="#5e0000"/>
      <stop offset="0.61" stop-color="#5e0000"/>
      <stop offset="0.87" stop-color="#5e0000"/>
      <stop offset="1" stop-color="#be1e2d"/>
    </radialGradient>
    <linearGradient id="linear-gradient-3" x1="-1.625" y1="4.274" x2="-1.618" y2="4.276" gradientUnits="objectBoundingBox">
      <stop offset="0" stop-color="#4d1211"/>
      <stop offset="0.02" stop-color="#521312"/>
      <stop offset="0.04" stop-color="#601414"/>
      <stop offset="0.06" stop-color="#781718"/>
      <stop offset="0.08" stop-color="#991b1d"/>
      <stop offset="0.11" stop-color="#c32024"/>
      <stop offset="0.12" stop-color="#d82327"/>
      <stop offset="0.29" stop-color="#ae524f"/>
      <stop offset="0.43" stop-color="#912829"/>
      <stop offset="0.5" stop-color="#851719"/>
      <stop offset="0.78" stop-color="#d52427"/>
    </linearGradient>
    <linearGradient id="linear-gradient-4" x1="-1.625" y1="4.278" x2="-1.618" y2="4.279" gradientUnits="objectBoundingBox">
      <stop offset="0" stop-color="#ffc906"/>
      <stop offset="0.1" stop-color="#ffc701"/>
      <stop offset="0.12" stop-color="#ffc600"/>
      <stop offset="0.29" stop-color="#ffe394"/>
      <stop offset="0.3" stop-color="#ffe28e"/>
      <stop offset="0.5" stop-color="#ffd545"/>
      <stop offset="0.63" stop-color="#ffcc18"/>
      <stop offset="0.7" stop-color="#ffc906"/>
    </linearGradient>
    <linearGradient id="linear-gradient-5" x1="-8.458" y1="3.952" x2="-8.458" y2="3.952" gradientUnits="objectBoundingBox">
      <stop offset="0" stop-color="#9f1d21"/>
      <stop offset="0.12" stop-color="#a21e21"/>
      <stop offset="0.29" stop-color="#994845"/>
      <stop offset="0.6" stop-color="#7f2222"/>
      <stop offset="0.78" stop-color="#731112"/>
      <stop offset="0.85" stop-color="#761213"/>
      <stop offset="0.9" stop-color="#811517"/>
      <stop offset="0.96" stop-color="#931a1c"/>
      <stop offset="0.99" stop-color="#a21e21"/>
    </linearGradient>
  </defs>
  <g id="persuasive-influence-path" transform="translate(50 50)">
    <g id="PathwaysPaths" transform="translate(-50 -50)">
      <g id="PathwaysPaths-Copy">
        <g id="PersuasiveInfluencePath">
          <g id="Persuasive-Influence-Path-2" data-name="Persuasive-Influence-Path">
            <circle id="Oval" cx="50" cy="50" r="50" fill="url(#linear-gradient)"/>
            <path id="Shape" d="M99.873,52.311A47.563,47.563,0,1,1,85.944,18.675,47.565,47.565,0,0,1,99.873,52.311Z" transform="translate(-2.312 -2.31)" fill="url(#linear-gradient-2)"/>
            <circle id="Oval-2" data-name="Oval" cx="45.246" cy="45.246" r="45.246" transform="translate(4.643 4.862)" fill="url(#radial-gradient)"/>
            <circle id="Oval-3" data-name="Oval" cx="39.682" cy="39.682" r="39.682" transform="translate(10.995 9.973)" fill="url(#radial-gradient-2)"/>
            <g id="Group" transform="translate(12.72 22.057)">
              <g id="Shape-2" data-name="Shape" transform="translate(2.611 2.615)" opacity="0.75">
                <path id="Path_73210" data-name="Path 73210" d="M35.015,58.841s3.133-5.436,16.226-7.179c13.19-1.754,22.374,4.287,38.169,1.887,5.569-.846,9.718-1.795,10.769-5.087l9.3,41.092A31.394,31.394,0,0,1,88.6,97.108c-13.19,0-25.872-7.026-44.554,5.067Z" transform="translate(-32.39 -48.283)" fill="#231f20"/>
                <path id="Path_73211" data-name="Path 73211" d="M34.935,58.486s3.133-5.436,16.226-7.179C64.345,49.558,73.535,55.6,89.325,53.2c5.574-.846,9.744-1.8,10.769-5.087l9.3,41.087a31.389,31.389,0,0,1-20.877,7.554c-13.185,0-25.872-7.021-44.554,5.067Z" transform="translate(-32.351 -48.112)" fill="#231f20"/>
                <path id="Path_73212" data-name="Path 73212" d="M42.981,116.657,32.157,64.577s-.318-.513-1.349-.282-.908.841-.908.841l10.342,51.87c0,.2.482.426,1.631.241A1.62,1.62,0,0,0,42.981,116.657Z" transform="translate(-29.896 -55.967)" fill="#231f20"/>
                <path id="Path_73213" data-name="Path 73213" d="M40.615,111.51c.662-.154,1.205-.185,1.256-.062L32.831,68h0c-.092-.164-.605-.185-1.195-.036s-1.087.431-1.026.621l8.831,43.5C39.41,111.956,39.938,111.669,40.615,111.51Z" transform="translate(-30.241 -57.736)" fill="#231f20"/>
                <path id="Path_73214" data-name="Path 73214" d="M107.2,71.629c-1.026-.133-7.39-1.154-7.841-1.2s-.867-.087-1.3-.149c-1.764-.236-3.544-.446-5.292-.774-.579-.113-1.159-.236-1.733-.374-.815-.2-1.626-.41-2.431-.636s-1.61-.456-2.415-.692L83.8,67.1v.108a.685.685,0,0,1-.082.446l-.133.682s-.154.692-.19,1.026a9.342,9.342,0,0,1-.149.99A9.879,9.879,0,0,1,81.6,74.1l-.128.179a3.547,3.547,0,0,1-.3.359,2.65,2.65,0,0,1-1.026.728.6.6,0,0,1-.267,0,.75.75,0,0,1-.451-.349,3.447,3.447,0,0,1-.4-.846c-.267-.738-.472-1.5-.779-2.5.415.251.749.451,1.026.6a1.982,1.982,0,0,0,.851.308.517.517,0,0,0,.292-.072,1.164,1.164,0,0,0,.374-.426,8.425,8.425,0,0,0,.405-.826l.164-.374a10.584,10.584,0,0,0,.713-2.462l.128-.8c-.041-.287.133-.456.072-.749h0a.087.087,0,0,0,.072-.046l.036-.169-1.026-.313-.262-.072-.477-.128c-.215-.051-.431-.113-.636-.179a3.674,3.674,0,0,1-.626-.262,1.579,1.579,0,0,1-.467-.385,20.677,20.677,0,0,0-3.544-3.292c-.513-.395-1.026-.785-1.538-1.19-.251-.2-.513-.4-.749-.61-.441-.379-.872-.769-1.308-1.159s-.862-.779-1.3-1.159c-.123-.1-.236-.19-.349-.272a3.148,3.148,0,0,0-.318-.2,1.731,1.731,0,0,0-.528-.21,1.02,1.02,0,0,0-.513.046,1.22,1.22,0,0,0-.441.292,1.725,1.725,0,0,0,.067,2.41,5.236,5.236,0,0,0,.513.564c.179.174.369.344.559.513s.513.4.744.59.513.385.733.595h0a1.361,1.361,0,0,1,.149.154.8.8,0,0,1,.256.544.422.422,0,0,1-.179.313,1.424,1.424,0,0,1-.456.195,16.5,16.5,0,0,1-3.354.482c-1.538.072-3.128.113-4.7.159l-2.344.082c-.785,0-1.538.062-2.349.108a1.029,1.029,0,0,0-.21,0,2.4,2.4,0,0,0-.656.256,2.116,2.116,0,0,0-.379.277,1.363,1.363,0,0,0-.144.159.766.766,0,0,0-.1.164h0a.515.515,0,0,0,0,.292,4.112,4.112,0,0,0,.374.836,4.717,4.717,0,0,1,.205.441c-.323.164-.821.221-1.226.405a1.056,1.056,0,0,0-.687,1.149.483.483,0,0,0,.159.287,3.628,3.628,0,0,0,.59.431l.246.149a5.207,5.207,0,0,1,.477.328,5.856,5.856,0,0,0,.036.764.892.892,0,0,0,0,.128.514.514,0,0,0,.092.195.459.459,0,0,0,.159.133,1.03,1.03,0,0,0,.251.082h.164l.421.036h0l.564.031c.359,0,.718.041,1.082.067l1.077.077c0,.149-.036.287-.041.41a1.713,1.713,0,0,0,.056.631c.138.431.513.641,1.328.815a9.447,9.447,0,0,0,2.051.221,10.539,10.539,0,0,0,1.067-.036l1.538-.082c.513,0,1.026-.046,1.538-.036h.077c.564,0,1.128.031,1.687.051,1.687.072,3.369.179,5.056.272a.327.327,0,0,1,.164.056l.154.087c-.241,2.344-.113,3.867.415,4.913a3.373,3.373,0,0,0,.554.785,4.063,4.063,0,0,0,1.21.846,12.252,12.252,0,0,0,2.344.764q-1.677.046-3.359.067l-3.359.036h-.856a6.787,6.787,0,0,0-1.338,0,6.281,6.281,0,0,0-1.246.277,7.085,7.085,0,0,0-1.513.7c-.174.108-.349.221-.513.344A9.879,9.879,0,0,0,66.268,83.1c-.082.082-.164.159-.241.241a5.424,5.424,0,0,0-.426.513,6.366,6.366,0,0,0-.836,1.713,7.587,7.587,0,0,0-.308,3.995l3.954,1.364a9.462,9.462,0,0,1-2.472,3.21,5.359,5.359,0,0,1-.723.436c-.144.072-.287.149-.446.21a2.309,2.309,0,0,1-.287-.456,26.036,26.036,0,0,1-1.026-5.344,13.226,13.226,0,0,1,0-1.626,12,12,0,0,1,.19-1.641,5.84,5.84,0,0,1,.3-1.026,3.87,3.87,0,0,1,.841-1.328,3.581,3.581,0,0,1,1.421-.872.5.5,0,0,0,.113-.062.975.975,0,0,0,.118-.092c.082-.072.174-.159.3-.256a3.361,3.361,0,0,1-.395-.041.718.718,0,0,0-.256,0h0l-4.431,1.123L57.221,84.27l-1.231.308c-.226.056-.456.1-.687.149s-.467.082-.7.118l-.81.113-.595.067c-.559.062-1.123.113-1.687.149s-1.123.072-1.687.1a5.787,5.787,0,0,1-1.862-.067,17.31,17.31,0,0,1-2.9-1.179,2.37,2.37,0,0,1-.323-.195,3.41,3.41,0,0,1-.431-.385,3.146,3.146,0,0,1-.236-.287,1.816,1.816,0,0,1-.118-.169c-.379-.636-.585-1.246-.933-1.9s-.636-1.195-.979-1.851l-1.482-3.421,4.708,23.236a2.322,2.322,0,0,0,1.538.677q1.467,0,2.954-.108c2.436-.185,4.867-.431,7.3-.7l2.426-.267c1.415-.159,2.826-.344,4.236-.513s2.821-.369,4.236-.538a1.664,1.664,0,0,0,.431-.108,1.062,1.062,0,0,0,.636-.9c.067-.456.138-.913.2-1.364s.123-.913.169-1.369.072-.795.1-1.2.046-.821.072-1.246c1.185.451,2.154,1.133,3.118,1.128,2.323,0,4.451,1.713,6.846.692a.142.142,0,0,1,.092,0c.215.072.436.133.656.19a27.833,27.833,0,0,1,3.323.774,4.894,4.894,0,0,1,1.221.667,2.016,2.016,0,0,0,.9.282,1.071,1.071,0,0,0,.338,0,.863.863,0,0,0,.7-.585.826.826,0,0,0-.087-.656c0-.046-.051-.082-.072-.128a5.493,5.493,0,0,0-.446-.662,4.747,4.747,0,0,0-.641-.682c-.682-.579-1.41-1.1-2.128-1.636-.236-.179-.477-.359-.708-.544q-3.123-2.452-6.221-4.933c-.385-.308-.738-.656-1.108-.99l.138-.267,1.077-.046c.359,0,.723-.036,1.077-.067.677-.067,1.369-.108,2.051-.226.221-.041.441-.092.656-.154a2.129,2.129,0,0,0,.39-.159,2.806,2.806,0,0,0,.7-.549,2.559,2.559,0,0,0,.256-.333.788.788,0,0,0,.1-.313v-.185a3.69,3.69,0,0,0-.036-.615,1.832,1.832,0,0,1,0-.446c2.677.426,5.426.836,8.169,1.308,1.708.292,3.405.641,5.128.964q.852.158,1.708.308c.605.1,1.21.215,1.821.333l.913.128c.605.113,1.215.221,1.821.313s8.169,1.338,9.087,1.446Z" transform="translate(-35.094 -52.542)" fill="#231f20"/>
              </g>
              <path id="Shape-3" data-name="Shape" d="M29.915,53.741s3.138-5.431,16.231-7.179C59.33,44.808,68.52,50.849,84.31,48.449c5.569-.846,9.744-1.795,10.769-5.087l9.318,41.1A31.378,31.378,0,0,1,83.52,92.018c-13.185,0-25.877-7.046-44.559,5.062Z" transform="translate(-27.295 -43.183)" fill="url(#linear-gradient-3)"/>
              <path id="Shape-4" data-name="Shape" d="M29.835,53.391s3.138-5.436,16.226-7.179C59.25,44.458,68.435,50.5,84.23,48.1,89.8,47.253,93.973,46.3,95,43.012L104.3,84.1a31.394,31.394,0,0,1-20.882,7.554c-13.19,0-25.851-7.021-44.523,5.072Z" transform="translate(-27.256 -43.012)" fill="url(#linear-gradient-4)"/>
              <path id="Shape-5" data-name="Shape" d="M26.947,59.322s-.2-.37-1.234-.134-.9.836-.9.836l10.837,54.855c-.513.2.477.431,1.631.241a1.633,1.633,0,0,0,1.108-.585Z" transform="translate(-24.805 -50.854)" fill="url(#linear-gradient-5)"/>
              <path id="Shape-6" data-name="Shape" d="M35.525,106.418c.667-.154,1.21-.185,1.256-.062L27.745,62.91h0c-.087-.169-.6-.185-1.19-.041s-1.087.431-1.026.621l8.821,43.5C34.325,106.864,34.853,106.577,35.525,106.418Z" transform="translate(-25.156 -52.638)" fill="#ffc906"/>
              <path id="Shape-7" data-name="Shape" d="M102.11,66.544c-1.026-.133-7.385-1.149-7.836-1.195s-.867-.092-1.3-.149c-1.764-.241-3.544-.451-5.292-.779q-.877-.165-1.738-.369c-.81-.2-1.621-.415-2.426-.636s-1.615-.456-2.415-.7L78.721,62v.108a.686.686,0,0,1-.087.446l-.128.682s-.159.687-.19,1.026a9.128,9.128,0,0,1-.154.995A9.876,9.876,0,0,1,76.516,69l-.133.179a2.925,2.925,0,0,1-.3.354,2.623,2.623,0,0,1-1.062.738.686.686,0,0,1-.267,0,.766.766,0,0,1-.451-.349,3.871,3.871,0,0,1-.4-.846c-.262-.744-.467-1.5-.774-2.5.41.246.744.446,1.026.6a2.058,2.058,0,0,0,.856.308.515.515,0,0,0,.292-.077,1.135,1.135,0,0,0,.369-.421,8.493,8.493,0,0,0,.41-.831c.051-.113.108-.236.164-.369A10.638,10.638,0,0,0,77,63.333l.123-.805c-.036-.287.133-.456.077-.744h0a.091.091,0,0,0,.077-.051l.031-.164-1.026-.313-.262-.077-.477-.123c-.215-.056-.431-.113-.636-.179a3.637,3.637,0,0,1-.626-.267,1.573,1.573,0,0,1-.472-.379,20.292,20.292,0,0,0-3.528-3.292c-.513-.395-1.026-.79-1.538-1.19-.251-.2-.513-.405-.744-.61-.441-.379-.877-.769-1.308-1.159s-.846-.779-1.287-1.144a3.718,3.718,0,0,0-.344-.272,3.29,3.29,0,0,0-.318-.205,1.749,1.749,0,0,0-.574-.21,1.02,1.02,0,0,0-.513.046,1.233,1.233,0,0,0-.446.292,1.73,1.73,0,0,0,.067,2.41,5.238,5.238,0,0,0,.513.559c.185.179.374.349.564.513s.513.395.744.585.513.385.728.6h0l.149.159a.8.8,0,0,1,.292.549.4.4,0,0,1-.185.308,1.277,1.277,0,0,1-.456.2,16.75,16.75,0,0,1-3.354.477c-1.564.072-3.128.118-4.692.164l-2.349.077c-.779.031-1.538.067-2.344.108l-.21.031a2.145,2.145,0,0,0-.662.256,2.061,2.061,0,0,0-.374.277,1.275,1.275,0,0,0-.144.154.705.705,0,0,0-.1.164.467.467,0,0,0,0,.292,4.5,4.5,0,0,0,.369.836,4.757,4.757,0,0,1,.21.441c-.323.164-.821.221-1.231.4a1.056,1.056,0,0,0-.682,1.154.446.446,0,0,0,.154.282,3.216,3.216,0,0,0,.595.431l.241.154a5.214,5.214,0,0,1,.482.328,6.053,6.053,0,0,0,.031.759.852.852,0,0,0,.031.133.514.514,0,0,0,.092.195.459.459,0,0,0,.159.133,1.13,1.13,0,0,0,.251.077l.164.031a1.857,1.857,0,0,1,.421.036h.559l1.082.067L55.4,65.9q-.031.225-.046.415a1.807,1.807,0,0,0,.062.631c.138.426.513.641,1.328.81a9.416,9.416,0,0,0,2.051.226,10.59,10.59,0,0,0,1.067-.036l1.538-.087c.513-.026,1.026-.041,1.538-.036h.082c.564,0,1.123.031,1.687.056,1.687.067,3.369.179,5.056.267a.507.507,0,0,1,.164.056,1.591,1.591,0,0,0,.149.087c-.236,2.349-.108,3.872.421,4.918a3.332,3.332,0,0,0,.554.785,4.061,4.061,0,0,0,1.236.892,11.755,11.755,0,0,0,2.344.759c-1.118.036-2.241.056-3.359.072l-3.359.036h-.856a6.839,6.839,0,0,0-1.344,0,6.638,6.638,0,0,0-1.246.272,7.286,7.286,0,0,0-1.508.7,5.288,5.288,0,0,0-.513.349A9.16,9.16,0,0,0,61.269,78.1l-.236.241a5.64,5.64,0,0,0-.431.513,6.27,6.27,0,0,0-.908,1.651,7.569,7.569,0,0,0-.313,3.99l3.959,1.369a9.384,9.384,0,0,1-2.472,3.205,6.116,6.116,0,0,1-.723.441c-.149.072-.287.149-.446.21a2.44,2.44,0,0,1-.287-.456,26.07,26.07,0,0,1-1.026-5.344,15.626,15.626,0,0,1,0-1.626,12.69,12.69,0,0,1,.195-1.641,5.781,5.781,0,0,1,.292-1.026,4.027,4.027,0,0,1,.841-1.328,3.645,3.645,0,0,1,1.421-.923.431.431,0,0,0,.118-.056l.118-.092c.082-.072.174-.164.3-.262a3.245,3.245,0,0,1-.395-.041.827.827,0,0,0-.256,0h0l-4.431,1.118c-1.477.374-2.954.749-4.431,1.113l-1.231.308q-.344.082-.692.154l-.7.118c-.267.041-.513.077-.81.108l-.59.072c-.564.062-1.123.108-1.687.149l-1.687.092a5.787,5.787,0,0,1-1.862-.067,17.11,17.11,0,0,1-2.882-1.169,3,3,0,0,1-.318-.195,2.59,2.59,0,0,1-.431-.39,3.012,3.012,0,0,1-.236-.282c-.041-.062-.087-.113-.123-.174-.374-.631-.579-1.246-.928-1.892s-.641-1.2-.979-1.851l-1.508-3.405L40.2,93.959a2.322,2.322,0,0,0,1.538.677c.979,0,1.964-.031,2.949-.1,2.436-.185,4.867-.431,7.3-.7l2.431-.272c1.41-.159,2.826-.338,4.236-.513s2.821-.369,4.236-.513a1.669,1.669,0,0,0,.426-.108,1.051,1.051,0,0,0,.636-.9c.072-.451.138-.908.205-1.364s.118-.908.169-1.364.067-.8.092-1.205.046-.815.077-1.241c1.179.451,2.149,1.133,3.118,1.128,2.318,0,4.451,1.708,6.846.692a.116.116,0,0,1,.092,0c.215.072.436.133.656.19a28.081,28.081,0,0,1,3.323.774,5.068,5.068,0,0,1,1.221.667,1.931,1.931,0,0,0,.9.277,1.071,1.071,0,0,0,.338,0,1.111,1.111,0,0,0,.323-.113.817.817,0,0,0,.379-.477.871.871,0,0,0-.087-.656l-.077-.123a5.453,5.453,0,0,0-.441-.662,4.52,4.52,0,0,0-.646-.682c-.677-.585-1.405-1.1-2.123-1.636l-.708-.59q-3.138-2.436-6.215-4.923c-.39-.308-.744-.656-1.108-.985.046-.087.087-.179.133-.267.359,0,.723-.031,1.082-.046s.718-.036,1.077-.072c.677-.067,1.364-.1,2.051-.226a5.867,5.867,0,0,0,.656-.149,2.148,2.148,0,0,0,.39-.164,2.692,2.692,0,0,0,.7-.544,1.75,1.75,0,0,0,.256-.338.858.858,0,0,0,.108-.308v-.185a4.4,4.4,0,0,0-.031-.621,4.218,4.218,0,0,1,0-.441c2.672.426,5.426.836,8.164,1.3,1.713.3,3.41.646,5.128.964.569.108,1.133.21,1.7.308l1.821.333.913.174c.61.113,1.215.221,1.826.313s8.164,1.338,9.087,1.441Z" transform="translate(-30.013 -47.456)"/>
            </g>
          </g>
        </g>
      </g>
    </g>
  </g>
</svg>
