<svg xmlns="http://www.w3.org/2000/svg" xmlns:xlink="http://www.w3.org/1999/xlink" width="100" height="100" viewBox="0 0 100 100">
  <defs>
    <linearGradient id="linear-gradient" x1="-1.069" y1="2.525" x2="-1.069" y2="2.53" gradientUnits="objectBoundingBox">
      <stop offset="0" stop-color="#edbc46"/>
      <stop offset="0.27" stop-color="#eda44c"/>
      <stop offset="0.61" stop-color="#c48031"/>
      <stop offset="0.8" stop-color="#d89d3b"/>
      <stop offset="1" stop-color="#ffed95"/>
    </linearGradient>
    <linearGradient id="linear-gradient-2" x1="-1.138" y1="2.629" x2="-1.133" y2="2.629" xlink:href="#linear-gradient"/>
    <radialGradient id="radial-gradient" cx="0.484" cy="0.511" r="0.499" gradientTransform="matrix(1, -0.002, -0.002, -1, 0.006, 5.472)" gradientUnits="objectBoundingBox">
      <stop offset="0" stop-color="#7d1416"/>
      <stop offset="0.09" stop-color="#981819"/>
      <stop offset="0.26" stop-color="#c61f1f"/>
      <stop offset="0.39" stop-color="#e22323"/>
      <stop offset="0.46" stop-color="#ed2524"/>
      <stop offset="0.87" stop-color="#ec1e24"/>
      <stop offset="0.89" stop-color="#db1c22"/>
      <stop offset="0.94" stop-color="#a41619"/>
      <stop offset="0.98" stop-color="#811214"/>
      <stop offset="1" stop-color="#741112"/>
    </radialGradient>
    <radialGradient id="radial-gradient-2" cx="0.5" cy="0.529" r="0.5" gradientTransform="matrix(0.006, -1, -1, -0.006, 1.578, 1.588)" gradientUnits="objectBoundingBox">
      <stop offset="0" stop-color="#5e0000"/>
      <stop offset="0.61" stop-color="#5e0000"/>
      <stop offset="0.87" stop-color="#5e0000"/>
      <stop offset="1" stop-color="#be1e2d"/>
    </radialGradient>
    <linearGradient id="linear-gradient-3" x1="-1.625" y1="4.274" x2="-1.618" y2="4.276" gradientUnits="objectBoundingBox">
      <stop offset="0" stop-color="#4d1211"/>
      <stop offset="0.02" stop-color="#521312"/>
      <stop offset="0.04" stop-color="#601414"/>
      <stop offset="0.06" stop-color="#781718"/>
      <stop offset="0.08" stop-color="#991b1d"/>
      <stop offset="0.11" stop-color="#c32024"/>
      <stop offset="0.12" stop-color="#d82327"/>
      <stop offset="0.29" stop-color="#ae524f"/>
      <stop offset="0.43" stop-color="#912829"/>
      <stop offset="0.5" stop-color="#851719"/>
      <stop offset="0.78" stop-color="#d52427"/>
    </linearGradient>
    <linearGradient id="linear-gradient-4" x1="-1.625" y1="4.278" x2="-1.618" y2="4.279" gradientUnits="objectBoundingBox">
      <stop offset="0" stop-color="#b9db01"/>
      <stop offset="0.03" stop-color="#b7da06"/>
      <stop offset="0.06" stop-color="#b1d614"/>
      <stop offset="0.09" stop-color="#a8d12c"/>
      <stop offset="0.12" stop-color="#9ecb43"/>
      <stop offset="0.29" stop-color="#e4e416"/>
      <stop offset="0.4" stop-color="#cadf0a"/>
      <stop offset="0.5" stop-color="#b9db01"/>
      <stop offset="0.7" stop-color="#b9db01"/>
    </linearGradient>
    <linearGradient id="linear-gradient-5" x1="-8.639" y1="3.937" x2="-8.638" y2="3.937" gradientUnits="objectBoundingBox">
      <stop offset="0" stop-color="#9f1d21"/>
      <stop offset="0.12" stop-color="#a21e21"/>
      <stop offset="0.29" stop-color="#994845"/>
      <stop offset="0.6" stop-color="#7f2222"/>
      <stop offset="0.78" stop-color="#731112"/>
      <stop offset="0.85" stop-color="#761213"/>
      <stop offset="0.9" stop-color="#811517"/>
      <stop offset="0.96" stop-color="#931a1c"/>
      <stop offset="0.99" stop-color="#a21e21"/>
    </linearGradient>
  </defs>
  <g id="team-collaboration-path" transform="translate(50 50)">
    <g id="PathwaysPaths" transform="translate(-50 -50)">
      <g id="PathwaysPaths-Copy">
        <g id="TeamCollaborationPath">
          <g id="Team-Collaboration-Path-2" data-name="Team-Collaboration-Path">
            <circle id="Oval" cx="50" cy="50" r="50" fill="url(#linear-gradient)"/>
            <path id="Shape" d="M99.873,52.311A47.563,47.563,0,1,1,85.944,18.675,47.565,47.565,0,0,1,99.873,52.311Z" transform="translate(-2.312 -2.31)" fill="url(#linear-gradient-2)"/>
            <circle id="Oval-2" data-name="Oval" cx="45.246" cy="45.246" r="45.246" transform="translate(4.751 4.755)" fill="url(#radial-gradient)"/>
            <circle id="Oval-3" data-name="Oval" cx="39.682" cy="39.682" r="39.682" transform="translate(10.995 9.973)" fill="url(#radial-gradient-2)"/>
            <g id="Group" transform="translate(12.72 22.057)">
              <g id="Shape-2" data-name="Shape" transform="translate(2.611 2.418)" opacity="0.75">
                <path id="Path_73231" data-name="Path 73231" d="M35.015,58.841s3.133-5.436,16.226-7.179c13.19-1.754,22.374,4.287,38.169,1.887,5.569-.846,9.718-1.795,10.769-5.087l9.3,41.092A31.394,31.394,0,0,1,88.6,97.108c-13.19,0-25.872-7.026-44.554,5.067Z" transform="translate(-32.39 -48.086)" fill="#231f20"/>
                <path id="Path_73232" data-name="Path 73232" d="M34.935,58.486s3.133-5.436,16.226-7.179C64.345,49.558,73.535,55.6,89.325,53.2c5.574-.846,9.744-1.8,10.769-5.087l9.3,41.087a31.389,31.389,0,0,1-20.877,7.554c-13.185,0-25.872-7.021-44.554,5.067Z" transform="translate(-32.351 -47.915)" fill="#231f20"/>
                <path id="Path_73233" data-name="Path 73233" d="M30.17,47.728s1.669,8.294.638,8.525-.908.841-.908.841l10.187,52.07c0,.2.482.431,1.631.241a1.62,1.62,0,0,0,1.108-.59Z" transform="translate(-29.896 -47.728)" fill="#231f20"/>
                <path id="Path_73234" data-name="Path 73234" d="M40.615,111.51c.662-.154,1.205-.185,1.256-.062L32.831,68h0c-.092-.164-.605-.185-1.195-.036s-1.087.431-1.026.621l8.831,43.5C39.41,111.956,39.938,111.669,40.615,111.51Z" transform="translate(-30.241 -57.539)" fill="#231f20"/>
                <g id="Group_5158" data-name="Group 5158" transform="translate(16.865 7.674)">
                  <path id="Path_73235" data-name="Path 73235" d="M96.692,67.477l.056,1.246-.062.513.415.3L97.22,70.7l.7.185-.41.821-1.487.39s-1.795,4.615-1.81,4.779a15.219,15.219,0,0,0,.1,1.749L98.2,80.395l2.349,2.133,2.077,2.923,1.492-3.846,1.226-.544-.831-1.236s-.923-1.913-.451-3.128c-.9-.385-.395-1.713-.395-1.713.087-.292.785-.7,1.3-.877-.421-1.59-1.174-3.256-3.236-3.385-.569-.036-.774-.687-.774-.687l-.344-.205v-.856s.405-2.482-.359-3.123c-.385-.333-2.9-1.174-3.974.277S96.692,67.477,96.692,67.477Zm1.882,3.395.226-.041.1.579,1.728-.354-1.708.513-.933,1.538.626-1.538Zm-.323.718-.421,1.077-.354-.39.667-1.338ZM110.84,89.23l.395-1.4,1-1.538.046-4.246-1.615-.846a1.817,1.817,0,0,0,1.246-1.682c.221-1.477-1.374-1.026-1.21-1.482s0-1.436-1.026-3.01-3.446-.646-4.887.041.133,1.477.133,1.477a4.386,4.386,0,0,0,.472,3.256l1.026.349.026.744-.477.154.072.513-1.446.877S103.3,86.718,103.5,87.63a9.008,9.008,0,0,0,1.615,2.538s2.282,1.231,2.615,2.718c.513,2.831-.867,9.169-.867,9.169l5.923-10.005ZM69.3,77.559l-1.359.795s-.1.359-.236.882a2.837,2.837,0,0,1,1.8.979,1.856,1.856,0,0,1-.364,2l.272,1.672.328,2.01,1.349-.164.979,1.1,1.2,1.749.769-2.3,1.631-2.61L77.9,81.533l-2.99-4.267-1.487-.359-.072-.441h-.456l-.185-.646.81-.585A3.968,3.968,0,0,0,73.04,72.3s1.138-1.108-.292-1.313-3.785-.338-4.226,1.292-.328,2.513-.056,2.877-1.226.4-.641,1.61S69.3,77.559,69.3,77.559ZM106.666,92.43c-.318-.908-1.569-1.5-2.236-2.364l-8.631.051q.1-.272.185-.554l8.031-.082c-1.256-1.882-.805-1.462-1.026-2.641-.559-.723-.867-1.241-1.446-1.949a23.784,23.784,0,0,0-3.636-3.682l-3.3,1.9c-.123-.164-.256-.318-.39-.472l3.133-1.841c-3.646-2.605-6.667-2.051-10.528-1.364l.128.564h-.062c-.144.026-.277.062-.415.092l-.067-.569c-3.887.708-6.892,1.164-9.415,3.831l3.841,1.328-.123.3L76.753,83.62a18.916,18.916,0,0,0-3.277,5.821c-.087.226.441.195.354.436,1.364,1.241,1.026,3.421.8,4.328L81.3,92.056a6.154,6.154,0,0,0,.354.513L74.363,94.8c-.61.769-2.862,3.687-2.656,4.805.174.938.236,2.969,1.436,2.826,9.533-1.174,12.241-.267,16.559.169h.072l1.621.21h0c2.113.318,5.205.831,6.338.9,10.272.6,10.087-7.954,8.913-11.277ZM75.456,73.118c.205-.113.877-.6.877-.6l-.179.656s3.436,3.841,3.867,3.718,2.051-3.482,2.051-3.482l.81,3.031.513,2.964L89.61,78.22l-.764-5.728s1.913,1.862,2.267,1.631a46.129,46.129,0,0,0,2.651-4.1l-.221-.308a4.019,4.019,0,0,0,1.451-.236,1.483,1.483,0,0,0,.544-1.231,6.921,6.921,0,0,1-.979.328l-.621.046.092-.128-.051-.333-1.026.451-.092.472-.328-.236L90.7,71.261,88.133,68.42l-.221-.3-1.9-.056-.3-.718.169-.1a12.1,12.1,0,0,0,.072-1.328c0-.2.128-.133.179-.656.031-.364-.272-.328-.308-.467-.179-.7-.051-1.246-.374-1.733s-2.174-.564-2.9.21c-.313.328-.462.236-.513.713a3.288,3.288,0,0,0,.205,1.226.513.513,0,0,0-.185.656c.241.626.564.723.564.723l.236,1.067-.231.1.072.631L80.645,69.41v.426l-1.282,3.687L78.23,72.441l-.815-.779-.318.164.067-.3s-.415-1.026-1.128-.272c-1.631.364-.908.774-.487.513a3.021,3.021,0,0,1-1.421.749c-.164-.062.2.513.2.513A3.645,3.645,0,0,0,75.456,73.118Zm9.4-5.328.682-.236.205.513-.477.169.944.246-.221,2.831-1.138-2.918Zm-.59.128.179.554.318,3.133L83.169,68.83l.949-.308-1.179-.174-.082-.513ZM70.84,99.441a7.732,7.732,0,0,1,1.7-2.908L74.138,93.7a10.644,10.644,0,0,0,.087-2.3c-.185-.513-3.456-4.9-3.456-4.9l-1.7.082-.672-.718.672-.426-.277-1.267.344-.456-.241-.513-.359-1.338s1.538-.364-.062-1.538-4.015.99-4.015.99l.082,1.7c-1.026.41.579,1.713.579,1.713l.3.892-.292.328a1.088,1.088,0,0,1-.59.985c-3.3,1.277-1.026,5.918-.513,6.718l2.492,6.856.056,1.138.251,2.379,5.062-1.308S70.522,101,70.84,99.441Z" transform="translate(-62.783 -62.692)" fill="#231f20" fill-rule="evenodd"/>
                </g>
              </g>
              <path id="Shape-3" data-name="Shape" d="M29.915,53.741s3.138-5.431,16.231-7.179C59.33,44.808,68.52,50.849,84.31,48.449c5.569-.846,9.744-1.795,10.769-5.087l9.318,41.1A31.378,31.378,0,0,1,83.52,92.018c-13.185,0-25.877-7.046-44.559,5.062Z" transform="translate(-27.295 -43.183)" fill="url(#linear-gradient-3)"/>
              <path id="Shape-4" data-name="Shape" d="M29.835,53.391s3.138-5.436,16.226-7.179C59.25,44.458,68.435,50.5,84.23,48.1,89.8,47.253,93.973,46.3,95,43.012L104.3,84.1a31.394,31.394,0,0,1-20.882,7.554c-13.19,0-25.851-7.021-44.523,5.072Z" transform="translate(-27.256 -43.012)" fill="url(#linear-gradient-4)"/>
              <path id="Shape-5" data-name="Shape" d="M27.067,59.48s-.323-.513-1.354-.277-.9.836-.9.836l10.544,55.085c0,.195.477.426,1.631.236a1.627,1.627,0,0,0,1.108-.585Z" transform="translate(-24.805 -50.87)" fill="url(#linear-gradient-5)"/>
              <path id="Shape-6" data-name="Shape" d="M35.525,106.418c.667-.154,1.21-.185,1.256-.062L27.745,62.91c-.087-.169-.6-.185-1.19-.041s-1.087.431-1.026.621l8.821,43.5C34.325,106.864,34.853,106.577,35.525,106.418Z" transform="translate(-25.156 -52.638)" fill="#d3e10e"/>
              <g id="gal_copy_4" data-name="gal copy 4" transform="translate(16.874 7.469)">
                <path id="Shape-7" data-name="Shape" d="M91.609,62.369l.051,1.251-.062.513.421.3.118,1.164.692.185-.359.815-1.492.39s-1.79,4.615-1.81,4.785a14.994,14.994,0,0,0,.108,1.749l3.892,1.769,2.349,2.133,2.077,2.923L99.086,76.5l1.226-.544-.831-1.241s-.923-1.913-.451-3.128c-.9-.379-.395-1.708-.395-1.708.082-.3.779-.7,1.3-.882-.426-1.59-1.179-3.251-3.236-3.385-.574-.031-.779-.687-.779-.687l-.369-.21v-.856s.4-2.482-.364-3.123c-.379-.338-2.9-1.174-3.969.277S91.609,62.369,91.609,62.369ZM93.5,65.744l.226-.036.092.574,1.733-.333-1.708.513L92.907,68l.626-1.538Zm-.328.718-.415,1.077-.359-.385.672-1.338Zm12.574,17.646.395-1.4,1.026-1.538.046-4.246-1.615-.846a1.814,1.814,0,0,0,1.251-1.677c.226-1.477-1.379-1.026-1.21-1.487s0-1.436-1.026-3.01-3.446-.641-4.882.046.128,1.477.128,1.477a4.373,4.373,0,0,0,.477,3.256l1.026.349.026.744-.477.149.072.513-1.451.872S98.24,81.59,98.44,82.5a9.274,9.274,0,0,0,1.61,2.564s2.282,1.231,2.621,2.723c.513,2.831-.867,9.164-.867,9.164l5.918-10.005ZM64.2,72.436l-1.354.79-.236.882a2.836,2.836,0,0,1,1.795.979,1.858,1.858,0,0,1-.359,2.005l.272,1.672.328,2.005,1.344-.159.979,1.1,1.2,1.749.769-2.3,1.636-2.615L72.8,76.41l-2.995-4.267-1.487-.364-.082-.395h-.451l-.179-.651.805-.585a3.928,3.928,0,0,0-.477-2.933S69.081,66.1,67.65,65.9s-3.79-.338-4.226,1.292-.333,2.513-.056,2.872-1.231.4-.641,1.615,1.467.774,1.467.774Zm37.369,14.872C101.25,86.4,100,85.8,99.332,84.944l-8.626.046c.067-.179.128-.359.185-.549l8.031-.087c-1.256-1.877-.81-1.462-1.026-2.636-.564-.723-.867-1.241-1.451-1.954a24,24,0,0,0-3.631-3.682L89.527,77.99c-.123-.159-.256-.318-.39-.467l3.133-1.846c-3.651-2.605-6.667-2.051-10.528-1.359l.128.564H81.8a2,2,0,0,0-.415.087l-.067-.579c-3.882.7-6.887,1.159-9.415,3.831l3.846,1.369c-.046.1-.082.2-.123.3l-3.964-1.369a18.679,18.679,0,0,0-3.272,5.821c-.087.226.441.195.354.431,1.359,1.246,1.026,3.426.8,4.328l6.667-2.144q.169.256.354.513l-7.287,2.262c-.61.769-2.862,3.687-2.651,4.805.169.933.231,2.969,1.431,2.821C77.6,96.19,80.3,97.1,84.62,97.534H84.7l1.626.21h0c2.113.318,5.205.831,6.333.892,10.262.564,10.072-7.99,8.908-11.308ZM70.42,68.016c.205-.113.877-.6.877-.6l-.179.656s3.405,3.826,3.836,3.718S77,68.308,77,68.308l.779,3.021.513,2.959,6.21-1.185-.759-5.728s1.913,1.867,2.267,1.636a46.129,46.129,0,0,0,2.651-4.1l-.221-.308a3.993,3.993,0,0,0,1.446-.236,1.457,1.457,0,0,0,.544-1.231c0-.026-.79.313-.974.328l-.621.046.092-.133-.056-.333-1.026.451-.1.472-.323-.231-1.836,2.415L83.03,63.308,82.809,63l-1.9-.051-.3-.718.174-.1a12.133,12.133,0,0,0,.072-1.323c0-.2.128-.138.174-.662.036-.364-.267-.323-.3-.462-.179-.7-.051-1.246-.374-1.733s-2.174-.569-2.908.205c-.313.333-.462.236-.513.713a3.307,3.307,0,0,0,.21,1.231.513.513,0,0,0-.19.656c.246.621.569.723.569.723l.236,1.062-.231.1.072.631L75.543,64.3v.421L74.291,68.41l-1.149-1.072-.815-.785-.313.164.067-.292s-.421-1.026-1.133-.277c-1.626.369-.908.779-.482.513a3.033,3.033,0,0,1-1.426.749c-.159-.067.205.513.205.513A3.8,3.8,0,0,0,70.42,68.016Zm9.374-5.349.682-.231.205.513-.477.169.944.246-.241,2.805-1.144-2.918ZM79.2,62.8l.185.554.313,3.133-1.585-2.754.954-.308-1.179-.179-.087-.513ZM65.758,94.334a7.677,7.677,0,0,1,1.7-2.908l1.6-2.831a10.419,10.419,0,0,0,.082-2.3c-.179-.487-3.451-4.908-3.451-4.908l-1.7.087-.677-.718.672-.426-.262-1.251.338-.456-.241-.513-.359-1.333s1.538-.369-.056-1.538-4.015.995-4.015.995l.082,1.7c-1.026.415.574,1.713.574,1.713l.308.892-.292.328a1.1,1.1,0,0,1-.59.985c-3.308,1.282-1.026,5.923-.513,6.718l2.487,6.862.056,1.133.251,2.379,5.082-1.354S65.44,95.9,65.758,94.334Z" transform="translate(-57.709 -57.577)" fill="#231f20" fill-rule="evenodd"/>
              </g>
            </g>
          </g>
        </g>
      </g>
    </g>
  </g>
</svg>
